{
.appVersion = "1352";
DisplayStrings = (
"/zah-ar.init",
"/heh-ar.medi"
);
customParameters = (
{
name = fsType;
value = (
);
},
{
name = licenseURL;
value = "http://scripts.sil.org/OFL";
},
{
name = license;
value = "This Font Software is licensed under the SIL Open Font License, Version 1.1. This license is available with a FAQ at: http://scripts.sil.org/OFL";
},
{
name = "Use Typo Metrics";
value = 1;
},
{
name = "Disable Last Change";
value = 1;
},
{
name = "Use Line Breaks";
value = 1;
},
{
name = Axes;
value = (
{
Name = Weight;
Tag = wght;
}
);
},
{
name = openTypeOS2StrikeoutPosition;
value = 250;
},
{
name = openTypeOS2StrikeoutSize;
value = 50;
},
{
name = openTypeOS2SubscriptXOffset;
value = 0;
},
{
name = openTypeOS2SubscriptXSize;
value = 700;
},
{
name = openTypeOS2SubscriptYOffset;
value = 140;
},
{
name = openTypeOS2SubscriptYSize;
value = 650;
},
{
name = openTypeOS2SuperscriptXOffset;
value = 0;
},
{
name = openTypeOS2SuperscriptXSize;
value = 700;
},
{
name = openTypeOS2SuperscriptYOffset;
value = 477;
},
{
name = openTypeOS2SuperscriptYSize;
value = 650;
},
{
name = flags;
value = header;
},
{
name = sampleText;
value = "Hello Dears :D";
},
{
name = versionString;
value = "0.850";
}
);
date = "2019-09-16 14:55:29 +0000";
designer = "AbdElmomen Kadhim";
familyName = Darine;
featurePrefixes = (
{
code = "languagesystem DFLT dflt;
languagesystem arab dflt;
languagesystem latn dflt;
languagesystem latn ROM;
languagesystem latn MOL;
languagesystem arab URD;";
name = Languagesystems;
}
);
features = (
{
automatic = 1;
code = "feature init;
feature medi;
feature fina;
";
name = aalt;
},
{
automatic = 1;
code = "lookup ccmp_arab_1 {
	sub hamzaabove-ar damma-ar by hamzaaboveDamma-ar;
	sub damma-ar hamzaabove-ar by hamzaaboveDamma-ar;
	sub hamzaabove-ar dammatan-ar by hamzaaboveDammatan-ar;
	sub dammatan-ar hamzaabove-ar by hamzaaboveDammatan-ar;
	sub hamzaabove-ar fatha-ar by hamzaaboveFatha-ar;
	sub fatha-ar hamzaabove-ar by hamzaaboveFatha-ar;

glyphs = (
{
glyphname = "hamza-ar";
layers = (
{
anchors = (
{
name = _top;
position = "{274, 0}";
},
{
name = center;
position = "{284, 319}";
},
{
name = top;
position = "{262, 500}";
}
);
layerId = "7C6EC3B8-53E3-46D5-865A-ED8DFE2E3A2E";
paths = (
{
closed = 1;
nodes = (
"225 190 LINE",
"183 230 OFFCURVE",
"164 275 OFFCURVE",
"164 335 CURVE SMOOTH",
"164 468 OFFCURVE",
"338 499 OFFCURVE",
"391 422 CURVE",
"415 438 LINE",
"352 531 OFFCURVE",
"134 504 OFFCURVE",
"134 335 CURVE SMOOTH",
"134 268 OFFCURVE",
"157 213 OFFCURVE",
"205 168 CURVE"
);
},
{
closed = 1;
nodes = (
"203 153 OFFCURVE",
"345 154 OFFCURVE",
"460 215 CURVE",
"446 241 LINE",
"337 184 OFFCURVE",
"205 183 OFFCURVE",
"64 203 CURVE",
"60 173 LINE"
);
}
);
width = 600;
},
{
anchors = (
{
name = _top;
position = "{292, 0}";
},
{
name = center;
position = "{280, 329}";
},
{
name = top;
position = "{271, 500}";
}
);
layerId = "EA99615A-DD74-4F65-B9DC-480CDB683AEE";
paths = (
{
closed = 1;
nodes = (
"225 159 LINE",
"186 195 OFFCURVE",
"168 237 OFFCURVE",
"168 293 CURVE SMOOTH",
"168 392 OFFCURVE",
"314 448 OFFCURVE",
"367 371 CURVE",
"441 421 LINE",
"339 572 OFFCURVE",
"78 481 OFFCURVE",
"78 293 CURVE SMOOTH",
"78 214 OFFCURVE",
"107 146 OFFCURVE",
"163 93 CURVE"
);
},
{
closed = 1;
nodes = (
"223 61 OFFCURVE",
"362 76 OFFCURVE",
"470 133 CURVE",
"428 213 LINE",
"337 165 OFFCURVE",
"219 153 OFFCURVE",
"55 176 CURVE",
"43 86 LINE"
);
}
);
width = 520;
},
{
anchors = (
{
name = _top;
position = "{300, 0}";
},
{
name = center;
position = "{302, 260}";
},
{
name = top;
position = "{300, 500}";
}
);
layerId = "9AB624CD-9C19-4372-9845-4C197A276709";
paths = (
{
closed = 1;
nodes = (
"238 150 LINE",
"195 189 OFFCURVE",
"176 235 OFFCURVE",
"176 295 CURVE SMOOTH",
"176 409 OFFCURVE",
"341 471 OFFCURVE",
"402 381 CURVE",
"452 415 LINE",
"358 553 OFFCURVE",
"116 468 OFFCURVE",
"116 295 CURVE SMOOTH",
"116 220 OFFCURVE",
"143 156 OFFCURVE",
"196 106 CURVE"
);
},
{
closed = 1;
nodes = (
"264 79 OFFCURVE",
"391 92 OFFCURVE",
"492 144 CURVE",
"464 198 LINE",
"375 151 OFFCURVE",
"261 140 OFFCURVE",
"100 163 CURVE",
"92 103 LINE"
);
}
);
width = 600;
}
);
unicode = 0621;
},
{
glyphname = "alef-ar";
layers = (
{
anchors = (
{
name = bottom;
position = "{70, -18}";
},
{
name = top;
position = "{48, 1017}";
}
);
layerId = "7C6EC3B8-53E3-46D5-865A-ED8DFE2E3A2E";
paths = (
{
closed = 1;
nodes = (
"87 482 OFFCURVE",
"86 520 OFFCURVE",
"70 1017 CURVE",
"40 1017 LINE",
"56 520 OFFCURVE",
"57 482 OFFCURVE",
"56 -18 CURVE",
"86 -18 LINE"
);
}
);
width = 126;
},
{
anchors = (
{
name = bottom;
position = "{103, -21}";
},
{
name = top;
position = "{95, 1021}";
}
);
layerId = "EA99615A-DD74-4F65-B9DC-480CDB683AEE";
paths = (
{
closed = 1;
nodes = (
"148 390 OFFCURVE",
"145 597 OFFCURVE",
"130 1018 CURVE",
"40 1016 LINE",
"55 595 OFFCURVE",
"58 388 OFFCURVE",
"56 -18 CURVE",
"146 -18 LINE"
);
}
);
width = 187;
},
{
anchors = (
{
name = bottom;
position = "{100, -18}";
},
{
name = top;
position = "{93, 1018}";
}
);
layerId = "9AB624CD-9C19-4372-9845-4C197A276709";
paths = (
{
closed = 1;
nodes = (
"131 482 OFFCURVE",
"131 521 OFFCURVE",
"120 1018 CURVE",
"60 1016 LINE",
"71 519 OFFCURVE",
"71 482 OFFCURVE",
"70 -18 CURVE",
"130 -18 LINE"
);
}
);
width = 190;
}
);
unicode = 0627;
},
{
glyphname = "alef-ar.fina";
layers = (
{
anchors = (
{
name = "#entry";
position = "{196, 0}";
},
{
name = bottom;
position = "{89, 0}";
},
{
name = top;
position = "{57, 1040}";
}
);
background = {
paths = (
{
closed = 0;
nodes = (
"238 12 LINE"
);
}
);
};
layerId = "7C6EC3B8-53E3-46D5-865A-ED8DFE2E3A2E";
paths = (
{
closed = 1;
nodes = (
"196 30 LINE",
"73 30 OFFCURVE",
"70 145 OFFCURVE",
"70 420 CURVE SMOOTH",
"70 490 OFFCURVE",
"71 573 OFFCURVE",
"72 670 CURVE SMOOTH",
"73 774 OFFCURVE",
"74 896 OFFCURVE",
"75 1036 CURVE",
"45 1036 LINE",
"44 893 OFFCURVE",
"43 771 OFFCURVE",
"42 665 CURVE SMOOTH",
"41 570 OFFCURVE",
"40 489 OFFCURVE",
"40 420 CURVE SMOOTH",
"40 145 OFFCURVE",
"43 0 OFFCURVE",
"196 0 CURVE"
);
}
);
width = 196;
},
{
anchors = (
{
name = "#entry";
position = "{409, 0}";
},
{
name = bottom;
position = "{149, 0}";
},
{
name = top;
position = "{100, 1081}";
}
);
hints = (
{
horizontal = 1;
origin = "{0, 0}";
target = "{0, 19}";
type = Stem;
},
{
origin = "{0, 16}";
target = "{0, 3}";
type = Stem;
}
);
layerId = "EA99615A-DD74-4F65-B9DC-480CDB683AEE";
paths = (
{
closed = 1;
nodes = (
"409 90 LINE",
"217 90 OFFCURVE",
"150 166 OFFCURVE",
"150 465 CURVE SMOOTH",
"150 474 OFFCURVE",
"150 659 OFFCURVE",
"150 827 CURVE SMOOTH",
"150 937 OFFCURVE",
"150 1039 OFFCURVE",
"150 1081 CURVE",
"60 1081 LINE",
"60 1029 OFFCURVE",
"60 942 OFFCURVE",
"60 849 CURVE SMOOTH",
"60 687 OFFCURVE",
"60 506 OFFCURVE",
"60 465 CURVE SMOOTH",
"60 187 OFFCURVE",
"124 0 OFFCURVE",
"409 0 CURVE"
);
}
);
width = 409;
},
{
anchors = (
{
name = "#entry";
position = "{426, 0}";
},
{
name = bottom;
position = "{138, 0}";
},
{
name = top;
position = "{97, 1048}";
}
);
layerId = "9AB624CD-9C19-4372-9845-4C197A276709";
paths = (
{
closed = 1;
nodes = (
"426 60 LINE",
"134 60 OFFCURVE",
"120 234 OFFCURVE",
"120 608 CURVE SMOOTH",
"120 681 OFFCURVE",
"120 760 OFFCURVE",
"122 843 CURVE SMOOTH",
"123 893 OFFCURVE",
"123 995 OFFCURVE",
"123 1048 CURVE",
"63 1048 LINE",
"63 995 OFFCURVE",
"62 894 OFFCURVE",
"62 844 CURVE SMOOTH",
"62 760 OFFCURVE",
"60 681 OFFCURVE",
"60 608 CURVE SMOOTH",
"60 232 OFFCURVE",
"78 0 OFFCURVE",
"426 0 CURVE"
);
}
);
width = 426;
}
);
unicode = FE8E;
},
{
glyphname = "behDotless-ar";
layers = (
{
anchors = (
{
name = "#entry";
position = "{1086, 0}";
},
{
name = "#exit";
position = "{75, 2}";
},
{
name = bottom;
position = "{590, 0}";
},
{
name = top;
position = "{590, 500}";
}
);
layerId = "7C6EC3B8-53E3-46D5-865A-ED8DFE2E3A2E";
paths = (
{
closed = 1;
nodes = (
"54 387 OFFCURVE",
"41 330 OFFCURVE",
"41 262 CURVE SMOOTH",
"41 69 OFFCURVE",
"152 0 OFFCURVE",
"457 0 CURVE SMOOTH",
"667 0 OFFCURVE",
"737 0 OFFCURVE",
"756 0 CURVE SMOOTH",
"1004 0 OFFCURVE",
"1094 73 OFFCURVE",
"1094 276 CURVE SMOOTH",
"1094 343 OFFCURVE",
"1086 398 OFFCURVE",
"1053 511 CURVE",
"1023 503 LINE",
"1056 393 OFFCURVE",
"1064 341 OFFCURVE",
"1064 276 CURVE SMOOTH",
"1064 91 OFFCURVE",
"988 30 OFFCURVE",
"756 30 CURVE SMOOTH",
"736 30 OFFCURVE",
"669 30 OFFCURVE",
"457 30 CURVE SMOOTH",
"167 30 OFFCURVE",
"71 89 OFFCURVE",
"71 262 CURVE SMOOTH",
"71 326 OFFCURVE",
"83 379 OFFCURVE",
"127 502 CURVE",
"99 512 LINE"
);
}
);
width = 1135;
},
{
anchors = (
{
name = "#entry";
position = "{1100, 0}";
},
{
name = "#exit";
position = "{88, 2}";
},
{
name = bottom;
position = "{609, 0}";
},
{
name = top;
position = "{609, 500}";
}
);
layerId = "EA99615A-DD74-4F65-B9DC-480CDB683AEE";
paths = (
{
closed = 1;
nodes = (
"88 368 OFFCURVE",
"75 313 OFFCURVE",
"75 247 CURVE SMOOTH",
"75 62 OFFCURVE",
"182 0 OFFCURVE",
"476 0 CURVE SMOOTH",
"688 0 OFFCURVE",
"755 0 OFFCURVE",
"775 0 CURVE SMOOTH",
"1014 0 OFFCURVE",
"1098 66 OFFCURVE",
"1098 261 CURVE SMOOTH",
"1098 332 OFFCURVE",
"1088 389 OFFCURVE",
"1056 492 CURVE",
"970 466 LINE",
"999 370 OFFCURVE",
"1008 323 OFFCURVE",
"1008 261 CURVE SMOOTH",
"1008 122 OFFCURVE",
"968 90 OFFCURVE",
"775 90 CURVE SMOOTH",
"755 90 OFFCURVE",
"690 90 OFFCURVE",
"476 90 CURVE SMOOTH",
"225 90 OFFCURVE",
"165 125 OFFCURVE",
"165 247 CURVE SMOOTH",
"165 302 OFFCURVE",
"175 346 OFFCURVE",
"216 462 CURVE",
"132 492 LINE"
);
}
);
width = 1283;
},
{
anchors = (
{
name = "#entry";
position = "{1113, 0}";
},
{
name = "#exit";
position = "{94, 2}";
},
{
name = bottom;
position = "{609, 0}";
},
{
name = top;
position = "{609, 500}";
}
);
layerId = "9AB624CD-9C19-4372-9845-4C197A276709";
paths = (
{
closed = 1;
nodes = (
"73 388 OFFCURVE",
"60 331 OFFCURVE",
"60 262 CURVE SMOOTH",
"60 68 OFFCURVE",
"172 0 OFFCURVE",
"476 0 CURVE SMOOTH",
"688 0 OFFCURVE",
"755 0 OFFCURVE",
"775 0 CURVE SMOOTH",
"1022 0 OFFCURVE",
"1113 73 OFFCURVE",
"1113 276 CURVE SMOOTH",
"1113 348 OFFCURVE",
"1103 405 OFFCURVE",
"1071 512 CURVE",
"1013 494 LINE",
"1044 393 OFFCURVE",
"1053 342 OFFCURVE",
"1053 276 CURVE SMOOTH",
"1053 110 OFFCURVE",
"992 60 OFFCURVE",
"775 60 CURVE SMOOTH",
"754 60 OFFCURVE",
"689 60 OFFCURVE",
"476 60 CURVE SMOOTH",
"202 60 OFFCURVE",
"120 109 OFFCURVE",
"120 262 CURVE SMOOTH",
"120 323 OFFCURVE",
"132 373 OFFCURVE",
"174 492 CURVE",
"118 512 LINE"
);
}
);
width = 1173;
}
);
unicode = 066E;
},
{
glyphname = "behDotless-ar.fina";
layers = (
{
anchors = (
{
name = "#entry";
position = "{1240, 0}";
},
{
name = bottom;
position = "{596, 0}";
},
{
name = top;
position = "{604, 500}";
}
);
layerId = "7C6EC3B8-53E3-46D5-865A-ED8DFE2E3A2E";
paths = (
{
closed = 1;
nodes = (
"1069 0 OFFCURVE",
"1114 54 OFFCURVE",
"1139 129 CURVE",
"1147 47 OFFCURVE",
"1171 0 OFFCURVE",
"1240 0 CURVE",
"1240 30 LINE",
"1153 30 OFFCURVE",
"1166 159 OFFCURVE",
"1166 344 CURVE SMOOTH",
"1166 408 OFFCURVE",
"1161 467 OFFCURVE",
"1157 505 CURVE",
"1127 503 LINE",
"1131 464 OFFCURVE",
"1136 407 OFFCURVE",
"1136 346 CURVE SMOOTH",
"1136 181 OFFCURVE",
"1108 30 OFFCURVE",
"990 30 CURVE SMOOTH",
"498 31 OFFCURVE",
"482 32 OFFCURVE",
"471 32 CURVE SMOOTH",
"192 32 OFFCURVE",
"59 127 OFFCURVE",
"59 299 CURVE SMOOTH",
"59 356 OFFCURVE",
"73 422 OFFCURVE",
"102 495 CURVE",
"74 503 LINE",
"45 427 OFFCURVE",
"30 358 OFFCURVE",
"30 298 CURVE SMOOTH",
"30 110 OFFCURVE",
"174 2 OFFCURVE",
"471 2 CURVE SMOOTH",
"556 2 OFFCURVE",
"505 0 OFFCURVE",
"990 0 CURVE SMOOTH"
);
}
);
width = 1240;
},
{
anchors = (
{
name = "#entry";
position = "{1330, 0}";
},
{
name = bottom;
position = "{659, 0}";
},
{
name = top;
position = "{651, 500}";
}
);
layerId = "EA99615A-DD74-4F65-B9DC-480CDB683AEE";
paths = (
{
closed = 1;
nodes = (
"1079 0 OFFCURVE",
"1121 32 OFFCURVE",
"1148 95 CURVE",
"1185 26 OFFCURVE",
"1243 0 OFFCURVE",
"1330 0 CURVE",
"1330 90 LINE",
"1235 91 OFFCURVE",
"1198 138 OFFCURVE",
"1184 339 CURVE SMOOTH",
"1181 383 OFFCURVE",
"1179 433 OFFCURVE",
"1178 492 CURVE",
"1083 490 LINE",
"1087 452 OFFCURVE",
"1092 389 OFFCURVE",
"1092 331 CURVE SMOOTH",
"1092 168 OFFCURVE",
"1064 90 OFFCURVE",
"1021 90 CURVE SMOOTH",
"530 90 OFFCURVE",
"514 92 OFFCURVE",
"502 92 CURVE SMOOTH",
"270 92 OFFCURVE",
"165 156 OFFCURVE",
"165 284 CURVE SMOOTH",
"165 332 OFFCURVE",
"177 387 OFFCURVE",
"203 453 CURVE",
"119 485 LINE",
"90 411 OFFCURVE",
"75 343 OFFCURVE",
"75 284 CURVE SMOOTH",
"75 97 OFFCURVE",
"224 2 OFFCURVE",
"502 2 CURVE SMOOTH",
"512 2 OFFCURVE",
"528 0 OFFCURVE",
"1021 0 CURVE SMOOTH"
);
}
);
width = 1330;
},
{
anchors = (
{
name = "#entry";
position = "{1305, 0}";
},
{
name = bottom;
position = "{659, 0}";
},
{
name = top;
position = "{651, 500}";
}
);
layerId = "9AB624CD-9C19-4372-9845-4C197A276709";
paths = (
{
closed = 1;
nodes = (
"1092 0 OFFCURVE",
"1141 42 OFFCURVE",
"1169 124 CURVE",
"1197 45 OFFCURVE",
"1244 0 OFFCURVE",
"1305 0 CURVE",
"1305 60 LINE",
"1241 60 OFFCURVE",
"1198 174 OFFCURVE",
"1197 346 CURVE SMOOTH",
"1197 408 OFFCURVE",
"1192 467 OFFCURVE",
"1188 506 CURVE",
"1128 500 LINE",
"1132 461 OFFCURVE",
"1137 406 OFFCURVE",
"1137 346 CURVE SMOOTH",
"1137 152 OFFCURVE",
"1098 60 OFFCURVE",
"1021 60 CURVE SMOOTH",
"529 61 OFFCURVE",
"513 62 OFFCURVE",
"502 62 CURVE SMOOTH",
"245 62 OFFCURVE",
"120 142 OFFCURVE",
"120 299 CURVE SMOOTH",
"120 353 OFFCURVE",
"134 415 OFFCURVE",
"161 484 CURVE",
"105 506 LINE",
"75 431 OFFCURVE",
"60 361 OFFCURVE",
"60 299 CURVE SMOOTH",
"60 104 OFFCURVE",
"214 2 OFFCURVE",
"502 2 CURVE SMOOTH",
"513 2 OFFCURVE",
"529 1 OFFCURVE",
"1021 0 CURVE SMOOTH"
);
}
);
width = 1305;
}
);
},
{
glyphname = "behDotless-ar.medi";
layers = (
{
anchors = (
{
name = "#entry";
position = "{384, 0}";
},
{
name = "#exit";
position = "{0, 0}";
},
{
name = bottom;
position = "{164, 0}";
},
{
name = top;
position = "{72, 530}";
}
);
layerId = "7C6EC3B8-53E3-46D5-865A-ED8DFE2E3A2E";
paths = (
{
closed = 1;
nodes = (
"164 0 OFFCURVE",
"240 10 OFFCURVE",
"273 100 CURVE",
"285 26 OFFCURVE",
"313 0 OFFCURVE",
"384 0 CURVE",
"384 30 LINE",
"277 30 OFFCURVE",
"296 121 OFFCURVE",
"296 312 CURVE SMOOTH",
"296 365 OFFCURVE",
"294 427 OFFCURVE",
"292 500 CURVE",
"262 500 LINE",
"264 423 OFFCURVE",
"266 359 OFFCURVE",
"266 306 CURVE SMOOTH",
"266 38 OFFCURVE",
"223 30 OFFCURVE",
"0 30 CURVE",
"0 0 LINE"
);
}
);
width = 384;
},
{
anchors = (
{
name = "#entry";
position = "{391, 0}";
},
{
name = "#exit";
position = "{0, 0}";
},
{
name = bottom;
position = "{232, 0}";
},
{
name = top;
position = "{47, 673}";
}
);
layerId = "EA99615A-DD74-4F65-B9DC-480CDB683AEE";
paths = (
{
closed = 1;
nodes = (
"125 0 OFFCURVE",
"194 29 OFFCURVE",
"233 77 CURVE",
"266 25 OFFCURVE",
"317 0 OFFCURVE",
"391 0 CURVE",
"391 90 LINE",
"318 90 OFFCURVE",
"287 126 OFFCURVE",
"280 248 CURVE SMOOTH",
"273 369 OFFCURVE",
"277 454 OFFCURVE",
"277 501 CURVE",
"187 499 LINE",
"189 434 OFFCURVE",
"191 283 OFFCURVE",
"190 247 CURVE SMOOTH",
"186 116 OFFCURVE",
"152 90 OFFCURVE",
"0 90 CURVE",
"0 0 LINE"
);
}
);
width = 391;
},
{
anchors = (
{
name = "#entry";
position = "{423, 0}";
},
{
name = "#exit";
position = "{0, 0}";
},
{
name = bottom;
position = "{232, 0}";
},
{
name = top;
position = "{47, 645}";
}
);
layerId = "9AB624CD-9C19-4372-9845-4C197A276709";
paths = (
{
closed = 1;
nodes = (
"157 0 OFFCURVE",
"233 14 OFFCURVE",
"268 86 CURVE",
"296 24 OFFCURVE",
"344 0 OFFCURVE",
"423 0 CURVE",
"423 60 LINE",
"323 60 OFFCURVE",
"296 110 OFFCURVE",
"296 312 CURVE SMOOTH",
"296 362 OFFCURVE",
"292 492 OFFCURVE",
"292 501 CURVE",
"232 499 LINE",
"234 422 OFFCURVE",
"236 359 OFFCURVE",
"236 306 CURVE SMOOTH",
"236 73 OFFCURVE",
"222 60 OFFCURVE",
"0 60 CURVE",
"0 0 LINE"
);
}
);
width = 423;
}
);
},
{
glyphname = "behDotless-ar.init";
layers = (
{
anchors = (
{
name = "#exit";
position = "{0, 0}";
},
{
name = bottom;
position = "{192, 0}";
},
{
name = top;
position = "{136, 616}";
}
);
layerId = "7C6EC3B8-53E3-46D5-865A-ED8DFE2E3A2E";
paths = (
{
closed = 1;
nodes = (
"356 0 OFFCURVE",
"331 114 OFFCURVE",
"304 522 CURVE",
"274 520 LINE",
"301 110 OFFCURVE",
"318 30 OFFCURVE",
"0 30 CURVE",
"0 0 LINE"
);
}
);
width = 357;
},
{
anchors = (
{
name = "#exit";
position = "{0, 0}";
},
{
name = bottom;
position = "{261, 0}";
},
{
name = top;
position = "{162, 693}";
}
);
layerId = "EA99615A-DD74-4F65-B9DC-480CDB683AEE";
paths = (
{
closed = 1;
nodes = (
"261 0 OFFCURVE",
"330 103 OFFCURVE",
"329 501 CURVE",
"239 501 LINE",
"240 147 OFFCURVE",
"201 90 OFFCURVE",
"0 90 CURVE",
"0 0 LINE"
);
}
);
width = 379;
},
{
anchors = (
{
name = "#exit";
position = "{0, 0}";
},
{
name = bottom;
position = "{239, 0}";
},
{
name = top;
position = "{90, 681}";
}
);
layerId = "9AB624CD-9C19-4372-9845-4C197A276709";
paths = (
{
closed = 1;
nodes = (
"278 0 OFFCURVE",
"358 121 OFFCURVE",
"334 490 CURVE",
"274 486 LINE",
"296 148 OFFCURVE",
"237 60 OFFCURVE",
"0 60 CURVE",
"0 0 LINE"
);
}
);
width = 388;
}
);
},
{
glyphname = "hah-ar";
layers = (
{
anchors = (
{
name = bottom;
position = "{455, 37}";
},
{
name = top;
position = "{260, 524}";
}
);
layerId = "7C6EC3B8-53E3-46D5-865A-ED8DFE2E3A2E";
paths = (
{
closed = 1;
nodes = (
"648 49 LINE",
"501 112 OFFCURVE",
"471 202 OFFCURVE",
"435 316 CURVE SMOOTH",
"403 420 OFFCURVE",
"372 524 OFFCURVE",
"264 524 CURVE SMOOTH",
"147 524 OFFCURVE",
"52 364 OFFCURVE",
"34 336 CURVE",
"58 320 LINE",
"78 348 OFFCURVE",
"165 494 OFFCURVE",
"264 494 CURVE SMOOTH",
"350 494 OFFCURVE",
"375 412 OFFCURVE",
"407 308 CURVE SMOOTH",
"443 192 OFFCURVE",
"477 86 OFFCURVE",
"642 19 CURVE"
);
},
{
closed = 1;
nodes = (
"429 -444 LINE",
"230 -449 OFFCURVE",
"93 -354 OFFCURVE",
"93 -197 CURVE SMOOTH",
"93 -76 OFFCURVE",
"240 37 OFFCURVE",
"459 37 CURVE SMOOTH",
"529 37 OFFCURVE",
"587 34 OFFCURVE",
"626 27 CURVE",
"630 57 LINE",
"590 63 OFFCURVE",
"530 67 OFFCURVE",
"459 67 CURVE SMOOTH",
"223 67 OFFCURVE",
"63 -57 OFFCURVE",
"63 -197 CURVE SMOOTH",
"63 -371 OFFCURVE",
"214 -480 OFFCURVE",
"429 -474 CURVE"
);
}
);
width = 674;
},
{
anchors = (
{
name = bottom;
position = "{579, 25}";
},
{
name = top;
position = "{326, 565}";
}
);
layerId = "EA99615A-DD74-4F65-B9DC-480CDB683AEE";
paths = (
{
closed = 1;
nodes = (
"757 82 LINE",
"651 130 OFFCURVE",
"623 219 OFFCURVE",
"583 341 CURVE SMOOTH",
"547 443 OFFCURVE",
"495 559 OFFCURVE",
"359 559 CURVE SMOOTH",
"208 559 OFFCURVE",
"97 371 OFFCURVE",
"79 346 CURVE",
"153 294 LINE",
"173 323 OFFCURVE",
"260 469 OFFCURVE",
"359 469 CURVE SMOOTH",
"422 469 OFFCURVE",
"455 433 OFFCURVE",
"497 311 CURVE SMOOTH",
"537 193 OFFCURVE",
"577 54 OFFCURVE",
"737 -6 CURVE"
);
},
{
closed = 1;
nodes = (
"504 -397 LINE",
"288 -402 OFFCURVE",
"168 -323 OFFCURVE",
"168 -180 CURVE SMOOTH",
"168 -60 OFFCURVE",
"313 24 OFFCURVE",
"534 24 CURVE SMOOTH",
"599 24 OFFCURVE",
"659 21 OFFCURVE",
"701 14 CURVE",
"713 104 LINE",
"667 110 OFFCURVE",
"603 114 OFFCURVE",
"534 114 CURVE SMOOTH",
"263 114 OFFCURVE",
"78 -4 OFFCURVE",
"78 -180 CURVE SMOOTH",
"78 -378 OFFCURVE",
"241 -494 OFFCURVE",
"506 -487 CURVE"
);
}
);
width = 817;
},
{
anchors = (
{
name = bottom;
position = "{471, 30}";
},
{
name = top;
position = "{306, 535}";
}
);
layerId = "9AB624CD-9C19-4372-9845-4C197A276709";
paths = (
{
closed = 1;
nodes = (
"701 58 LINE",
"596 82 OFFCURVE",
"562 183 OFFCURVE",
"526 294 CURVE SMOOTH",
"489 407 OFFCURVE",
"446 535 OFFCURVE",
"306 535 CURVE SMOOTH",
"164 535 OFFCURVE",
"57 354 OFFCURVE",
"38 328 CURVE",
"88 294 LINE",
"107 322 OFFCURVE",
"198 475 OFFCURVE",
"306 475 CURVE SMOOTH",
"403 475 OFFCURVE",
"431 382 OFFCURVE",
"463 278 CURVE SMOOTH",
"499 163 OFFCURVE",
"541 33 OFFCURVE",
"687 0 CURVE"
);
},
{
closed = 1;
nodes = (
"441 -421 LINE",
"217 -427 OFFCURVE",
"90 -341 OFFCURVE",
"90 -189 CURVE SMOOTH",
"90 -59 OFFCURVE",
"242 30 OFFCURVE",
"471 30 CURVE SMOOTH",
"536 30 OFFCURVE",
"597 27 OFFCURVE",
"640 20 CURVE",
"648 80 LINE",
"602 86 OFFCURVE",
"539 90 OFFCURVE",
"471 90 CURVE SMOOTH",
"208 90 OFFCURVE",
"30 -22 OFFCURVE",
"30 -189 CURVE SMOOTH",
"30 -378 OFFCURVE",
"186 -487 OFFCURVE",
"443 -481 CURVE"
);
}
);
width = 745;
}
);
unicode = 062D;
},
{
glyphname = "hah-ar.fina";
layers = (
{
anchors = (
{
name = "#entry";
position = "{775, 0}";
},
{
name = bottom;
position = "{389, 53}";
},
{
name = top;
position = "{306, 526}";
}
);
components = (
{
name = "hah-ar";
transform = "{1, 0, 0, 1, -4, 14}";
}
);
layerId = "7C6EC3B8-53E3-46D5-865A-ED8DFE2E3A2E";
paths = (
{
closed = 1;
nodes = (
"775 30 LINE",
"735 31 OFFCURVE",
"686 45 OFFCURVE",
"644 63 CURVE",
"638 33 LINE",
"682 17 OFFCURVE",
"736 3 OFFCURVE",
"775 0 CURVE"
);
}
);
width = 775;
},
{
anchors = (
{
name = "#entry";
position = "{965, 0}";
},
{
name = bottom;
position = "{609, 43}";
},
{
name = top;
position = "{349, 589}";
}
);
components = (
{
name = "hah-ar";
transform = "{1, 0, 0, 1, 0, 40}";
}
);
layerId = "EA99615A-DD74-4F65-B9DC-480CDB683AEE";
paths = (
{
closed = 1;
nodes = (
"965 90 LINE",
"860 89 OFFCURVE",
"845 89 OFFCURVE",
"757 122 CURVE",
"737 34 LINE",
"822 5 OFFCURVE",
"849 0 OFFCURVE",
"965 0 CURVE"
);
}
);
width = 965;
},
{
anchors = (
{
name = "#entry";
position = "{908, 0}";
},
{
name = bottom;
position = "{516, 60}";
},
{
name = top;
position = "{316, 565}";
}
);
components = (
{
alignment = -1;
name = "hah-ar";
transform = "{1, 0, 0, 1, 10, 30}";
}
);
layerId = "9AB624CD-9C19-4372-9845-4C197A276709";
paths = (
{
closed = 1;
nodes = (
"908 60 LINE",
"862 60 OFFCURVE",
"783 71 OFFCURVE",
"711 88 CURVE",
"697 30 LINE",
"778 12 OFFCURVE",
"862 0 OFFCURVE",
"908 0 CURVE"
);
}
);
width = 908;
}
);
unicode = FEA2;
},
{
glyphname = "hah-ar.medi";
layers = (
{
anchors = (
{
name = "#entry";
position = "{967, 0}";
},
{
name = "#exit";
position = "{0, 0}";
},
{
name = bottom;
position = "{421, 0}";
},
{
name = top;
position = "{320, 503}";
}
);
components = (
{
name = "hah-ar.init";
}
);
layerId = "7C6EC3B8-53E3-46D5-865A-ED8DFE2E3A2E";
paths = (
{
closed = 1;
nodes = (
"967 30 LINE",
"923 30 OFFCURVE",
"893 30 OFFCURVE",
"831 49 CURVE",
"820 21 LINE",
"885 0 OFFCURVE",
"919 0 OFFCURVE",
"967 0 CURVE"
);
}
);
width = 967;
},
{
anchors = (
{
name = "#entry";
position = "{1086, 0}";
},
{
name = "#exit";
position = "{0, 0}";
},
{
name = bottom;
position = "{440, 0}";
},
{
name = top;
position = "{393, 560}";
}
);
components = (
{
name = "hah-ar.init";
}
);
layerId = "EA99615A-DD74-4F65-B9DC-480CDB683AEE";
paths = (
{
closed = 1;
nodes = (
"1086 90 LINE",
"1022 90 OFFCURVE",
"954 93 OFFCURVE",
"893 119 CURVE",
"859 36 LINE",
"930 5 OFFCURVE",
"1010 0 OFFCURVE",
"1086 0 CURVE"
);
}
);
width = 1086;
},
{
anchors = (
{
name = "#entry";
position = "{1054, 0}";
},
{
name = "#exit";
position = "{0, 0}";
},
{
name = bottom;
position = "{440, 0}";
},
{
name = top;
position = "{393, 594}";
}
);
components = (
{
name = "hah-ar.init";
}
);
layerId = "9AB624CD-9C19-4372-9845-4C197A276709";
paths = (
{
closed = 1;
nodes = (
"1054 60 LINE",
"997 60 OFFCURVE",
"932 79 OFFCURVE",
"875 106 CURVE",
"853 50 LINE",
"917 20 OFFCURVE",
"991 0 OFFCURVE",
"1054 0 CURVE"
);
}
);
width = 1054;
}
);
unicode = FEA4;
},
{
glyphname = "hah-ar.init";
layers = (
{
anchors = (
{
name = "#exit";
position = "{0, 0}";
},
{
name = bottom;
position = "{285, 0}";
},
{
name = top;
position = "{330, 525}";
}
);
layerId = "7C6EC3B8-53E3-46D5-865A-ED8DFE2E3A2E";
paths = (
{
closed = 1;
nodes = (
"831 49 LINE",
"659 115 OFFCURVE",
"602 241 OFFCURVE",
"536 343 CURVE SMOOTH",
"467 449 OFFCURVE",
"395 503 OFFCURVE",
"320 503 CURVE SMOOTH",
"177 503 OFFCURVE",
"71 323 OFFCURVE",
"53 297 CURVE",
"77 279 LINE",
"96 306 OFFCURVE",
"195 473 OFFCURVE",
"320 473 CURVE SMOOTH",
"384 473 OFFCURVE",
"447 425 OFFCURVE",
"511 327 CURVE SMOOTH",
"576 227 OFFCURVE",
"636 92 OFFCURVE",
"820 21 CURVE"
);
},
{
closed = 1;
nodes = (
"290 -3 OFFCURVE",
"440 -1 OFFCURVE",
"631 105 CURVE SMOOTH",
"643 112 OFFCURVE",
"652 115 OFFCURVE",
"663 120 CURVE",
"651 148 LINE",
"640 143 OFFCURVE",
"629 138 OFFCURVE",
"617 131 CURVE SMOOTH",
"430 28 OFFCURVE",
"286 26 OFFCURVE",
"126 29 CURVE SMOOTH",
"85 29 OFFCURVE",
"44 30 OFFCURVE",
"0 30 CURVE",
"0 0 LINE",
"44 0 OFFCURVE",
"86 -1 OFFCURVE",
"128 -1 CURVE SMOOTH"
);
}
);
width = 871;
},
{
anchors = (
{
name = "#exit";
position = "{0, 0}";
},
{
name = bottom;
position = "{352, 0}";
},
{
name = top;
position = "{393, 564}";
}
);
layerId = "EA99615A-DD74-4F65-B9DC-480CDB683AEE";
paths = (
{
closed = 1;
nodes = (
"926 107 LINE",
"778 153 OFFCURVE",
"730 273 OFFCURVE",
"661 378 CURVE SMOOTH",
"579 502 OFFCURVE",
"491 565 OFFCURVE",
"394 565 CURVE SMOOTH",
"216 565 OFFCURVE",
"94 358 OFFCURVE",
"77 334 CURVE",
"151 282 LINE",
"170 308 OFFCURVE",
"268 475 OFFCURVE",
"394 475 CURVE SMOOTH",
"458 475 OFFCURVE",
"520 429 OFFCURVE",
"585 328 CURVE SMOOTH",
"649 228 OFFCURVE",
"710 83 OFFCURVE",
"894 23 CURVE"
);
},
{
closed = 1;
nodes = (
"455 -10 OFFCURVE",
"573 -3 OFFCURVE",
"790 113 CURVE SMOOTH",
"805 121 OFFCURVE",
"814 126 OFFCURVE",
"818 128 CURVE",
"762 200 LINE",
"754 197 OFFCURVE",
"763 201 OFFCURVE",
"746 191 CURVE SMOOTH",
"554 78 OFFCURVE",
"457 80 OFFCURVE",
"155 89 CURVE SMOOTH",
"121 90 OFFCURVE",
"35 90 OFFCURVE",
"0 90 CURVE",
"0 0 LINE",
"35 0 OFFCURVE",
"119 0 OFFCURVE",
"153 -1 CURVE SMOOTH"
);
}
);
width = 985;
},
{
anchors = (
{
name = "#exit";
position = "{0, 0}";
},
{
name = bottom;
position = "{405, -6}";
},
{
name = top;
position = "{405, 524}";
}
);
layerId = "9AB624CD-9C19-4372-9845-4C197A276709";
paths = (
{
closed = 1;
nodes = (
"875 106 LINE",
"744 168 OFFCURVE",
"708 268 OFFCURVE",
"650 357 CURVE SMOOTH",
"577 468 OFFCURVE",
"495 525 OFFCURVE",
"405 525 CURVE SMOOTH",
"241 525 OFFCURVE",
"133 341 OFFCURVE",
"119 322 CURVE",
"169 288 LINE",
"183 309 OFFCURVE",
"275 465 OFFCURVE",
"405 465 CURVE SMOOTH",
"473 465 OFFCURVE",
"538 419 OFFCURVE",
"600 325 CURVE SMOOTH",
"656 240 OFFCURVE",
"700 120 OFFCURVE",
"853 50 CURVE"
);
},
{
closed = 1;
nodes = (
"415 -8 OFFCURVE",
"562 -2 OFFCURVE",
"748 97 CURVE SMOOTH",
"760 104 OFFCURVE",
"770 106 OFFCURVE",
"769 109 CURVE SMOOTH",
"743 163 LINE",
"738 161 OFFCURVE",
"732 157 OFFCURVE",
"718 149 CURVE SMOOTH",
"546 58 OFFCURVE",
"415 52 OFFCURVE",
"167 59 CURVE SMOOTH",
"139 60 OFFCURVE",
"29 60 OFFCURVE",
"0 60 CURVE",
"0 0 LINE",
"29 0 OFFCURVE",
"137 0 OFFCURVE",
"165 -1 CURVE SMOOTH"
);
}
);
width = 961;
}
);
unicode = FEA3;
},
{
glyphname = "dal-ar";
layers = (
{
anchors = (
{
name = "#entry";
position = "{572, 0}";
},
{
name = "#exit";
position = "{36, 0}";
},
{
name = bottom;
position = "{365, 0}";
},
{
name = top;
position = "{109, 575}";
}
);
layerId = "7C6EC3B8-53E3-46D5-865A-ED8DFE2E3A2E";
paths = (
{
closed = 1;
nodes = (
"629 1 OFFCURVE",
"670 46 OFFCURVE",
"668 103 CURVE SMOOTH",
"656 350 OFFCURVE",
"611 517 OFFCURVE",
"173 517 CURVE",
"173 487 LINE",
"589 487 OFFCURVE",
"626 344 OFFCURVE",
"638 101 CURVE SMOOTH",
"640 61 OFFCURVE",
"612 31 OFFCURVE",
"572 30 CURVE SMOOTH",
"408 29 OFFCURVE",
"221 30 OFFCURVE",
"33 37 CURVE",
"31 7 LINE",
"221 0 OFFCURVE",
"408 -1 OFFCURVE",
"572 0 CURVE SMOOTH"
);
}
);
width = 718;
},
{
anchors = (
{
name = "#entry";
position = "{560, 0}";
},
{
name = "#exit";
position = "{36, 0}";
},
{
name = bottom;
position = "{395, 0}";
},
{
name = top;
position = "{112, 555}";
}
);
layerId = "EA99615A-DD74-4F65-B9DC-480CDB683AEE";
paths = (
{
closed = 1;
nodes = (
"665 0 OFFCURVE",
"742 84 OFFCURVE",
"729 185 CURVE SMOOTH",
"696 463 OFFCURVE",
"532 561 OFFCURVE",
"208 564 CURVE",
"203 474 LINE",
"542 471 OFFCURVE",
"616 372 OFFCURVE",
"639 173 CURVE SMOOTH",
"646 126 OFFCURVE",
"611 90 OFFCURVE",
"560 90 CURVE SMOOTH",
"390 91 OFFCURVE",
"220 93 OFFCURVE",
"35 101 CURVE",
"31 11 LINE",
"218 3 OFFCURVE",
"390 1 OFFCURVE",
"560 0 CURVE SMOOTH"
);
}
);
width = 760;
},
{
anchors = (
{
name = "#entry";
position = "{554, 0}";
},
{
name = "#exit";
position = "{59, -1}";
},
{
name = bottom;
position = "{394, 0}";
},
{
name = top;
position = "{120, 531}";
}
);
layerId = "9AB624CD-9C19-4372-9845-4C197A276709";
paths = (
{
closed = 1;
nodes = (
"639 0 OFFCURVE",
"687 52 OFFCURVE",
"681 135 CURVE SMOOTH",
"662 417 OFFCURVE",
"546 540 OFFCURVE",
"173 537 CURVE",
"173 477 LINE",
"516 480 OFFCURVE",
"605 378 OFFCURVE",
"621 131 CURVE SMOOTH",
"625 82 OFFCURVE",
"604 60 OFFCURVE",
"554 60 CURVE SMOOTH",
"394 60 OFFCURVE",
"213 61 OFFCURVE",
"35 68 CURVE",
"33 8 LINE",
"211 1 OFFCURVE",
"394 0 OFFCURVE",
"554 0 CURVE SMOOTH"
);
}
);
width = 749;
}
);
unicode = 062F;
},
{
glyphname = "dal-ar.fina";
layers = (
{
anchors = (
{
name = "#entry";
position = "{752, 0}";
},
{
name = "#exit";
position = "{19, 0}";
},
{
name = bottom;
position = "{406, -10}";
},
{
name = top;
position = "{95, 526}";
}
);
components = (
{
name = "dal-ar";
}
);
layerId = "7C6EC3B8-53E3-46D5-865A-ED8DFE2E3A2E";
paths = (
{
closed = 1;
nodes = (
"752 30 LINE",
"703 30 OFFCURVE",
"681 46 OFFCURVE",
"671 91 CURVE SMOOTH",
"668 104 OFFCURVE",
"666 121 OFFCURVE",
"665 141 CURVE",
"638 135 LINE",
"640 115 OFFCURVE",
"642 97 OFFCURVE",
"645 82 CURVE SMOOTH",
"658 22 OFFCURVE",
"687 0 OFFCURVE",
"752 0 CURVE"
);
}
);
width = 752;
},
{
anchors = (
{
name = "#entry";
position = "{930, 0}";
},
{
name = "#exit";
position = "{75, -1}";
},
{
name = bottom;
position = "{394, 0}";
},
{
name = top;
position = "{107, 548}";
}
);
components = (
{
name = "dal-ar";
}
);
layerId = "EA99615A-DD74-4F65-B9DC-480CDB683AEE";
paths = (
{
closed = 1;
nodes = (
"930 90 LINE",
"828 90 OFFCURVE",
"773 100 OFFCURVE",
"745 145 CURVE SMOOTH",
"730 169 OFFCURVE",
"729 190 OFFCURVE",
"722 230 CURVE",
"634 216 LINE",
"642 156 OFFCURVE",
"646 120 OFFCURVE",
"664 91 CURVE SMOOTH",
"702 29 OFFCURVE",
"779 0 OFFCURVE",
"930 0 CURVE"
);
}
);
width = 930;
},
{
anchors = (
{
name = "#entry";
position = "{796, 0}";
},
{
name = "#exit";
position = "{59, -1}";
},
{
name = bottom;
position = "{378, 0}";
},
{
name = top;
position = "{120, 531}";
}
);
annotations = (
{
position = "{274, 45}";
type = Minus;
},
{
position = "{290, 339}";
type = Minus;
},
{
position = "{283.239, 213.04}";
type = Minus;
},
{
position = "{439, 564}";
type = Plus;
},
{
position = "{529.667, 350.418}";
type = Plus;
},
{
position = "{691.649, 207.075}";
type = Plus;
},
{
position = "{596.546, -131.844}";
type = Plus;
},
{
position = "{367.624, -176.773}";
type = Plus;
},
{
position = "{190.049, -172.411}";
type = Plus;
},
{
position = "{254, -533}";
type = Text;
}
);
components = (
{
name = "dal-ar";
}
);
guideLines = (
{
position = "{268, 418}";
}
);
layerId = "9AB624CD-9C19-4372-9845-4C197A276709";
paths = (
{
closed = 1;
nodes = (
"796 60 LINE",
"738 60 OFFCURVE",
"707 71 OFFCURVE",
"691 104 CURVE SMOOTH",
"684 118 OFFCURVE",
"680 136 OFFCURVE",
"679 159 CURVE",
"620 155 LINE",
"622 123 OFFCURVE",
"628 97 OFFCURVE",
"638 75 CURVE SMOOTH",
"664 23 OFFCURVE",
"714 0 OFFCURVE",
"796 0 CURVE"
);
}
);
width = 796;
}
);
unicode = FEAA;
},
{
glyphname = "reh-ar";
layers = (
{
anchors = (
{
name = "#entry";
position = "{218, 0}";
},
{
name = bottom;
position = "{135, -324}";
},
{
name = top;
position = "{187, 499}";
}
);
layerId = "7C6EC3B8-53E3-46D5-865A-ED8DFE2E3A2E";
paths = (
{
closed = 1;
nodes = (
"294 -337 OFFCURVE",
"218 206 OFFCURVE",
"199 500 CURVE",
"169 498 LINE",
"188 203 OFFCURVE",
"261 -324 OFFCURVE",
"-10 -504 CURVE",
"6 -529 LINE"
);
}
);
width = 273;
},
{
anchors = (
{
name = "#entry";
position = "{318, 0}";
},
{
name = bottom;
position = "{225, -390}";
},
{
name = top;
position = "{282, 500}";
}
);
layerId = "EA99615A-DD74-4F65-B9DC-480CDB683AEE";
paths = (
{
closed = 1;
nodes = (
"376 -235 OFFCURVE",
"353 70 OFFCURVE",
"315 501 CURVE",
"225 493 LINE",
"263 62 OFFCURVE",
"282 -191 OFFCURVE",
"-36 -418 CURVE",
"16 -492 LINE"
);
}
);
width = 403;
},
{
anchors = (
{
name = "#entry";
position = "{287, 0}";
},
{
name = bottom;
position = "{169, -402}";
},
{
name = top;
position = "{250, 500}";
}
);
layerId = "9AB624CD-9C19-4372-9845-4C197A276709";
paths = (
{
closed = 1;
nodes = (
"341 -243 OFFCURVE",
"318 70 OFFCURVE",
"280 503 CURVE",
"220 497 LINE",
"258 66 OFFCURVE",
"279 -213 OFFCURVE",
"-60 -455 CURVE",
"-26 -503 LINE"
);
}
);
width = 330;
}
);
unicode = 0631;
},
{
glyphname = "seen-ar";
layers = (
{
anchors = (
{
name = "#entry";
position = "{1365, 0}";
},
{
name = bottom;
position = "{936, -103}";
},
{
name = top;
position = "{964, 532}";
}
);
layerId = "7C6EC3B8-53E3-46D5-865A-ED8DFE2E3A2E";
paths = (
{
closed = 1;
nodes = (
"802 -734 OFFCURVE",
"60 -674 OFFCURVE",
"60 -60 CURVE SMOOTH",
"60 -18 OFFCURVE",
"65 21 OFFCURVE",
"76 59 CURVE",
"47 67 LINE",
"35 27 OFFCURVE",
"30 -16 OFFCURVE",
"30 -60 CURVE SMOOTH",
"30 -712 OFFCURVE",
"832 -775 OFFCURVE",
"832 -158 CURVE SMOOTH",
"833 77 OFFCURVE",
"689 327 OFFCURVE",
"622 442 CURVE SMOOTH",
"606 470 OFFCURVE",
"595 489 OFFCURVE",
"592 498 CURVE",
"564 488 LINE",
"568 478 OFFCURVE",
"578 460 OFFCURVE",
"592 435 CURVE SMOOTH",
"657 322 OFFCURVE",
"803 73 OFFCURVE",
"802 -158 CURVE SMOOTH"
);
},
{
closed = 1;
nodes = (
"1004 -4 OFFCURVE",
"1065 57 OFFCURVE",
"1065 173 CURVE SMOOTH",
"1065 302 OFFCURVE",
"990 467 OFFCURVE",
"964 532 CURVE",
"936 521 LINE",
"963 455 OFFCURVE",
"1035 295 OFFCURVE",
"1035 173 CURVE SMOOTH",
"1035 74 OFFCURVE",
"988 27 OFFCURVE",
"891 29 CURVE SMOOTH",
"854 30 OFFCURVE",
"816 38 OFFCURVE",
"798 43 CURVE",
"789 14 LINE",
"809 9 OFFCURVE",
"850 0 OFFCURVE",
"891 -1 CURVE SMOOTH"
);
},
{
closed = 1;
nodes = (
"1369 -34 OFFCURVE",
"1409 42 OFFCURVE",
"1409 178 CURVE SMOOTH",
"1409 318 OFFCURVE",
"1365 495 OFFCURVE",
"1354 545 CURVE",
"1325 539 LINE",
"1336 488 OFFCURVE",
"1379 315 OFFCURVE",
"1379 178 CURVE SMOOTH",
"1379 59 OFFCURVE",
"1348 -4 OFFCURVE",
"1294 -4 CURVE SMOOTH",
"1231 -4 OFFCURVE",
"1134 68 OFFCURVE",
"1062 169 CURVE",
"1038 151 LINE",
"1115 42 OFFCURVE",
"1220 -34 OFFCURVE",
"1294 -34 CURVE SMOOTH"
);
}
);
width = 1419;
},
{
anchors = (
{
name = "#entry";
position = "{1404, 0}";
},
{
name = bottom;
position = "{1200, -165}";
},
{
name = top;
position = "{1028, 537}";
}
);
layerId = "EA99615A-DD74-4F65-B9DC-480CDB683AEE";
paths = (
{
closed = 1;
nodes = (
"814 -633 OFFCURVE",
"258 -622 OFFCURVE",
"175 -176 CURVE SMOOTH",
"169 -140 OFFCURVE",
"165 -102 OFFCURVE",
"165 -60 CURVE",
"75 -60 LINE",
"75 -104 OFFCURVE",
"79 -145 OFFCURVE",
"85 -184 CURVE SMOOTH",
"180 -737 OFFCURVE",
"904 -755 OFFCURVE",
"907 -158 CURVE SMOOTH",
"908 81 OFFCURVE",
"762 335 OFFCURVE",
"695 450 CURVE SMOOTH",
"675 484 OFFCURVE",
"669 494 OFFCURVE",
"667 502 CURVE",
"581 476 LINE",
"586 461 OFFCURVE",
"595 443 OFFCURVE",
"617 404 CURVE SMOOTH",
"684 289 OFFCURVE",
"818 57 OFFCURVE",
"817 -158 CURVE SMOOTH"
);
},
{
closed = 1;
nodes = (
"1062 -20 OFFCURVE",
"1130 48 OFFCURVE",
"1130 173 CURVE SMOOTH",
"1130 306 OFFCURVE",
"1053 473 OFFCURVE",
"1028 537 CURVE",
"944 505 LINE",
"971 437 OFFCURVE",
"1040 286 OFFCURVE",
"1040 173 CURVE SMOOTH",
"1040 99 OFFCURVE",
"1013 71 OFFCURVE",
"944 74 CURVE SMOOTH",
"919 75 OFFCURVE",
"888 79 OFFCURVE",
"856 87 CURVE",
"836 -1 LINE",
"873 -10 OFFCURVE",
"910 -15 OFFCURVE",
"940 -16 CURVE SMOOTH"
);
},
{
closed = 1;
nodes = (
"1404 -49 OFFCURVE",
"1445 41 OFFCURVE",
"1445 178 CURVE SMOOTH",
"1445 319 OFFCURVE",
"1401 498 OFFCURVE",
"1390 548 CURVE",
"1302 530 LINE",
"1313 478 OFFCURVE",
"1355 309 OFFCURVE",
"1355 178 CURVE SMOOTH",
"1355 86 OFFCURVE",
"1336 41 OFFCURVE",
"1315 41 CURVE SMOOTH",
"1268 41 OFFCURVE",
"1182 107 OFFCURVE",
"1121 194 CURVE",
"1047 142 LINE",
"1126 30 OFFCURVE",
"1235 -49 OFFCURVE",
"1315 -49 CURVE SMOOTH"
);
}
);
width = 1539;
},
{
anchors = (
{
name = "#entry";
position = "{1491, 3}";
},
{
name = bottom;
position = "{1171, -109}";
},
{
name = top;
position = "{1062, 543}";
}
);
layerId = "9AB624CD-9C19-4372-9845-4C197A276709";
paths = (
{
closed = 1;
nodes = (
"859 -698 OFFCURVE",
"209 -679 OFFCURVE",
"128 -168 CURVE SMOOTH",
"123 -134 OFFCURVE",
"120 -98 OFFCURVE",
"120 -60 CURVE",
"60 -60 LINE",
"60 -99 OFFCURVE",
"63 -137 OFFCURVE",
"68 -172 CURVE SMOOTH",
"156 -755 OFFCURVE",
"922 -779 OFFCURVE",
"922 -158 CURVE SMOOTH",
"922 85 OFFCURVE",
"775 342 OFFCURVE",
"708 457 CURVE SMOOTH",
"686 495 OFFCURVE",
"682 503 OFFCURVE",
"680 507 CURVE",
"624 489 LINE",
"627 479 OFFCURVE",
"632 468 OFFCURVE",
"656 427 CURVE SMOOTH",
"723 312 OFFCURVE",
"863 69 OFFCURVE",
"862 -158 CURVE SMOOTH"
);
},
{
closed = 1;
nodes = (
"1090 -34 OFFCURVE",
"1165 40 OFFCURVE",
"1165 173 CURVE SMOOTH",
"1165 308 OFFCURVE",
"1088 479 OFFCURVE",
"1062 543 CURVE",
"1006 521 LINE",
"1032 455 OFFCURVE",
"1105 296 OFFCURVE",
"1105 173 CURVE SMOOTH",
"1105 74 OFFCURVE",
"1058 26 OFFCURVE",
"962 29 CURVE SMOOTH",
"934 30 OFFCURVE",
"900 35 OFFCURVE",
"866 43 CURVE",
"852 -15 LINE",
"872 -20 OFFCURVE",
"916 -30 OFFCURVE",
"960 -31 CURVE SMOOTH"
);
},
{
closed = 1;
nodes = (
"1478 -64 OFFCURVE",
"1529 24 OFFCURVE",
"1529 178 CURVE SMOOTH",
"1529 322 OFFCURVE",
"1484 502 OFFCURVE",
"1473 551 CURVE",
"1415 539 LINE",
"1426 488 OFFCURVE",
"1469 314 OFFCURVE",
"1469 178 CURVE SMOOTH",
"1469 57 OFFCURVE",
"1438 -4 OFFCURVE",
"1384 -4 CURVE SMOOTH",
"1321 -4 OFFCURVE",
"1224 67 OFFCURVE",
"1153 168 CURVE",
"1103 134 LINE",
"1186 16 OFFCURVE",
"1300 -64 OFFCURVE",
"1384 -64 CURVE SMOOTH"
);
}
);
width = 1589;
}
);
unicode = 0633;
},
{
glyphname = "seen-ar.fina";
layers = (
{
anchors = (
{
name = "#entry";
position = "{1529, 0}";
},
{
name = top;
position = "{954, 563}";
}
);
components = (
{
name = "seen-ar";
transform = "{1, 0, 0, 1, -10, 31}";
}
);
layerId = "7C6EC3B8-53E3-46D5-865A-ED8DFE2E3A2E";
paths = (
{
closed = 1;
nodes = (
"1530 30 LINE",
"1444 30 OFFCURVE",
"1401 91 OFFCURVE",
"1399 215 CURVE",
"1369 215 LINE",
"1371 75 OFFCURVE",
"1427 0 OFFCURVE",
"1530 0 CURVE"
);
}
);
width = 1530;
},
{
anchors = (
{
name = "#entry";
position = "{1656, 0}";
},
{
name = top;
position = "{1027, 543}";
}
);
components = (
{
name = "seen-ar";
transform = "{1, 0, 0, 1, -1, 6}";
}
);
layerId = "EA99615A-DD74-4F65-B9DC-480CDB683AEE";
paths = (
{
closed = 1;
nodes = (
"1656 90 LINE",
"1476 90 OFFCURVE",
"1447 134 OFFCURVE",
"1438 285 CURVE",
"1350 267 LINE",
"1357 128 OFFCURVE",
"1380 0 OFFCURVE",
"1656 0 CURVE"
);
}
);
width = 1656;
},
{
anchors = (
{
name = "#entry";
position = "{1803, 0}";
},
{
name = top;
position = "{1062, 580}";
}
);
components = (
{
alignment = -1;
name = "seen-ar";
transform = "{1, 0, 0, 1, 0, 37}";
}
);
layerId = "9AB624CD-9C19-4372-9845-4C197A276709";
paths = (
{
closed = 1;
nodes = (
"1803 60 LINE",
"1551 43 OFFCURVE",
"1536 160 OFFCURVE",
"1524 300 CURVE",
"1465 294 LINE",
"1477 154 OFFCURVE",
"1499 -22 OFFCURVE",
"1803 0 CURVE"
);
}
);
width = 1803;
}
);
unicode = FEB2;
},
{
glyphname = "seen-ar.medi";
layers = (
{
anchors = (
{
name = "#entry";
position = "{830, 0}";
},
{
name = "#exit";
position = "{0, 0}";
},
{
name = bottom;
position = "{445, 0}";
},
{
name = top;
position = "{419, 500}";
}
);
layerId = "7C6EC3B8-53E3-46D5-865A-ED8DFE2E3A2E";
paths = (
{
closed = 1;
nodes = (
"97 1 OFFCURVE",
"145 41 OFFCURVE",
"167 119 CURVE",
"210 41 OFFCURVE",
"284 1 OFFCURVE",
"348 1 CURVE SMOOTH",
"408 1 OFFCURVE",
"460 35 OFFCURVE",
"472 106 CURVE",
"514 44 OFFCURVE",
"579 0 OFFCURVE",
"636 0 CURVE SMOOTH",
"682 0 OFFCURVE",
"710 25 OFFCURVE",
"726 69 CURVE",
"741 18 OFFCURVE",
"770 0 OFFCURVE",
"830 0 CURVE",
"830 30 LINE",
"760 30 OFFCURVE",
"743 63 OFFCURVE",
"741 171 CURVE SMOOTH",
"741 264 OFFCURVE",
"719 405 OFFCURVE",
"696 536 CURVE",
"666 532 LINE",
"691 398 OFFCURVE",
"714 265 OFFCURVE",
"712 169 CURVE SMOOTH",
"711 85 OFFCURVE",
"691 30 OFFCURVE",
"636 30 CURVE SMOOTH",
"578 30 OFFCURVE",
"505 90 OFFCURVE",
"475 165 CURVE",
"474 216 OFFCURVE",
"469 273 OFFCURVE",
"429 478 CURVE",
"399 472 LINE",
"445 236 OFFCURVE",
"445 201 OFFCURVE",
"445 140 CURVE SMOOTH",
"445 66 OFFCURVE",
"401 31 OFFCURVE",
"348 31 CURVE SMOOTH",
"286 31 OFFCURVE",
"210 79 OFFCURVE",
"177 169 CURVE",
"180 197 OFFCURVE",
"182 229 OFFCURVE",
"182 265 CURVE SMOOTH",
"182 333 OFFCURVE",
"177 414 OFFCURVE",
"170 508 CURVE",
"140 506 LINE",
"147 408 OFFCURVE",
"152 326 OFFCURVE",
"152 260 CURVE SMOOTH",
"152 102 OFFCURVE",
"121 32 OFFCURVE",
"0 30 CURVE",
"0 0 LINE"
);
}
);
width = 830;
},
{
anchors = (
{
name = "#entry";
position = "{1038, 0}";
},
{
name = "#exit";
position = "{0, 0}";
},
{
name = bottom;
position = "{522, 0}";
},
{
name = top;
position = "{464, 540}";
}
);
layerId = "EA99615A-DD74-4F65-B9DC-480CDB683AEE";
paths = (
{
closed = 1;
nodes = (
"118 2 OFFCURVE",
"189 29 OFFCURVE",
"231 81 CURVE",
"280 23 OFFCURVE",
"353 -4 OFFCURVE",
"417 2 CURVE SMOOTH",
"463 6 OFFCURVE",
"505 28 OFFCURVE",
"530 68 CURVE",
"571 27 OFFCURVE",
"622 0 OFFCURVE",
"669 0 CURVE SMOOTH",
"727 0 OFFCURVE",
"761 31 OFFCURVE",
"777 91 CURVE",
"833 32 OFFCURVE",
"918 0 OFFCURVE",
"1038 0 CURVE",
"1038 90 LINE",
"875 90 OFFCURVE",
"801 157 OFFCURVE",
"783 281 CURVE SMOOTH",
"777 357 OFFCURVE",
"763 449 OFFCURVE",
"743 554 CURVE",
"655 538 LINE",
"675 430 OFFCURVE",
"687 343 OFFCURVE",
"693 276 CURVE SMOOTH",
"705 147 OFFCURVE",
"694 90 OFFCURVE",
"669 90 CURVE SMOOTH",
"631 90 OFFCURVE",
"576 137 OFFCURVE",
"552 192 CURVE",
"550 241 OFFCURVE",
"543 305 OFFCURVE",
"506 495 CURVE",
"418 479 LINE",
"462 248 OFFCURVE",
"462 216 OFFCURVE",
"462 155 CURVE SMOOTH",
"462 116 OFFCURVE",
"441 96 OFFCURVE",
"412 91 CURVE SMOOTH",
"365 84 OFFCURVE",
"298 119 OFFCURVE",
"276 184 CURVE",
"283 218 OFFCURVE",
"286 257 OFFCURVE",
"286 300 CURVE SMOOTH",
"287 365 OFFCURVE",
"282 440 OFFCURVE",
"276 524 CURVE",
"186 518 LINE",
"192 432 OFFCURVE",
"197 363 OFFCURVE",
"197 306 CURVE SMOOTH",
"197 143 OFFCURVE",
"159 91 OFFCURVE",
"0 90 CURVE",
"0 0 LINE"
);
}
);
width = 1038;
},
{
anchors = (
{
name = "#entry";
position = "{1036, 0}";
},
{
name = "#exit";
position = "{0, 0}";
},
{
name = bottom;
position = "{613, 0}";
},
{
name = top;
position = "{566, 540}";
}
);
layerId = "9AB624CD-9C19-4372-9845-4C197A276709";
paths = (
{
closed = 1;
nodes = (
"141 1 OFFCURVE",
"219 40 OFFCURVE",
"260 112 CURVE",
"307 37 OFFCURVE",
"389 -1 OFFCURVE",
"464 2 CURVE SMOOTH",
"529 4 OFFCURVE",
"587 36 OFFCURVE",
"612 99 CURVE",
"660 40 OFFCURVE",
"726 0 OFFCURVE",
"786 0 CURVE SMOOTH",
"835 0 OFFCURVE",
"868 21 OFFCURVE",
"889 58 CURVE",
"916 18 OFFCURVE",
"964 0 OFFCURVE",
"1036 0 CURVE",
"1036 60 LINE",
"945 60 OFFCURVE",
"919 88 OFFCURVE",
"919 184 CURVE SMOOTH",
"924 290 OFFCURVE",
"902 429 OFFCURVE",
"876 571 CURVE",
"816 561 LINE",
"849 377 OFFCURVE",
"863 261 OFFCURVE",
"859 172 CURVE SMOOTH",
"854 93 OFFCURVE",
"830 60 OFFCURVE",
"786 60 CURVE SMOOTH",
"729 60 OFFCURVE",
"655 120 OFFCURVE",
"625 194 CURVE",
"624 246 OFFCURVE",
"619 305 OFFCURVE",
"578 514 CURVE",
"520 502 LINE",
"565 267 OFFCURVE",
"565 231 OFFCURVE",
"565 170 CURVE SMOOTH",
"565 97 OFFCURVE",
"517 62 OFFCURVE",
"460 61 CURVE SMOOTH",
"393 59 OFFCURVE",
"315 105 OFFCURVE",
"289 192 CURVE",
"296 224 OFFCURVE",
"299 260 OFFCURVE",
"300 300 CURVE SMOOTH",
"302 369 OFFCURVE",
"296 450 OFFCURVE",
"290 540 CURVE",
"230 536 LINE",
"236 445 OFFCURVE",
"241 369 OFFCURVE",
"240 306 CURVE SMOOTH",
"237 136 OFFCURVE",
"190 62 OFFCURVE",
"0 60 CURVE",
"0 0 LINE"
);
}
);
width = 1036;
}
);
unicode = FEB4;
},
{
glyphname = "seen-ar.init";
layers = (
{
anchors = (
{
name = "#entry";
position = "{813, 0}";
},
{
name = "#exit";
position = "{0, 0}";
},
{
name = bottom;
position = "{552, 0}";
},
{
name = top;
position = "{506, 500}";
}
);
layerId = "7C6EC3B8-53E3-46D5-865A-ED8DFE2E3A2E";
paths = (
{
closed = 1;
nodes = (
"535 -24 OFFCURVE",
"294 3 OFFCURVE",
"255 174 CURVE",
"227 164 LINE",
"277 -40 OFFCURVE",
"565 -58 OFFCURVE",
"565 140 CURVE SMOOTH",
"565 201 OFFCURVE",
"565 240 OFFCURVE",
"519 478 CURVE",
"489 472 LINE",
"535 236 OFFCURVE",
"535 201 OFFCURVE",
"535 140 CURVE SMOOTH"
);
},
{
closed = 1;
nodes = (
"293 3 OFFCURVE",
"283 174 OFFCURVE",
"260 508 CURVE",
"230 506 LINE",
"253 172 OFFCURVE",
"261 33 OFFCURVE",
"0 30 CURVE",
"0 0 LINE"
);
},
{
closed = 1;
nodes = (
"871 0 OFFCURVE",
"839 246 OFFCURVE",
"786 536 CURVE",
"756 532 LINE",
"809 242 OFFCURVE",
"837 30 OFFCURVE",
"726 30 CURVE SMOOTH",
"667 30 OFFCURVE",
"594 91 OFFCURVE",
"564 167 CURVE",
"536 155 LINE",
"571 69 OFFCURVE",
"655 0 OFFCURVE",
"726 0 CURVE SMOOTH"
);
}
);
width = 851;
},
{
anchors = (
{
name = "#entry";
position = "{769, 0}";
},
{
name = "#exit";
position = "{0, 0}";
},
{
name = bottom;
position = "{539, 0}";
},
{
name = top;
position = "{475, 518}";
}
);
layerId = "EA99615A-DD74-4F65-B9DC-480CDB683AEE";
paths = (
{
closed = 1;
nodes = (
"462 48 OFFCURVE",
"300 81 OFFCURVE",
"272 197 CURVE",
"184 175 LINE",
"239 -45 OFFCURVE",
"552 -61 OFFCURVE",
"552 155 CURVE SMOOTH",
"552 216 OFFCURVE",
"552 256 OFFCURVE",
"506 495 CURVE",
"418 479 LINE",
"462 248 OFFCURVE",
"462 216 OFFCURVE",
"462 155 CURVE SMOOTH"
);
},
{
closed = 1;
nodes = (
"310 4 OFFCURVE",
"299 190 OFFCURVE",
"276 524 CURVE",
"186 518 LINE",
"209 184 OFFCURVE",
"214 92 OFFCURVE",
"0 90 CURVE",
"0 0 LINE"
);
},
{
closed = 1;
nodes = (
"814 0 OFFCURVE",
"810 194 OFFCURVE",
"743 554 CURVE",
"655 538 LINE",
"713 220 OFFCURVE",
"707 90 OFFCURVE",
"669 90 CURVE SMOOTH",
"630 90 OFFCURVE",
"572 141 OFFCURVE",
"549 198 CURVE",
"465 164 LINE",
"502 73 OFFCURVE",
"591 0 OFFCURVE",
"669 0 CURVE SMOOTH"
);
}
);
width = 868;
},
{
anchors = (
{
name = "#entry";
position = "{906, 0}";
},
{
name = "#exit";
position = "{0, 0}";
},
{
name = bottom;
position = "{613, 0}";
},
{
name = top;
position = "{537, 550}";
}
);
layerId = "9AB624CD-9C19-4372-9845-4C197A276709";
paths = (
{
closed = 1;
nodes = (
"565 8 OFFCURVE",
"328 32 OFFCURVE",
"286 201 CURVE",
"228 187 LINE",
"286 -51 OFFCURVE",
"625 -64 OFFCURVE",
"625 170 CURVE SMOOTH",
"625 231 OFFCURVE",
"625 273 OFFCURVE",
"578 514 CURVE",
"520 502 LINE",
"565 267 OFFCURVE",
"565 231 OFFCURVE",
"565 170 CURVE SMOOTH"
);
},
{
closed = 1;
nodes = (
"325 3 OFFCURVE",
"313 206 OFFCURVE",
"290 540 CURVE",
"230 536 LINE",
"253 202 OFFCURVE",
"261 63 OFFCURVE",
"0 60 CURVE",
"0 0 LINE"
);
},
{
closed = 1;
nodes = (
"965 0 OFFCURVE",
"929 281 OFFCURVE",
"876 571 CURVE",
"816 561 LINE",
"884 191 OFFCURVE",
"873 60 OFFCURVE",
"786 60 CURVE SMOOTH",
"728 60 OFFCURVE",
"654 121 OFFCURVE",
"624 196 CURVE",
"568 174 LINE",
"608 76 OFFCURVE",
"703 0 OFFCURVE",
"786 0 CURVE SMOOTH"
);
}
);
width = 979;
}
);
unicode = FEB3;
},
{
glyphname = "sad-ar";
layers = (
{
anchors = (
{
name = "#entry";
position = "{1656, 0}";
},
{
name = bottom;
position = "{1131, 0}";
},
{
name = top;
position = "{963, 500}";
}
);
components = (
{
name = "sad-01";
}
);
layerId = "7C6EC3B8-53E3-46D5-865A-ED8DFE2E3A2E";
paths = (
{
closed = 1;
nodes = (
"2 -3 OFFCURVE",
"0 -39 OFFCURVE",
"0 -73 CURVE SMOOTH",
"0 -355 OFFCURVE",
"110 -513 OFFCURVE",
"313 -513 CURVE SMOOTH",
"572 -513 OFFCURVE",
"794 -299 OFFCURVE",
"794 -31 CURVE SMOOTH",
"794 43 OFFCURVE",
"770 126 OFFCURVE",
"744 215 CURVE SMOOTH",
"718 302 OFFCURVE",
"691 396 OFFCURVE",
"680 498 CURVE",
"650 495 LINE",
"661 392 OFFCURVE",
"688 297 OFFCURVE",
"713 212 CURVE SMOOTH",
"740 121 OFFCURVE",
"764 41 OFFCURVE",
"764 -31 CURVE SMOOTH",
"764 -281 OFFCURVE",
"558 -483 OFFCURVE",
"313 -483 CURVE SMOOTH",
"128 -483 OFFCURVE",
"30 -339 OFFCURVE",
"30 -73 CURVE SMOOTH",
"30 -40 OFFCURVE",
"32 -4 OFFCURVE",
"35 33 CURVE",
"5 35 LINE"
);
}
);
width = 1748;
},
{
anchors = (
{
name = "#entry";
position = "{1765, 0}";
},
{
name = bottom;
position = "{1248, 0}";
},
{
name = top;
position = "{1049, 500}";
}
);
components = (
{
name = "sad-01";
}
);
layerId = "EA99615A-DD74-4F65-B9DC-480CDB683AEE";
paths = (
{
closed = 1;
nodes = (
"42 40 OFFCURVE",
"40 4 OFFCURVE",
"40 -28 CURVE SMOOTH",
"40 -354 OFFCURVE",
"240 -511 OFFCURVE",
"450 -514 CURVE SMOOTH",
"681 -518 OFFCURVE",
"924 -335 OFFCURVE",
"924 14 CURVE SMOOTH",
"924 49 OFFCURVE",
"910 124 OFFCURVE",
"875 276 CURVE SMOOTH",
"858 349 OFFCURVE",
"837 441 OFFCURVE",
"809 554 CURVE",
"721 532 LINE",
"748 424 OFFCURVE",
"769 336 OFFCURVE",
"785 266 CURVE SMOOTH",
"820 116 OFFCURVE",
"834 43 OFFCURVE",
"834 14 CURVE SMOOTH",
"834 -277 OFFCURVE",
"639 -428 OFFCURVE",
"454 -425 CURVE SMOOTH",
"288 -422 OFFCURVE",
"130 -294 OFFCURVE",
"130 -28 CURVE SMOOTH",
"130 1 OFFCURVE",
"131 34 OFFCURVE",
"135 76 CURVE",
"45 84 LINE"
);
}
);
width = 1908;
},
{
anchors = (
{
name = "#entry";
position = "{1660, 0}";
},
{
name = bottom;
position = "{1248, 0}";
},
{
name = top;
position = "{1024, 500}";
}
);
components = (
{
name = "sad-01";
transform = "{1, 0, 0, 1, 719, 0}";
}
);
layerId = "9AB624CD-9C19-4372-9845-4C197A276709";
paths = (
{
closed = 1;
nodes = (
"62 -35 OFFCURVE",
"60 -69 OFFCURVE",
"60 -105 CURVE SMOOTH",
"60 -391 OFFCURVE",
"232 -529 OFFCURVE",
"413 -532 CURVE SMOOTH",
"613 -535 OFFCURVE",
"824 -373 OFFCURVE",
"824 -63 CURVE SMOOTH",
"824 -29 OFFCURVE",
"802 81 OFFCURVE",
"752 272 CURVE SMOOTH",
"735 338 OFFCURVE",
"714 415 OFFCURVE",
"690 502 CURVE",
"632 488 LINE",
"655 406 OFFCURVE",
"674 333 OFFCURVE",
"691 269 CURVE SMOOTH",
"740 77 OFFCURVE",
"764 -34 OFFCURVE",
"764 -63 CURVE SMOOTH",
"764 -333 OFFCURVE",
"586 -474 OFFCURVE",
"418 -472 CURVE SMOOTH",
"265 -471 OFFCURVE",
"120 -352 OFFCURVE",
"120 -105 CURVE SMOOTH",
"120 -71 OFFCURVE",
"121 -40 OFFCURVE",
"125 -4 CURVE",
"65 2 LINE"
);
}
);
width = 1808;
}
);
unicode = 0635;
},
{
glyphname = "sad-ar.init";
layers = (
{
anchors = (
{
name = "#entry";
position = "{973, 0}";
},
{
name = "#exit";
position = "{0, 0}";
},
{
name = bottom;
position = "{472, 0}";
},
{
name = top;
position = "{370, 500}";
}
);
layerId = "7C6EC3B8-53E3-46D5-865A-ED8DFE2E3A2E";
paths = (
{
closed = 1;
nodes = (
"180 -27 OFFCURVE",
"183 -13 OFFCURVE",
"186 0 CURVE",
"489 0 OFFCURVE",
"501 0 OFFCURVE",
"516 0 CURVE SMOOTH",
"792 0 OFFCURVE",
"1024 6 OFFCURVE",
"1024 317 CURVE SMOOTH",
"1024 460 OFFCURVE",
"930 546 OFFCURVE",
"803 546 CURVE SMOOTH",
"581 546 OFFCURVE",
"259 335 OFFCURVE",
"164 30 CURVE",
"105 30 OFFCURVE",
"97 48 OFFCURVE",
"85 125 CURVE SMOOTH",
"73 203 OFFCURVE",
"69 256 OFFCURVE",
"63 358 CURVE",
"34 358 LINE",
"39 248 OFFCURVE",
"43 192 OFFCURVE",
"55 112 CURVE SMOOTH",
"66 41 OFFCURVE",
"37 30 OFFCURVE",
"0 30 CURVE",
"0 0 LINE",
"31 0 OFFCURVE",
"58 4 OFFCURVE",
"73 36 CURVE",
"89 10 OFFCURVE",
"113 0 OFFCURVE",
"156 0 CURVE",
"153 -11 OFFCURVE",
"150 -23 OFFCURVE",
"148 -34 CURVE",
"177 -40 LINE"
);
},
{
closed = 1;
nodes = (
"290 315 OFFCURVE",
"597 521 OFFCURVE",
"803 521 CURVE SMOOTH",
"914 521 OFFCURVE",
"995 443 OFFCURVE",
"995 318 CURVE SMOOTH",
"995 39 OFFCURVE",
"790 30 OFFCURVE",
"539 30 CURVE SMOOTH",
"521 30 OFFCURVE",
"516 30 OFFCURVE",
"195 30 CURVE"
);
}
);
width = 1054;
},
{
anchors = (
{
name = "#entry";
position = "{983, 0}";
},
{
name = "#exit";
position = "{0, 0}";
},
{
name = bottom;
position = "{519, -1}";
},
{
name = top;
position = "{374, 500}";
}
);
layerId = "EA99615A-DD74-4F65-B9DC-480CDB683AEE";
paths = (
{
closed = 1;
nodes = (
"232 -33 OFFCURVE",
"236 -17 OFFCURVE",
"240 -1 CURVE",
"519 -1 OFFCURVE",
"532 -1 OFFCURVE",
"546 -1 CURVE SMOOTH",
"822 -1 OFFCURVE",
"1084 5 OFFCURVE",
"1084 346 CURVE SMOOTH",
"1084 500 OFFCURVE",
"982 605 OFFCURVE",
"833 605 CURVE SMOOTH",
"607 605 OFFCURVE",
"280 394 OFFCURVE",
"173 90 CURVE",
"157 93 OFFCURVE",
"154 103 OFFCURVE",
"145 158 CURVE SMOOTH",
"131 242 OFFCURVE",
"129 296 OFFCURVE",
"121 417 CURVE",
"32 417 LINE",
"39 285 OFFCURVE",
"43 225 OFFCURVE",
"55 137 CURVE SMOOTH",
"63 86 OFFCURVE",
"56 86 OFFCURVE",
"0 91 CURVE",
"0 0 LINE",
"49 -4 OFFCURVE",
"83 2 OFFCURVE",
"105 19 CURVE",
"117 11 OFFCURVE",
"132 5 OFFCURVE",
"149 2 CURVE",
"147 -9 OFFCURVE",
"145 -20 OFFCURVE",
"145 -29 CURVE",
"230 -47 LINE"
);
},
{
closed = 1;
nodes = (
"374 345 OFFCURVE",
"645 520 OFFCURVE",
"833 520 CURVE SMOOTH",
"931 520 OFFCURVE",
"995 452 OFFCURVE",
"995 347 CURVE SMOOTH",
"995 96 OFFCURVE",
"820 89 OFFCURVE",
"569 89 CURVE SMOOTH",
"553 89 OFFCURVE",
"546 89 OFFCURVE",
"268 89 CURVE"
);
}
);
width = 1114;
},
{
anchors = (
{
name = "#entry";
position = "{961, 0}";
},
{
name = "#exit";
position = "{0, 0}";
},
{
name = bottom;
position = "{545, 0}";
},
{
name = top;
position = "{372, 500}";
}
);
layerId = "9AB624CD-9C19-4372-9845-4C197A276709";
paths = (
{
closed = 1;
nodes = (
"206 -29 OFFCURVE",
"210 -14 OFFCURVE",
"213 0 CURVE",
"504 0 OFFCURVE",
"517 0 OFFCURVE",
"531 0 CURVE SMOOTH",
"807 0 OFFCURVE",
"1054 6 OFFCURVE",
"1054 332 CURVE SMOOTH",
"1054 478 OFFCURVE",
"958 576 OFFCURVE",
"818 576 CURVE SMOOTH",
"594 576 OFFCURVE",
"269 365 OFFCURVE",
"168 60 CURVE",
"131 62 OFFCURVE",
"126 73 OFFCURVE",
"115 142 CURVE SMOOTH",
"102 223 OFFCURVE",
"99 277 OFFCURVE",
"92 388 CURVE",
"33 388 LINE",
"39 267 OFFCURVE",
"43 209 OFFCURVE",
"55 125 CURVE SMOOTH",
"64 68 OFFCURVE",
"50 57 OFFCURVE",
"0 61 CURVE",
"0 0 LINE",
"44 -2 OFFCURVE",
"72 5 OFFCURVE",
"89 25 CURVE",
"104 11 OFFCURVE",
"125 3 OFFCURVE",
"152 1 CURVE",
"149 -11 OFFCURVE",
"147 -22 OFFCURVE",
"146 -31 CURVE",
"203 -43 LINE"
);
},
{
closed = 1;
nodes = (
"332 332 OFFCURVE",
"621 521 OFFCURVE",
"818 521 CURVE SMOOTH",
"924 521 OFFCURVE",
"995 446 OFFCURVE",
"995 333 CURVE SMOOTH",
"995 68 OFFCURVE",
"805 60 OFFCURVE",
"554 60 CURVE SMOOTH",
"537 60 OFFCURVE",
"531 60 OFFCURVE",
"231 60 CURVE"
);
}
);
width = 1084;
}
);
unicode = FEBB;
},
{
glyphname = "tah-ar.init";
layers = (
{
anchors = (
{
name = "#entry";
position = "{934, 0}";
},
{
name = "#exit";
position = "{0, 0}";
},
{
name = bottom;
position = "{436, 0}";
},
{
name = top;
position = "{671, 561}";
}
);
layerId = "7C6EC3B8-53E3-46D5-865A-ED8DFE2E3A2E";
paths = (
{
closed = 1;
nodes = (
"111 323 OFFCURVE",
"332 531 OFFCURVE",
"671 531 CURVE SMOOTH",
"849 531 OFFCURVE",
"951 443 OFFCURVE",
"951 290 CURVE SMOOTH",
"951 59 OFFCURVE",
"811 30 OFFCURVE",
"472 30 CURVE SMOOTH",
"247 30 OFFCURVE",
"109 30 OFFCURVE",
"0 30 CURVE",
"0 0 LINE",
"39 0 OFFCURVE",
"338 0 OFFCURVE",
"472 0 CURVE SMOOTH",
"849 0 OFFCURVE",
"981 40 OFFCURVE",
"981 290 CURVE SMOOTH",
"981 460 OFFCURVE",
"865 561 OFFCURVE",
"671 561 CURVE SMOOTH",
"316 561 OFFCURVE",
"83 341 OFFCURVE",
"49 -27 CURVE",
"79 -29 LINE"
);
},
{
closed = 1;
nodes = (
"78 -75 LINE",
"80 48 OFFCURVE",
"91 155 OFFCURVE",
"101 264 CURVE SMOOTH",
"112 389 OFFCURVE",
"124 514 OFFCURVE",
"124 664 CURVE SMOOTH",
"124 789 OFFCURVE",
"117 912 OFFCURVE",
"101 1049 CURVE",
"71 1045 LINE",
"88 908 OFFCURVE",
"94 787 OFFCURVE",
"94 664 CURVE SMOOTH",
"94 517 OFFCURVE",
"82 392 OFFCURVE",
"71 269 CURVE SMOOTH",
"61 159 OFFCURVE",
"50 50 OFFCURVE",
"48 -75 CURVE"
);
}
);
width = 1011;
},
{
anchors = (
{
name = "#entry";
position = "{1007, 0}";
},
{
name = "#exit";
position = "{0, 0}";
},
{
name = bottom;
position = "{483, 0}";
},
{
name = top;
position = "{751, 651}";
}
);
layerId = "EA99615A-DD74-4F65-B9DC-480CDB683AEE";
paths = (
{
closed = 1;
nodes = (
"206 359 OFFCURVE",
"419 561 OFFCURVE",
"751 561 CURVE SMOOTH",
"921 561 OFFCURVE",
"1016 479 OFFCURVE",
"1016 335 CURVE SMOOTH",
"1016 134 OFFCURVE",
"938 90 OFFCURVE",
"552 90 CURVE SMOOTH",
"419 90 OFFCURVE",
"40 90 OFFCURVE",
"0 90 CURVE",
"0 0 LINE",
"38 0 OFFCURVE",
"419 0 OFFCURVE",
"552 0 CURVE SMOOTH",
"982 0 OFFCURVE",
"1106 72 OFFCURVE",
"1106 335 CURVE SMOOTH",
"1106 530 OFFCURVE",
"970 651 OFFCURVE",
"751 651 CURVE SMOOTH",
"373 651 OFFCURVE",
"120 413 OFFCURVE",
"84 22 CURVE",
"174 14 LINE"
);
},
{
closed = 1;
nodes = (
"172 -77 LINE",
"178 30 OFFCURVE",
"183 123 OFFCURVE",
"187 204 CURVE SMOOTH",
"199 489 OFFCURVE",
"198 641 OFFCURVE",
"196 835 CURVE SMOOTH",
"196 900 OFFCURVE",
"195 970 OFFCURVE",
"195 1050 CURVE",
"105 1050 LINE",
"105 964 OFFCURVE",
"106 891 OFFCURVE",
"106 823 CURVE SMOOTH",
"106 631 OFFCURVE",
"108 480 OFFCURVE",
"96 197 CURVE SMOOTH",
"92 119 OFFCURVE",
"88 31 OFFCURVE",
"82 -71 CURVE"
);
}
);
width = 1126;
},
{
anchors = (
{
name = "#entry";
position = "{949, 0}";
},
{
name = "#exit";
position = "{0, 0}";
},
{
name = bottom;
position = "{486, 0}";
},
{
name = top;
position = "{721, 561}";
}
);
layerId = "9AB624CD-9C19-4372-9845-4C197A276709";
paths = (
{
closed = 1;
nodes = (
"189 304 OFFCURVE",
"397 501 OFFCURVE",
"721 501 CURVE SMOOTH",
"883 501 OFFCURVE",
"971 426 OFFCURVE",
"971 290 CURVE SMOOTH",
"971 102 OFFCURVE",
"889 60 OFFCURVE",
"522 60 CURVE SMOOTH",
"297 60 OFFCURVE",
"160 60 OFFCURVE",
"0 60 CURVE",
"0 0 LINE",
"158 0 OFFCURVE",
"296 0 OFFCURVE",
"522 0 CURVE SMOOTH",
"864 0 OFFCURVE",
"1031 35 OFFCURVE",
"1031 290 CURVE SMOOTH",
"1031 460 OFFCURVE",
"915 561 OFFCURVE",
"721 561 CURVE SMOOTH",
"366 561 OFFCURVE",
"132 341 OFFCURVE",
"99 -26 CURVE",
"159 -32 LINE"
);
},
{
closed = 1;
nodes = (
"158 -75 LINE",
"160 46 OFFCURVE",
"171 152 OFFCURVE",
"181 261 CURVE SMOOTH",
"192 386 OFFCURVE",
"204 513 OFFCURVE",
"204 664 CURVE SMOOTH",
"204 793 OFFCURVE",
"197 917 OFFCURVE",
"181 1052 CURVE",
"121 1046 LINE",
"137 913 OFFCURVE",
"144 791 OFFCURVE",
"144 664 CURVE SMOOTH",
"144 515 OFFCURVE",
"132 392 OFFCURVE",
"121 267 CURVE SMOOTH",
"111 158 OFFCURVE",
"100 50 OFFCURVE",
"98 -75 CURVE"
);
}
);
width = 1031;
}
);
unicode = FEC3;
},
{
glyphname = "ain-ar";
layers = (
{
anchors = (
{
name = bottom;
position = "{185, -131}";
},
{
name = top;
position = "{261, 500}";
}
);
layerId = "7C6EC3B8-53E3-46D5-865A-ED8DFE2E3A2E";
paths = (
{
closed = 1;
nodes = (
"425 -528 LINE",
"-87 -541 OFFCURVE",
"-59 42 OFFCURVE",
"394 -5 CURVE",
"398 25 LINE",
"-97 76 OFFCURVE",
"-129 -573 OFFCURVE",
"425 -558 CURVE"
);
},
{
closed = 1;
nodes = (
"207 -2 LINE",
"-121 141 OFFCURVE",
"30 547 OFFCURVE",
"381 451 CURVE",
"390 482 LINE",
"20 583 OFFCURVE",
"-167 162 OFFCURVE",
"167 -16 CURVE"
);
}
);
width = 455;
},
{
anchors = (
{
name = bottom;
position = "{330, -709}";
},
{
name = top;
position = "{358, 571}";
}
);
layerId = "EA99615A-DD74-4F65-B9DC-480CDB683AEE";
paths = (
{
closed = 1;
nodes = (
"555 -619 LINE",
"-49 -619 OFFCURVE",
"35 4 OFFCURVE",
"524 4 CURVE",
"524 94 LINE",
"-73 94 OFFCURVE",
"-179 -709 OFFCURVE",
"555 -709 CURVE"
);
},
{
closed = 1;
nodes = (
"285 18 LINE",
"-14 194 OFFCURVE",
"175 575 OFFCURVE",
"499 453 CURVE",
"531 537 LINE",
"105 697 OFFCURVE",
"-154 172 OFFCURVE",
"239 -60 CURVE"
);
}
);
width = 615;
},
{
anchors = (
{
name = bottom;
position = "{330, -646}";
},
{
name = top;
position = "{294, 516}";
}
);
layerId = "9AB624CD-9C19-4372-9845-4C197A276709";
paths = (
{
closed = 1;
nodes = (
"490 -593 LINE",
"-93 -593 OFFCURVE",
"-12 0 OFFCURVE",
"459 0 CURVE",
"459 60 LINE",
"-84 60 OFFCURVE",
"-179 -653 OFFCURVE",
"490 -653 CURVE"
);
},
{
closed = 1;
nodes = (
"214 -4 LINE",
"-85 172 OFFCURVE",
"104 553 OFFCURVE",
"428 431 CURVE",
"450 487 LINE",
"57 635 OFFCURVE",
"-178 157 OFFCURVE",
"184 -56 CURVE"
);
}
);
width = 600;
}
);
unicode = 0639;
},
{
glyphname = "ain-ar.fina";
layers = (
{
anchors = (
{
name = "#entry";
position = "{651, 0}";
},
{
name = bottom;
position = "{175, -124}";
},
{
name = top;
position = "{305, 511}";
}
);
layerId = "7C6EC3B8-53E3-46D5-865A-ED8DFE2E3A2E";
paths = (
{
closed = 1;
nodes = (
"593 -520 LINE",
"349 -560 OFFCURVE",
"87 -485 OFFCURVE",
"87 -286 CURVE SMOOTH",
"87 -151 OFFCURVE",
"214 -67 OFFCURVE",
"344 19 CURVE SMOOTH",
"466 100 OFFCURVE",
"592 184 OFFCURVE",
"592 311 CURVE SMOOTH",
"592 397 OFFCURVE",
"563 453 OFFCURVE",
"508 472 CURVE SMOOTH",
"382 515 OFFCURVE",
"68 500 OFFCURVE",
"68 389 CURVE SMOOTH",
"68 150 OFFCURVE",
"442 0 OFFCURVE",
"651 0 CURVE",
"651 30 LINE",
"448 30 OFFCURVE",
"98 170 OFFCURVE",
"98 389 CURVE SMOOTH",
"98 457 OFFCURVE",
"354 492 OFFCURVE",
"498 444 CURVE SMOOTH",
"540 430 OFFCURVE",
"562 385 OFFCURVE",
"562 311 CURVE SMOOTH",
"562 200 OFFCURVE",
"446 124 OFFCURVE",
"326 44 CURVE SMOOTH",
"194 -43 OFFCURVE",
"57 -135 OFFCURVE",
"57 -286 CURVE SMOOTH",
"57 -483 OFFCURVE",
"298 -598 OFFCURVE",
"597 -550 CURVE"
);
}
);
width = 651;
},
{
anchors = (
{
name = "#entry";
position = "{773, 0}";
},
{
name = bottom;
position = "{282, -391}";
},
{
name = top;
position = "{305, 568}";
}
);
layerId = "EA99615A-DD74-4F65-B9DC-480CDB683AEE";
paths = (
{
closed = 1;
nodes = (
"659 -355 LINE",
"442 -391 OFFCURVE",
"269 -320 OFFCURVE",
"269 -201 CURVE SMOOTH",
"269 -110 OFFCURVE",
"359 -51 OFFCURVE",
"477 27 CURVE SMOOTH",
"635 132 OFFCURVE",
"723 245 OFFCURVE",
"731 340 CURVE SMOOTH",
"737 409 OFFCURVE",
"701 469 OFFCURVE",
"620 508 CURVE SMOOTH",
"382 624 OFFCURVE",
"34 565 OFFCURVE",
"34 400 CURVE SMOOTH",
"34 186 OFFCURVE",
"388 0 OFFCURVE",
"773 0 CURVE",
"773 90 LINE",
"447 90 OFFCURVE",
"124 246 OFFCURVE",
"124 400 CURVE SMOOTH",
"124 482 OFFCURVE",
"419 506 OFFCURVE",
"580 428 CURVE SMOOTH",
"619 409 OFFCURVE",
"639 382 OFFCURVE",
"640 349 CURVE SMOOTH",
"641 284 OFFCURVE",
"569 196 OFFCURVE",
"427 103 CURVE SMOOTH",
"309 25 OFFCURVE",
"179 -62 OFFCURVE",
"179 -201 CURVE SMOOTH",
"179 -384 OFFCURVE",
"400 -490 OFFCURVE",
"675 -443 CURVE"
);
}
);
width = 773;
},
{
anchors = (
{
name = "#entry";
position = "{738, 0}";
},
{
name = bottom;
position = "{310, -410}";
},
{
name = top;
position = "{305, 568}";
}
);
layerId = "9AB624CD-9C19-4372-9845-4C197A276709";
paths = (
{
closed = 1;
nodes = (
"677 -489 LINE",
"404 -535 OFFCURVE",
"189 -436 OFFCURVE",
"189 -271 CURVE SMOOTH",
"189 -144 OFFCURVE",
"310 -64 OFFCURVE",
"440 22 CURVE SMOOTH",
"566 106 OFFCURVE",
"650 202 OFFCURVE",
"682 289 CURVE SMOOTH",
"717 382 OFFCURVE",
"694 465 OFFCURVE",
"603 509 CURVE SMOOTH",
"386 615 OFFCURVE",
"30 574 OFFCURVE",
"30 434 CURVE SMOOTH",
"30 240 OFFCURVE",
"426 0 OFFCURVE",
"738 0 CURVE",
"738 60 LINE",
"464 60 OFFCURVE",
"90 277 OFFCURVE",
"90 434 CURVE SMOOTH",
"90 516 OFFCURVE",
"414 535 OFFCURVE",
"577 455 CURVE SMOOTH",
"631 429 OFFCURVE",
"647 381 OFFCURVE",
"631 324 CURVE SMOOTH",
"610 248 OFFCURVE",
"532 155 OFFCURVE",
"406 72 CURVE SMOOTH",
"276 -14 OFFCURVE",
"129 -112 OFFCURVE",
"129 -271 CURVE SMOOTH",
"129 -479 OFFCURVE",
"377 -600 OFFCURVE",
"687 -549 CURVE"
);
}
);
width = 738;
}
);
unicode = FECA;
},
{
glyphname = "ain-ar.medi";
layers = (
{
anchors = (
{
name = "#entry";
position = "{651, 0}";
},
{
name = "#exit";
position = "{0, 0}";
},
{
name = bottom;
position = "{334, 0}";
},
{
name = top;
position = "{298, 532}";
}
);
layerId = "7C6EC3B8-53E3-46D5-865A-ED8DFE2E3A2E";
paths = (
{
closed = 1;
nodes = (
"285 0 OFFCURVE",
"607 9 OFFCURVE",
"607 326 CURVE SMOOTH",
"607 418 OFFCURVE",
"574 480 OFFCURVE",
"513 501 CURVE SMOOTH",
"385 545 OFFCURVE",
"19 547 OFFCURVE",
"19 421 CURVE SMOOTH",
"19 138 OFFCURVE",
"440 0 OFFCURVE",
"651 0 CURVE",
"651 30 LINE",
"444 30 OFFCURVE",
"49 160 OFFCURVE",
"49 421 CURVE SMOOTH",
"49 497 OFFCURVE",
"338 528 OFFCURVE",
"503 473 CURVE SMOOTH",
"551 457 OFFCURVE",
"577 406 OFFCURVE",
"577 326 CURVE SMOOTH",
"577 39 OFFCURVE",
"285 30 OFFCURVE",
"0 30 CURVE",
"0 0 LINE"
);
}
);
width = 651;
},
{
anchors = (
{
name = "#entry";
position = "{776, 0}";
},
{
name = "#exit";
position = "{0, 0}";
},
{
name = bottom;
position = "{495, 0}";
},
{
name = top;
position = "{404, 554}";
}
);
layerId = "EA99615A-DD74-4F65-B9DC-480CDB683AEE";
paths = (
{
closed = 1;
nodes = (
"322 0 OFFCURVE",
"702 8 OFFCURVE",
"702 302 CURVE SMOOTH",
"702 401 OFFCURVE",
"673 463 OFFCURVE",
"609 498 CURVE SMOOTH",
"415 604 OFFCURVE",
"46 544 OFFCURVE",
"46 397 CURVE SMOOTH",
"46 101 OFFCURVE",
"602 0 OFFCURVE",
"776 0 CURVE",
"776 90 LINE",
"610 90 OFFCURVE",
"136 177 OFFCURVE",
"136 397 CURVE SMOOTH",
"136 459 OFFCURVE",
"452 482 OFFCURVE",
"565 420 CURVE SMOOTH",
"598 402 OFFCURVE",
"612 370 OFFCURVE",
"612 302 CURVE SMOOTH",
"612 96 OFFCURVE",
"322 90 OFFCURVE",
"0 90 CURVE",
"0 0 LINE"
);
}
);
width = 776;
},
{
anchors = (
{
name = "#entry";
position = "{758, 0}";
},
{
name = "#exit";
position = "{0, 0}";
},
{
name = bottom;
position = "{481, 0}";
},
{
name = top;
position = "{390, 554}";
}
);
layerId = "9AB624CD-9C19-4372-9845-4C197A276709";
paths = (
{
closed = 1;
nodes = (
"390 0 OFFCURVE",
"698 9 OFFCURVE",
"698 311 CURVE SMOOTH",
"698 426 OFFCURVE",
"665 473 OFFCURVE",
"614 501 CURVE SMOOTH",
"466 582 OFFCURVE",
"50 577 OFFCURVE",
"50 426 CURVE SMOOTH",
"50 114 OFFCURVE",
"552 0 OFFCURVE",
"758 0 CURVE",
"758 60 LINE",
"556 60 OFFCURVE",
"110 164 OFFCURVE",
"110 426 CURVE SMOOTH",
"110 490 OFFCURVE",
"414 533 OFFCURVE",
"594 445 CURVE SMOOTH",
"621 432 OFFCURVE",
"638 371 OFFCURVE",
"638 311 CURVE SMOOTH",
"638 67 OFFCURVE",
"390 60 OFFCURVE",
"0 60 CURVE",
"0 0 LINE"
);
}
);
width = 758;
}
);
unicode = FECC;
},
{
glyphname = "ain-ar.init";
layers = (
{
anchors = (
{
name = "#entry";
position = "{0, 0}";
},
{
name = bottom;
position = "{302, -4}";
},
{
name = top;
position = "{322, 531}";
}
);
layerId = "7C6EC3B8-53E3-46D5-865A-ED8DFE2E3A2E";
paths = (
{
closed = 1;
nodes = (
"284 27 LINE",
"166 78 OFFCURVE",
"88 168 OFFCURVE",
"88 253 CURVE SMOOTH",
"88 402 OFFCURVE",
"197 500 OFFCURVE",
"364 500 CURVE SMOOTH",
"391 500 OFFCURVE",
"426 493 OFFCURVE",
"453 483 CURVE",
"463 511 LINE",
"434 522 OFFCURVE",
"395 530 OFFCURVE",
"364 530 CURVE SMOOTH",
"181 530 OFFCURVE",
"58 419 OFFCURVE",
"58 253 CURVE SMOOTH",
"58 156 OFFCURVE",
"144 55 OFFCURVE",
"272 -1 CURVE"
);
},
{
closed = 1;
nodes = (
"302 -4 OFFCURVE",
"457 3 OFFCURVE",
"562 14 CURVE",
"558 44 LINE",
"456 33 OFFCURVE",
"303 26 OFFCURVE",
"174 26 CURVE SMOOTH",
"118 26 OFFCURVE",
"56 28 OFFCURVE",
"0 30 CURVE",
"0 0 LINE",
"57 -2 OFFCURVE",
"119 -4 OFFCURVE",
"174 -4 CURVE SMOOTH"
);
}
);
width = 602;
},
{
anchors = (
{
name = "#entry";
position = "{0, 0}";
},
{
name = bottom;
position = "{348, -4}";
},
{
name = top;
position = "{346, 593}";
}
);
layerId = "EA99615A-DD74-4F65-B9DC-480CDB683AEE";
paths = (
{
closed = 1;
nodes = (
"311 82 LINE",
"165 145 OFFCURVE",
"119 263 OFFCURVE",
"144 358 CURVE SMOOTH",
"169 448 OFFCURVE",
"259 518 OFFCURVE",
"390 499 CURVE SMOOTH",
"411 496 OFFCURVE",
"434 490 OFFCURVE",
"458 482 CURVE",
"488 568 LINE",
"459 578 OFFCURVE",
"431 585 OFFCURVE",
"404 589 CURVE SMOOTH",
"225 616 OFFCURVE",
"98 516 OFFCURVE",
"60 387 CURVE SMOOTH",
"20 252 OFFCURVE",
"78 85 OFFCURVE",
"275 0 CURVE"
);
},
{
closed = 1;
nodes = (
"348 -4 OFFCURVE",
"501 3 OFFCURVE",
"602 14 CURVE",
"592 104 LINE",
"495 93 OFFCURVE",
"346 86 OFFCURVE",
"216 86 CURVE SMOOTH",
"161 86 OFFCURVE",
"101 88 OFFCURVE",
"0 90 CURVE",
"0 0 LINE",
"57 -2 OFFCURVE",
"159 -4 OFFCURVE",
"216 -4 CURVE SMOOTH"
);
}
);
width = 642;
},
{
anchors = (
{
name = "#entry";
position = "{0, 0}";
},
{
name = bottom;
position = "{302, -4}";
},
{
name = top;
position = "{337, 525}";
}
);
layerId = "9AB624CD-9C19-4372-9845-4C197A276709";
paths = (
{
closed = 1;
nodes = (
"296 55 LINE",
"189 101 OFFCURVE",
"118 181 OFFCURVE",
"118 253 CURVE SMOOTH",
"118 385 OFFCURVE",
"214 470 OFFCURVE",
"364 470 CURVE SMOOTH",
"387 470 OFFCURVE",
"418 464 OFFCURVE",
"443 455 CURVE",
"463 511 LINE",
"432 523 OFFCURVE",
"394 530 OFFCURVE",
"364 530 CURVE SMOOTH",
"181 530 OFFCURVE",
"58 419 OFFCURVE",
"58 253 CURVE SMOOTH",
"58 155 OFFCURVE",
"143 55 OFFCURVE",
"272 -1 CURVE"
);
},
{
closed = 1;
nodes = (
"306 -4 OFFCURVE",
"460 3 OFFCURVE",
"561 14 CURVE",
"555 74 LINE",
"455 63 OFFCURVE",
"303 56 OFFCURVE",
"174 56 CURVE SMOOTH",
"118 56 OFFCURVE",
"57 58 OFFCURVE",
"0 60 CURVE",
"0 0 LINE",
"55 -2 OFFCURVE",
"118 -4 OFFCURVE",
"174 -4 CURVE SMOOTH"
);
}
);
width = 602;
}
);
unicode = FECB;
},
{
glyphname = "fehDotless-ar";
layers = (
{
anchors = (
{
name = bottom;
position = "{786, 0}";
},
{
name = top;
position = "{1002, 584}";
}
);
layerId = "7C6EC3B8-53E3-46D5-865A-ED8DFE2E3A2E";
paths = (
{
closed = 1;
nodes = (
"550 -5 OFFCURVE",
"864 -5 OFFCURVE",
"914 0 CURVE SMOOTH",
"1091 18 OFFCURVE",
"1287 31 OFFCURVE",
"1287 239 CURVE SMOOTH",
"1287 476 OFFCURVE",
"1106 659 OFFCURVE",
"906 546 CURVE SMOOTH",
"812 492 OFFCURVE",
"756 400 OFFCURVE",
"756 298 CURVE SMOOTH",
"756 160 OFFCURVE",
"839 117 OFFCURVE",
"996 117 CURVE SMOOTH",
"1091 117 OFFCURVE",
"1218 146 OFFCURVE",
"1314 189 CURVE",
"1302 216 LINE",
"1210 179 OFFCURVE",
"1086 147 OFFCURVE",
"996 147 CURVE SMOOTH",
"859 147 OFFCURVE",
"788 174 OFFCURVE",
"786 298 CURVE",
"786 389 OFFCURVE",
"836 472 OFFCURVE",
"921 520 CURVE SMOOTH",
"1098 620 OFFCURVE",
"1257 454 OFFCURVE",
"1257 240 CURVE SMOOTH",
"1257 91 OFFCURVE",
"1151 46 OFFCURVE",
"914 30 CURVE SMOOTH",
"842 25 OFFCURVE",
"559 24 OFFCURVE",
"467 29 CURVE SMOOTH",
"107 49 OFFCURVE",
"0 184 OFFCURVE",
"113 558 CURVE",
"84 568 LINE",
"-34 175 OFFCURVE",
"85 23 OFFCURVE",
"467 0 CURVE SMOOTH"
);
}
);
width = 1354;
},
{
anchors = (
{
name = bottom;
position = "{764, 0}";
},
{
name = top;
position = "{1021, 679}";
}
);
layerId = "EA99615A-DD74-4F65-B9DC-480CDB683AEE";
paths = (
{
closed = 1;
nodes = (
"572 -5 OFFCURVE",
"871 -2 OFFCURVE",
"935 1 CURVE SMOOTH",
"1193 13 OFFCURVE",
"1299 139 OFFCURVE",
"1299 337 CURVE SMOOTH",
"1299 592 OFFCURVE",
"1093 750 OFFCURVE",
"902 641 CURVE SMOOTH",
"807 587 OFFCURVE",
"749 491 OFFCURVE",
"749 387 CURVE SMOOTH",
"749 247 OFFCURVE",
"832 186 OFFCURVE",
"1002 186 CURVE SMOOTH",
"1081 186 OFFCURVE",
"1196 211 OFFCURVE",
"1284 250 CURVE",
"1260 334 LINE",
"1172 299 OFFCURVE",
"1071 276 OFFCURVE",
"1002 276 CURVE SMOOTH",
"877 276 OFFCURVE",
"840 304 OFFCURVE",
"839 387 CURVE SMOOTH",
"838 459 OFFCURVE",
"879 524 OFFCURVE",
"946 563 CURVE SMOOTH",
"1075 638 OFFCURVE",
"1209 523 OFFCURVE",
"1209 337 CURVE SMOOTH",
"1209 194 OFFCURVE",
"1144 101 OFFCURVE",
"931 91 CURVE SMOOTH",
"869 88 OFFCURVE",
"574 86 OFFCURVE",
"494 90 CURVE SMOOTH",
"189 105 OFFCURVE",
"113 219 OFFCURVE",
"206 524 CURVE",
"120 550 LINE",
"11 190 OFFCURVE",
"123 22 OFFCURVE",
"490 0 CURVE SMOOTH"
);
}
);
width = 1379;
},
{
anchors = (
{
name = bottom;
position = "{786, 0}";
},
{
name = top;
position = "{1008, 627}";
}
);
layerId = "9AB624CD-9C19-4372-9845-4C197A276709";
paths = (
{
closed = 1;
nodes = (
"558 -6 OFFCURVE",
"843 -4 OFFCURVE",
"916 0 CURVE SMOOTH",
"1188 15 OFFCURVE",
"1287 92 OFFCURVE",
"1287 290 CURVE SMOOTH",
"1287 543 OFFCURVE",
"1093 702 OFFCURVE",
"906 596 CURVE SMOOTH",
"813 543 OFFCURVE",
"756 450 OFFCURVE",
"756 348 CURVE SMOOTH",
"758 217 OFFCURVE",
"827 167 OFFCURVE",
"996 167 CURVE SMOOTH",
"1081 167 OFFCURVE",
"1206 195 OFFCURVE",
"1313 238 CURVE",
"1291 294 LINE",
"1191 254 OFFCURVE",
"1073 227 OFFCURVE",
"996 227 CURVE SMOOTH",
"857 227 OFFCURVE",
"818 255 OFFCURVE",
"816 348 CURVE SMOOTH",
"816 429 OFFCURVE",
"860 501 OFFCURVE",
"936 544 CURVE SMOOTH",
"1080 626 OFFCURVE",
"1227 498 OFFCURVE",
"1227 290 CURVE SMOOTH",
"1227 128 OFFCURVE",
"1155 73 OFFCURVE",
"912 60 CURVE SMOOTH",
"841 56 OFFCURVE",
"560 54 OFFCURVE",
"469 59 CURVE SMOOTH",
"121 78 OFFCURVE",
"37 202 OFFCURVE",
"142 549 CURVE",
"84 567 LINE",
"-32 182 OFFCURVE",
"77 21 OFFCURVE",
"465 -1 CURVE SMOOTH"
);
}
);
width = 1359;
}
);
unicode = 06A1;
},
{
glyphname = "fehDotless-ar.fina";
layers = (
{
anchors = (
{
name = "#entry";
position = "{1294, 0}";
},
{
name = bottom;
position = "{1025, 0}";
},
{
name = top;
position = "{1025, 603}";
}
);
layerId = "7C6EC3B8-53E3-46D5-865A-ED8DFE2E3A2E";
paths = (
{
closed = 1;
nodes = (
"633 -1 OFFCURVE",
"742 0 OFFCURVE",
"825 0 CURVE SMOOTH",
"1122 0 OFFCURVE",
"1282 107 OFFCURVE",
"1282 309 CURVE SMOOTH",
"1282 472 OFFCURVE",
"1169 603 OFFCURVE",
"1025 603 CURVE SMOOTH",
"768 603 OFFCURVE",
"643 309 OFFCURVE",
"824 122 CURVE SMOOTH",
"929 13 OFFCURVE",
"1141 1 OFFCURVE",
"1294 0 CURVE",
"1294 30 LINE",
"1141 31 OFFCURVE",
"942 42 OFFCURVE",
"846 142 CURVE SMOOTH",
"684 311 OFFCURVE",
"795 573 OFFCURVE",
"1025 573 CURVE SMOOTH",
"1152 573 OFFCURVE",
"1252 455 OFFCURVE",
"1252 309 CURVE SMOOTH",
"1252 126 OFFCURVE",
"1106 30 OFFCURVE",
"825 30 CURVE SMOOTH",
"790 30 OFFCURVE",
"565 29 OFFCURVE",
"482 29 CURVE SMOOTH",
"199 29 OFFCURVE",
"70 125 OFFCURVE",
"70 331 CURVE SMOOTH",
"70 399 OFFCURVE",
"84 480 OFFCURVE",
"113 578 CURVE",
"85 586 LINE",
"55 486 OFFCURVE",
"40 403 OFFCURVE",
"40 331 CURVE SMOOTH",
"40 106 OFFCURVE",
"184 -1 OFFCURVE",
"482 -1 CURVE SMOOTH"
);
}
);
width = 1294;
},
{
anchors = (
{
name = "#entry";
position = "{1322, 0}";
},
{
name = bottom;
position = "{1031, 0}";
},
{
name = top;
position = "{1005, 609}";
}
);
layerId = "EA99615A-DD74-4F65-B9DC-480CDB683AEE";
paths = (
{
closed = 1;
nodes = (
"757 -1 OFFCURVE",
"591 0 OFFCURVE",
"824 0 CURVE SMOOTH",
"1111 0 OFFCURVE",
"1270 109 OFFCURVE",
"1270 311 CURVE SMOOTH",
"1270 476 OFFCURVE",
"1153 609 OFFCURVE",
"1005 609 CURVE SMOOTH",
"744 609 OFFCURVE",
"617 308 OFFCURVE",
"800 120 CURVE SMOOTH",
"883 35 OFFCURVE",
"1029 1 OFFCURVE",
"1322 0 CURVE",
"1322 90 LINE",
"1053 91 OFFCURVE",
"926 118 OFFCURVE",
"864 182 CURVE SMOOTH",
"737 314 OFFCURVE",
"823 519 OFFCURVE",
"1005 519 CURVE SMOOTH",
"1102 519 OFFCURVE",
"1180 428 OFFCURVE",
"1180 311 CURVE SMOOTH",
"1180 165 OFFCURVE",
"1063 90 OFFCURVE",
"824 90 CURVE SMOOTH",
"815 90 OFFCURVE",
"526 89 OFFCURVE",
"513 89 CURVE SMOOTH",
"272 89 OFFCURVE",
"170 163 OFFCURVE",
"170 331 CURVE SMOOTH",
"170 389 OFFCURVE",
"182 455 OFFCURVE",
"208 546 CURVE",
"122 572 LINE",
"93 473 OFFCURVE",
"80 397 OFFCURVE",
"80 331 CURVE SMOOTH",
"80 109 OFFCURVE",
"224 -1 OFFCURVE",
"513 -1 CURVE SMOOTH"
);
}
);
width = 1322;
},
{
anchors = (
{
name = "#entry";
position = "{1459, 0}";
},
{
name = bottom;
position = "{1128, 0}";
},
{
name = top;
position = "{1110, 573}";
}
);
layerId = "9AB624CD-9C19-4372-9845-4C197A276709";
paths = (
{
closed = 1;
nodes = (
"617 -1 OFFCURVE",
"896 0 OFFCURVE",
"910 0 CURVE SMOOTH",
"1199 0 OFFCURVE",
"1352 101 OFFCURVE",
"1352 294 CURVE SMOOTH",
"1352 449 OFFCURVE",
"1245 573 OFFCURVE",
"1110 573 CURVE SMOOTH",
"866 573 OFFCURVE",
"747 293 OFFCURVE",
"919 117 CURVE SMOOTH",
"1000 34 OFFCURVE",
"1152 2 OFFCURVE",
"1459 0 CURVE",
"1459 60 LINE",
"1169 62 OFFCURVE",
"1029 90 OFFCURVE",
"963 159 CURVE SMOOTH",
"829 299 OFFCURVE",
"918 513 OFFCURVE",
"1110 513 CURVE SMOOTH",
"1211 513 OFFCURVE",
"1292 416 OFFCURVE",
"1292 294 CURVE SMOOTH",
"1292 139 OFFCURVE",
"1167 60 OFFCURVE",
"910 60 CURVE SMOOTH",
"896 60 OFFCURVE",
"617 59 OFFCURVE",
"567 59 CURVE SMOOTH",
"308 59 OFFCURVE",
"200 136 OFFCURVE",
"200 316 CURVE SMOOTH",
"200 379 OFFCURVE",
"213 453 OFFCURVE",
"242 549 CURVE",
"184 567 LINE",
"154 465 OFFCURVE",
"140 385 OFFCURVE",
"140 316 CURVE SMOOTH",
"140 99 OFFCURVE",
"277 -1 OFFCURVE",
"567 -1 CURVE SMOOTH"
);
}
);
width = 1459;
}
);
},
{
glyphname = "fehDotless-ar.medi";
layers = (
{
anchors = (
{
name = "#entry";
position = "{600, 0}";
},
{
name = "#exit";
position = "{0, 0}";
},
{
name = bottom;
position = "{328, 0}";
},
{
name = top;
position = "{338, 600}";
}
);
layerId = "7C6EC3B8-53E3-46D5-865A-ED8DFE2E3A2E";
paths = (
{
closed = 1;
nodes = (
"47 0 OFFCURVE",
"107 0 OFFCURVE",
"170 0 CURVE SMOOTH",
"465 0 OFFCURVE",
"585 67 OFFCURVE",
"585 238 CURVE SMOOTH",
"585 434 OFFCURVE",
"473 600 OFFCURVE",
"338 600 CURVE SMOOTH",
"190 600 OFFCURVE",
"79 451 OFFCURVE",
"79 254 CURVE SMOOTH",
"79 -22 OFFCURVE",
"328 0 OFFCURVE",
"600 0 CURVE",
"600 30 LINE",
"326 30 OFFCURVE",
"109 10 OFFCURVE",
"109 254 CURVE SMOOTH",
"109 435 OFFCURVE",
"208 570 OFFCURVE",
"338 570 CURVE SMOOTH",
"455 570 OFFCURVE",
"555 417 OFFCURVE",
"555 238 CURVE SMOOTH",
"555 88 OFFCURVE",
"449 30 OFFCURVE",
"170 30 CURVE SMOOTH",
"108 30 OFFCURVE",
"49 30 OFFCURVE",
"0 30 CURVE",
"0 0 LINE"
);
}
);
width = 600;
},
{
anchors = (
{
name = "#entry";
position = "{780, 0}";
},
{
name = "#exit";
position = "{0, 0}";
},
{
name = bottom;
position = "{406, 0}";
},
{
name = top;
position = "{406, 634}";
}
);
layerId = "EA99615A-DD74-4F65-B9DC-480CDB683AEE";
paths = (
{
closed = 1;
nodes = (
"54 0 OFFCURVE",
"106 0 OFFCURVE",
"157 2 CURVE SMOOTH",
"446 9 OFFCURVE",
"675 49 OFFCURVE",
"675 261 CURVE SMOOTH",
"675 465 OFFCURVE",
"555 634 OFFCURVE",
"406 634 CURVE SMOOTH",
"246 634 OFFCURVE",
"126 479 OFFCURVE",
"126 275 CURVE SMOOTH",
"126 17 OFFCURVE",
"495 0 OFFCURVE",
"780 0 CURVE",
"780 90 LINE",
"377 90 OFFCURVE",
"216 143 OFFCURVE",
"216 275 CURVE SMOOTH",
"216 429 OFFCURVE",
"299 544 OFFCURVE",
"406 544 CURVE SMOOTH",
"501 544 OFFCURVE",
"585 415 OFFCURVE",
"585 261 CURVE SMOOTH",
"585 146 OFFCURVE",
"485 101 OFFCURVE",
"156 92 CURVE SMOOTH",
"109 91 OFFCURVE",
"57 90 OFFCURVE",
"0 90 CURVE",
"0 0 LINE"
);
}
);
width = 780;
},
{
anchors = (
{
name = "#entry";
position = "{640, 0}";
},
{
name = "#exit";
position = "{0, 0}";
},
{
name = bottom;
position = "{327, 0}";
},
{
name = top;
position = "{338, 600}";
}
);
layerId = "9AB624CD-9C19-4372-9845-4C197A276709";
paths = (
{
closed = 1;
nodes = (
"50 0 OFFCURVE",
"107 0 OFFCURVE",
"170 0 CURVE SMOOTH",
"463 0 OFFCURVE",
"585 67 OFFCURVE",
"585 238 CURVE SMOOTH",
"585 434 OFFCURVE",
"473 600 OFFCURVE",
"338 600 CURVE SMOOTH",
"190 600 OFFCURVE",
"79 451 OFFCURVE",
"79 254 CURVE SMOOTH",
"79 -23 OFFCURVE",
"327 0 OFFCURVE",
"640 0 CURVE",
"640 60 LINE",
"325 60 OFFCURVE",
"139 43 OFFCURVE",
"139 254 CURVE SMOOTH",
"139 418 OFFCURVE",
"225 540 OFFCURVE",
"338 540 CURVE SMOOTH",
"436 540 OFFCURVE",
"525 400 OFFCURVE",
"525 238 CURVE SMOOTH",
"525 108 OFFCURVE",
"434 60 OFFCURVE",
"170 60 CURVE SMOOTH",
"109 60 OFFCURVE",
"50 60 OFFCURVE",
"0 60 CURVE",
"0 0 LINE"
);
}
);
width = 640;
}
);
},
{
glyphname = "fehDotless-ar.init";
layers = (
{
anchors = (
{
name = "#entry";
position = "{0, 0}";
},
{
name = bottom;
position = "{300, -5}";
},
{
name = top;
position = "{335, 575}";
}
);
layerId = "7C6EC3B8-53E3-46D5-865A-ED8DFE2E3A2E";
paths = (
{
closed = 1;
nodes = (
"422 -2 OFFCURVE",
"596 -22 OFFCURVE",
"596 236 CURVE SMOOTH",
"596 409 OFFCURVE",
"502 575 OFFCURVE",
"335 575 CURVE SMOOTH",
"194 575 OFFCURVE",
"65 445 OFFCURVE",
"65 295 CURVE SMOOTH",
"65 153 OFFCURVE",
"149 114 OFFCURVE",
"305 114 CURVE SMOOTH",
"422 114 OFFCURVE",
"527 143 OFFCURVE",
"623 186 CURVE",
"611 213 LINE",
"519 172 OFFCURVE",
"395 144 OFFCURVE",
"305 144 CURVE SMOOTH",
"168 144 OFFCURVE",
"97 171 OFFCURVE",
"95 295 CURVE SMOOTH",
"95 427 OFFCURVE",
"208 545 OFFCURVE",
"335 545 CURVE SMOOTH",
"482 545 OFFCURVE",
"566 394 OFFCURVE",
"566 237 CURVE SMOOTH",
"566 38 OFFCURVE",
"482 23 OFFCURVE",
"223 27 CURVE SMOOTH",
"188 28 OFFCURVE",
"3 30 OFFCURVE",
"0 30 CURVE",
"0 0 LINE",
"-1 0 OFFCURVE",
"180 -3 OFFCURVE",
"223 -3 CURVE SMOOTH"
);
}
);
width = 663;
},
{
anchors = (
{
name = "#entry";
position = "{0, 0}";
},
{
name = bottom;
position = "{284, -4}";
},
{
name = top;
position = "{354, 661}";
}
);
layerId = "EA99615A-DD74-4F65-B9DC-480CDB683AEE";
paths = (
{
closed = 1;
nodes = (
"524 -12 OFFCURVE",
"636 79 OFFCURVE",
"636 309 CURVE SMOOTH",
"636 510 OFFCURVE",
"516 661 OFFCURVE",
"354 661 CURVE SMOOTH",
"199 661 OFFCURVE",
"64 522 OFFCURVE",
"64 362 CURVE SMOOTH",
"64 217 OFFCURVE",
"148 152 OFFCURVE",
"327 152 CURVE SMOOTH",
"417 152 OFFCURVE",
"542 180 OFFCURVE",
"624 221 CURVE",
"596 304 LINE",
"515 267 OFFCURVE",
"406 242 OFFCURVE",
"327 242 CURVE SMOOTH",
"194 242 OFFCURVE",
"154 273 OFFCURVE",
"154 362 CURVE SMOOTH",
"154 472 OFFCURVE",
"249 571 OFFCURVE",
"354 571 CURVE SMOOTH",
"463 571 OFFCURVE",
"546 461 OFFCURVE",
"546 309 CURVE SMOOTH",
"546 135 OFFCURVE",
"478 80 OFFCURVE",
"252 87 CURVE SMOOTH",
"221 88 OFFCURVE",
"3 90 OFFCURVE",
"0 90 CURVE",
"0 0 LINE",
"3 0 OFFCURVE",
"219 -2 OFFCURVE",
"250 -3 CURVE SMOOTH"
);
}
);
width = 731;
},
{
anchors = (
{
name = "#entry";
position = "{0, 0}";
},
{
name = bottom;
position = "{284, -4}";
},
{
name = top;
position = "{335, 575}";
}
);
layerId = "9AB624CD-9C19-4372-9845-4C197A276709";
paths = (
{
closed = 1;
nodes = (
"516 -11 OFFCURVE",
"596 40 OFFCURVE",
"596 247 CURVE SMOOTH",
"596 440 OFFCURVE",
"486 585 OFFCURVE",
"335 585 CURVE SMOOTH",
"192 585 OFFCURVE",
"65 454 OFFCURVE",
"65 305 CURVE SMOOTH",
"65 174 OFFCURVE",
"136 124 OFFCURVE",
"305 124 CURVE SMOOTH",
"399 124 OFFCURVE",
"528 153 OFFCURVE",
"623 196 CURVE",
"599 250 LINE",
"510 211 OFFCURVE",
"391 184 OFFCURVE",
"305 184 CURVE SMOOTH",
"166 184 OFFCURVE",
"127 212 OFFCURVE",
"125 305 CURVE SMOOTH",
"123 421 OFFCURVE",
"225 525 OFFCURVE",
"335 525 CURVE SMOOTH",
"451 525 OFFCURVE",
"536 407 OFFCURVE",
"536 247 CURVE SMOOTH",
"536 81 OFFCURVE",
"486 50 OFFCURVE",
"224 57 CURVE SMOOTH",
"189 58 OFFCURVE",
"3 60 OFFCURVE",
"0 60 CURVE",
"0 0 LINE",
"3 0 OFFCURVE",
"187 -2 OFFCURVE",
"222 -3 CURVE SMOOTH"
);
}
);
width = 661;
}
);
},
{
glyphname = "qafDotless-ar";
layers = (
{
anchors = (
{
name = "#entry";
position = "{808, 0}";
},
{
name = bottom;
position = "{185, -129}";
},
{
name = top;
position = "{533, 505}";
}
);
layerId = "7C6EC3B8-53E3-46D5-865A-ED8DFE2E3A2E";
paths = (
{
closed = 1;
nodes = (
"779 -371 OFFCURVE",
"843 -144 OFFCURVE",
"798 196 CURVE SMOOTH",
"773 388 OFFCURVE",
"673 505 OFFCURVE",
"533 505 CURVE SMOOTH",
"393 505 OFFCURVE",
"262 375 OFFCURVE",
"262 225 CURVE SMOOTH",
"265 -5 OFFCURVE",
"581 -52 OFFCURVE",
"844 54 CURVE",
"833 81 LINE",
"591 -15 OFFCURVE",
"295 25 OFFCURVE",
"292 225 CURVE SMOOTH",
"292 357 OFFCURVE",
"407 475 OFFCURVE",
"533 475 CURVE SMOOTH",
"657 475 OFFCURVE",
"745 370 OFFCURVE",
"768 192 CURVE SMOOTH",
"812 -135 OFFCURVE",
"752 -351 OFFCURVE",
"589 -437 CURVE SMOOTH",
"275 -602 OFFCURVE",
"-3 -371 OFFCURVE",
"58 0 CURVE",
"29 5 LINE",
"-36 -391 OFFCURVE",
"267 -640 OFFCURVE",
"603 -463 CURVE SMOOTH"
);
}
);
width = 864;
},
{
anchors = (
{
name = "#entry";
position = "{874, 0}";
},
{
name = bottom;
position = "{492, -496}";
},
{
name = top;
position = "{574, 536}";
}
);
layerId = "EA99615A-DD74-4F65-B9DC-480CDB683AEE";
paths = (
{
closed = 1;
nodes = (
"846 -339 OFFCURVE",
"917 -121 OFFCURVE",
"874 208 CURVE SMOOTH",
"848 409 OFFCURVE",
"732 536 OFFCURVE",
"574 536 CURVE SMOOTH",
"411 536 OFFCURVE",
"269 389 OFFCURVE",
"269 223 CURVE SMOOTH",
"269 -16 OFFCURVE",
"568 -111 OFFCURVE",
"893 19 CURVE",
"859 103 LINE",
"596 -3 OFFCURVE",
"360 57 OFFCURVE",
"359 223 CURVE SMOOTH",
"358 340 OFFCURVE",
"461 446 OFFCURVE",
"574 446 CURVE SMOOTH",
"684 446 OFFCURVE",
"763 353 OFFCURVE",
"784 196 CURVE SMOOTH",
"823 -95 OFFCURVE",
"767 -281 OFFCURVE",
"625 -354 CURVE SMOOTH",
"348 -496 OFFCURVE",
"103 -297 OFFCURVE",
"157 31 CURVE",
"69 45 LINE",
"3 -355 OFFCURVE",
"326 -615 OFFCURVE",
"667 -434 CURVE SMOOTH"
);
}
);
width = 953;
},
{
anchors = (
{
name = "#entry";
position = "{908, 0}";
},
{
name = bottom;
position = "{477, -554}";
},
{
name = top;
position = "{603, 535}";
}
);
layerId = "9AB624CD-9C19-4372-9845-4C197A276709";
paths = (
{
closed = 1;
nodes = (
"874 -392 OFFCURVE",
"945 -156 OFFCURVE",
"898 200 CURVE SMOOTH",
"871 407 OFFCURVE",
"759 535 OFFCURVE",
"603 535 CURVE SMOOTH",
"444 535 OFFCURVE",
"302 389 OFFCURVE",
"302 225 CURVE SMOOTH",
"305 -8 OFFCURVE",
"609 -101 OFFCURVE",
"953 37 CURVE",
"931 92 LINE",
"611 -23 OFFCURVE",
"364 34 OFFCURVE",
"362 225 CURVE SMOOTH",
"362 356 OFFCURVE",
"477 475 OFFCURVE",
"603 475 CURVE SMOOTH",
"726 475 OFFCURVE",
"815 370 OFFCURVE",
"838 192 CURVE SMOOTH",
"882 -139 OFFCURVE",
"820 -352 OFFCURVE",
"659 -436 CURVE SMOOTH",
"346 -601 OFFCURVE",
"67 -372 OFFCURVE",
"129 0 CURVE",
"69 10 LINE",
"0 -411 OFFCURVE",
"330 -678 OFFCURVE",
"687 -490 CURVE SMOOTH"
);
}
);
width = 1013;
}
);
unicode = 066F;
},
{
glyphname = "qafDotless-ar.fina";
layers = (
{
anchors = (
{
name = "#entry";
position = "{849, 0}";
},
{
name = bottom;
position = "{188, -136}";
},
{
name = top;
position = "{534, 495}";
}
);
layerId = "7C6EC3B8-53E3-46D5-865A-ED8DFE2E3A2E";
paths = (
{
closed = 1;
nodes = (
"-14 -376 OFFCURVE",
"275 -616 OFFCURVE",
"597 -445 CURVE SMOOTH",
"764 -356 OFFCURVE",
"827 -136 OFFCURVE",
"782 199 CURVE SMOOTH",
"757 384 OFFCURVE",
"666 495 OFFCURVE",
"534 495 CURVE SMOOTH",
"344 495 OFFCURVE",
"206 262 OFFCURVE",
"328 108 CURVE SMOOTH",
"422 -11 OFFCURVE",
"629 0 OFFCURVE",
"849 0 CURVE",
"849 30 LINE",
"628 30 OFFCURVE",
"436 19 OFFCURVE",
"352 126 CURVE SMOOTH",
"247 259 OFFCURVE",
"366 465 OFFCURVE",
"534 465 CURVE SMOOTH",
"649 465 OFFCURVE",
"730 365 OFFCURVE",
"752 195 CURVE SMOOTH",
"794 -128 OFFCURVE",
"737 -337 OFFCURVE",
"583 -419 CURVE SMOOTH",
"283 -579 OFFCURVE",
"20 -357 OFFCURVE",
"78 5 CURVE",
"49 10 LINE"
);
}
);
width = 849;
},
{
anchors = (
{
name = "#entry";
position = "{1026, 0}";
},
{
name = bottom;
position = "{550, -456}";
},
{
name = top;
position = "{673, 539}";
}
);
layerId = "EA99615A-DD74-4F65-B9DC-480CDB683AEE";
paths = (
{
closed = 1;
nodes = (
"818 90 OFFCURVE",
"592 80 OFFCURVE",
"521 170 CURVE SMOOTH",
"438 276 OFFCURVE",
"532 449 OFFCURVE",
"673 449 CURVE SMOOTH",
"767 449 OFFCURVE",
"834 366 OFFCURVE",
"853 219 CURVE SMOOTH",
"890 -70 OFFCURVE",
"840 -250 OFFCURVE",
"709 -319 CURVE SMOOTH",
"449 -456 OFFCURVE",
"226 -268 OFFCURVE",
"276 47 CURVE",
"188 61 LINE",
"126 -327 OFFCURVE",
"426 -571 OFFCURVE",
"751 -399 CURVE SMOOTH",
"921 -309 OFFCURVE",
"984 -96 OFFCURVE",
"943 231 CURVE SMOOTH",
"919 421 OFFCURVE",
"816 539 OFFCURVE",
"673 539 CURVE SMOOTH",
"457 539 OFFCURVE",
"321 279 OFFCURVE",
"451 114 CURVE SMOOTH",
"550 -12 OFFCURVE",
"820 0 OFFCURVE",
"1026 0 CURVE",
"1026 90 LINE"
);
}
);
width = 1026;
},
{
anchors = (
{
name = "#entry";
position = "{877, 0}";
},
{
name = bottom;
position = "{450, -490}";
},
{
name = top;
position = "{554, 495}";
}
);
layerId = "9AB624CD-9C19-4372-9845-4C197A276709";
paths = (
{
closed = 1;
nodes = (
"6 -377 OFFCURVE",
"295 -617 OFFCURVE",
"617 -445 CURVE SMOOTH",
"784 -357 OFFCURVE",
"845 -137 OFFCURVE",
"802 199 CURVE SMOOTH",
"778 383 OFFCURVE",
"686 495 OFFCURVE",
"554 495 CURVE SMOOTH",
"358 495 OFFCURVE",
"230 257 OFFCURVE",
"348 107 CURVE SMOOTH",
"442 -12 OFFCURVE",
"649 0 OFFCURVE",
"877 0 CURVE",
"877 60 LINE",
"647 60 OFFCURVE",
"470 50 OFFCURVE",
"396 145 CURVE SMOOTH",
"308 255 OFFCURVE",
"407 435 OFFCURVE",
"554 435 CURVE SMOOTH",
"652 435 OFFCURVE",
"722 346 OFFCURVE",
"742 191 CURVE SMOOTH",
"783 -120 OFFCURVE",
"730 -318 OFFCURVE",
"589 -393 CURVE SMOOTH",
"311 -541 OFFCURVE",
"73 -338 OFFCURVE",
"128 0 CURVE",
"68 10 LINE"
);
}
);
width = 877;
}
);
},
{
glyphname = "kaf-ar";
layers = (
{
anchors = (
{
name = bottom;
position = "{506, 0}";
},
{
name = center;
position = "{525, 559}";
},
{
name = top;
position = "{498, 1000}";
}
);
components = (
{
name = "hamza-ar";
transform = "{1, 0, 0, 1, 262, 442}";
}
);
layerId = "7C6EC3B8-53E3-46D5-865A-ED8DFE2E3A2E";
paths = (
{
closed = 1;
nodes = (
"1022 0 OFFCURVE",
"991 261 OFFCURVE",
"971 744 CURVE SMOOTH",
"968 826 OFFCURVE",
"965 913 OFFCURVE",
"965 1007 CURVE",
"935 1007 LINE",
"936 913 OFFCURVE",
"939 826 OFFCURVE",
"942 746 CURVE SMOOTH",
"961 252 OFFCURVE",
"983 30 OFFCURVE",
"506 30 CURVE SMOOTH",
"182 30 OFFCURVE",
"28 210 OFFCURVE",
"53 559 CURVE",
"23 561 LINE",
"-3 194 OFFCURVE",
"164 0 OFFCURVE",
"506 0 CURVE SMOOTH"
);
}
);
width = 1000;
},
{
anchors = (
{
name = bottom;
position = "{551, 0}";
},
{
name = center;
position = "{525, 500}";
},
{
name = top;
position = "{517, 1000}";
}
);
components = (
{
alignment = -1;
name = "hamza-ar";
transform = "{1, 0, 0, 1, 286, 461}";
}
);
layerId = "EA99615A-DD74-4F65-B9DC-480CDB683AEE";
paths = (
{
closed = 1;
nodes = (
"1027 0 OFFCURVE",
"1018 234 OFFCURVE",
"1002 701 CURVE SMOOTH",
"999 788 OFFCURVE",
"996 895 OFFCURVE",
"995 1002 CURVE",
"905 1002 LINE",
"906 889 OFFCURVE",
"909 789 OFFCURVE",
"912 701 CURVE SMOOTH",
"928 237 OFFCURVE",
"935 90 OFFCURVE",
"551 90 CURVE SMOOTH",
"272 90 OFFCURVE",
"151 232 OFFCURVE",
"173 539 CURVE",
"83 545 LINE",
"57 188 OFFCURVE",
"218 0 OFFCURVE",
"551 0 CURVE SMOOTH"
);
}
);
width = 1087;
},
{
anchors = (
{
name = bottom;
position = "{546, 0}";
},
{
name = center;
position = "{525, 500}";
},
{
name = top;
position = "{525, 1000}";
}
);
components = (
{
name = "hamza-ar";
transform = "{1, 0, 0, 1, 278, 454}";
}
);
layerId = "9AB624CD-9C19-4372-9845-4C197A276709";
paths = (
{
closed = 1;
nodes = (
"1041 0 OFFCURVE",
"1032 242 OFFCURVE",
"1013 708 CURVE SMOOTH",
"1010 799 OFFCURVE",
"1006 898 OFFCURVE",
"1005 1007 CURVE",
"945 1007 LINE",
"946 898 OFFCURVE",
"949 799 OFFCURVE",
"953 711 CURVE SMOOTH",
"969 246 OFFCURVE",
"974 60 OFFCURVE",
"546 60 CURVE SMOOTH",
"240 60 OFFCURVE",
"99 225 OFFCURVE",
"123 557 CURVE",
"63 561 LINE",
"37 195 OFFCURVE",
"204 0 OFFCURVE",
"546 0 CURVE SMOOTH"
);
}
);
width = 1059;
}
);
unicode = 0643;
},
{
glyphname = "kaf-ar.fina";
layers = (
{
anchors = (
{
name = "#entry";
position = "{1145, 0}";
}
);
components = (
{
name = "kaf-ar";
}
);
layerId = "7C6EC3B8-53E3-46D5-865A-ED8DFE2E3A2E";
paths = (
{
closed = 1;
nodes = (
"1145 30 LINE",
"1024 30 OFFCURVE",
"984 117 OFFCURVE",
"979 447 CURVE",
"949 426 LINE",
"956 99 OFFCURVE",
"1005 0 OFFCURVE",
"1145 0 CURVE"
);
}
);
width = 1145;
},
{
anchors = (
{
name = "#entry";
position = "{1297, 0}";
}
);
components = (
{
name = "kaf-ar";
}
);
layerId = "EA99615A-DD74-4F65-B9DC-480CDB683AEE";
paths = (
{
closed = 1;
nodes = (
"1297 90 LINE",
"1034 90 OFFCURVE",
"1007 287 OFFCURVE",
"1007 481 CURVE",
"918 477 LINE",
"919 262 OFFCURVE",
"952 0 OFFCURVE",
"1297 0 CURVE"
);
}
);
width = 1297;
},
{
anchors = (
{
name = "#entry";
position = "{1323, 0}";
}
);
components = (
{
name = "kaf-ar";
}
);
layerId = "9AB624CD-9C19-4372-9845-4C197A276709";
paths = (
{
closed = 1;
nodes = (
"1323 60 LINE",
"1026 60 OFFCURVE",
"1017 301 OFFCURVE",
"1019 486 CURVE",
"959 483 LINE",
"957 289 OFFCURVE",
"969 0 OFFCURVE",
"1323 0 CURVE"
);
}
);
width = 1323;
}
);
unicode = FEDA;
},
{
glyphname = "kaf-ar.medi";
layers = (
{
anchors = (
{
name = "#entry";
position = "{645, 0}";
},
{
name = "#exit";
position = "{0, 0}";
},
{
name = bottom;
position = "{279, 0}";
},
{
name = top;
position = "{272, 843}";
}
);
components = (
{
name = "kaf-ar.init";
}
);
layerId = "7C6EC3B8-53E3-46D5-865A-ED8DFE2E3A2E";
paths = (
{
closed = 1;
nodes = (
"645 30 LINE",
"569 30 OFFCURVE",
"557 68 OFFCURVE",
"556 196 CURVE",
"528 196 LINE",
"532 47 OFFCURVE",
"549 0 OFFCURVE",
"645 0 CURVE"
);
}
);
width = 645;
},
{
anchors = (
{
name = "#entry";
position = "{780, 0}";
},
{
name = "#exit";
position = "{0, 0}";
},
{
name = bottom;
position = "{476, 0}";
},
{
name = top;
position = "{272, 843}";
}
);
components = (
{
name = "kaf-ar.init";
}
);
layerId = "EA99615A-DD74-4F65-B9DC-480CDB683AEE";
paths = (
{
closed = 1;
nodes = (
"825 90 LINE",
"670 90 OFFCURVE",
"621 111 OFFCURVE",
"615 239 CURVE",
"526 228 LINE",
"531 75 OFFCURVE",
"584 0 OFFCURVE",
"825 0 CURVE"
);
}
);
width = 825;
},
{
anchors = (
{
name = "#entry";
position = "{705, 0}";
},
{
name = "#exit";
position = "{0, 0}";
},
{
name = bottom;
position = "{476, 0}";
},
{
name = top;
position = "{272, 843}";
}
);
components = (
{
name = "kaf-ar.init";
}
);
layerId = "9AB624CD-9C19-4372-9845-4C197A276709";
paths = (
{
closed = 1;
nodes = (
"705 60 LINE",
"622 61 OFFCURVE",
"587 108 OFFCURVE",
"586 226 CURVE",
"526 226 LINE",
"527 77 OFFCURVE",
"585 1 OFFCURVE",
"705 0 CURVE"
);
}
);
width = 705;
}
);
unicode = FEDC;
},
{
glyphname = "kaf-ar.init";
layers = (
{
anchors = (
{
name = "#entry";
position = "{245, 0}";
},
{
name = "#exit";
position = "{0, 0}";
},
{
name = bottom;
position = "{355, 0}";
},
{
name = top;
position = "{295, 879}";
}
);
layerId = "7C6EC3B8-53E3-46D5-865A-ED8DFE2E3A2E";
paths = (
{
closed = 1;
nodes = (
"367 -5 OFFCURVE",
"556 -16 OFFCURVE",
"556 198 CURVE SMOOTH",
"556 355 OFFCURVE",
"412 471 OFFCURVE",
"151 530 CURVE",
"272 684 OFFCURVE",
"407 818 OFFCURVE",
"550 960 CURVE SMOOTH",
"577 987 OFFCURVE",
"605 1014 OFFCURVE",
"632 1041 CURVE",
"610 1063 LINE",
"580 1032 OFFCURVE",
"551 1004 OFFCURVE",
"523 976 CURVE SMOOTH",
"385 838 OFFCURVE",
"238 692 OFFCURVE",
"113 529 CURVE",
"122 505 LINE",
"383 452 OFFCURVE",
"526 342 OFFCURVE",
"526 198 CURVE SMOOTH",
"526 16 OFFCURVE",
"369 25 OFFCURVE",
"0 30 CURVE",
"0 0 LINE"
);
}
);
width = 672;
},
{
anchors = (
{
name = "#entry";
position = "{245, 0}";
},
{
name = "#exit";
position = "{0, 0}";
},
{
name = bottom;
position = "{355, 0}";
},
{
name = top;
position = "{326, 897}";
}
);
layerId = "EA99615A-DD74-4F65-B9DC-480CDB683AEE";
paths = (
{
closed = 1;
nodes = (
"384 -5 OFFCURVE",
"616 -24 OFFCURVE",
"616 228 CURVE SMOOTH",
"616 390 OFFCURVE",
"481 513 OFFCURVE",
"233 578 CURVE",
"346 716 OFFCURVE",
"469 838 OFFCURVE",
"602 968 CURVE SMOOTH",
"635 1003 OFFCURVE",
"671 1036 OFFCURVE",
"704 1071 CURVE",
"640 1135 LINE",
"602 1096 OFFCURVE",
"567 1062 OFFCURVE",
"531 1028 CURVE SMOOTH",
"391 886 OFFCURVE",
"238 734 OFFCURVE",
"109 564 CURVE",
"130 509 LINE",
"385 460 OFFCURVE",
"526 359 OFFCURVE",
"526 228 CURVE SMOOTH",
"526 74 OFFCURVE",
"393 85 OFFCURVE",
"0 90 CURVE",
"0 0 LINE"
);
}
);
width = 734;
},
{
anchors = (
{
name = "#entry";
position = "{245, 0}";
},
{
name = "#exit";
position = "{0, 0}";
},
{
name = bottom;
position = "{355, 0}";
},
{
name = top;
position = "{295, 879}";
}
);
layerId = "9AB624CD-9C19-4372-9845-4C197A276709";
paths = (
{
closed = 1;
nodes = (
"376 -5 OFFCURVE",
"586 -20 OFFCURVE",
"586 213 CURVE SMOOTH",
"586 372 OFFCURVE",
"447 492 OFFCURVE",
"192 554 CURVE",
"309 700 OFFCURVE",
"438 828 OFFCURVE",
"576 964 CURVE SMOOTH",
"606 995 OFFCURVE",
"638 1025 OFFCURVE",
"668 1056 CURVE",
"625 1099 LINE",
"591 1064 OFFCURVE",
"559 1033 OFFCURVE",
"527 1002 CURVE SMOOTH",
"388 862 OFFCURVE",
"238 713 OFFCURVE",
"111 547 CURVE",
"126 507 LINE",
"384 456 OFFCURVE",
"526 351 OFFCURVE",
"526 213 CURVE SMOOTH",
"526 45 OFFCURVE",
"381 55 OFFCURVE",
"0 60 CURVE",
"0 0 LINE"
);
}
);
width = 713;
}
);
unicode = FEDB;
},
{
glyphname = "kaf-ar.init.008";
layers = (
{
anchors = (
{
name = "#entry";
position = "{245, 0}";
},
{
name = "#exit";
position = "{0, 0}";
},
{
name = bottom;
position = "{355, 0}";
},
{
name = top;
position = "{295, 879}";
}
);
layerId = "7C6EC3B8-53E3-46D5-865A-ED8DFE2E3A2E";
paths = (
{
closed = 1;
nodes = (
"367 -5 OFFCURVE",
"556 -16 OFFCURVE",
"556 198 CURVE SMOOTH",
"556 355 OFFCURVE",
"412 471 OFFCURVE",
"151 530 CURVE",
"272 684 OFFCURVE",
"407 818 OFFCURVE",
"550 960 CURVE SMOOTH",
"577 987 OFFCURVE",
"605 1014 OFFCURVE",
"632 1041 CURVE",
"610 1063 LINE",
"580 1032 OFFCURVE",
"551 1004 OFFCURVE",
"523 976 CURVE SMOOTH",
"385 838 OFFCURVE",
"238 692 OFFCURVE",
"113 529 CURVE",
"122 505 LINE",
"383 452 OFFCURVE",
"526 342 OFFCURVE",
"526 198 CURVE SMOOTH",
"526 16 OFFCURVE",
"369 25 OFFCURVE",
"0 30 CURVE",
"0 0 LINE"
);
}
);
width = 672;
},
{
anchors = (
{
name = "#entry";
position = "{245, 0}";
},
{
name = "#exit";
position = "{0, 0}";
},
{
name = bottom;
position = "{355, 0}";
},
{
name = top;
position = "{295, 879}";
}
);
layerId = "EA99615A-DD74-4F65-B9DC-480CDB683AEE";
paths = (
{
closed = 1;
nodes = (
"366 0 OFFCURVE",
"571 -18 OFFCURVE",
"571 213 CURVE SMOOTH",
"571 373 OFFCURVE",
"432 491 OFFCURVE",
"178 555 CURVE",
"295 700 OFFCURVE",
"424 827 OFFCURVE",
"561 964 CURVE SMOOTH",
"588 991 OFFCURVE",
"615 1018 OFFCURVE",
"642 1045 CURVE",
"580 1109 LINE",
"551 1082 OFFCURVE",
"524 1055 OFFCURVE",
"497 1028 CURVE SMOOTH",
"348 879 OFFCURVE",
"205 738 OFFCURVE",
"76 572 CURVE",
"110 477 LINE",
"354 426 OFFCURVE",
"481 333 OFFCURVE",
"481 213 CURVE SMOOTH",
"481 80 OFFCURVE",
"370 90 OFFCURVE",
"0 90 CURVE",
"0 0 LINE"
);
}
);
width = 702;
},
{
anchors = (
{
name = "#entry";
position = "{245, 0}";
},
{
name = "#exit";
position = "{0, 0}";
},
{
name = bottom;
position = "{355, 0}";
},
{
name = top;
position = "{295, 879}";
}
);
layerId = "9AB624CD-9C19-4372-9845-4C197A276709";
paths = (
{
closed = 1;
nodes = (
"366 0 OFFCURVE",
"586 -18 OFFCURVE",
"586 228 CURVE SMOOTH",
"586 390 OFFCURVE",
"451 512 OFFCURVE",
"204 578 CURVE",
"318 718 OFFCURVE",
"444 842 OFFCURVE",
"577 975 CURVE SMOOTH",
"602 999 OFFCURVE",
"628 1024 OFFCURVE",
"653 1050 CURVE",
"611 1092 LINE",
"583 1065 OFFCURVE",
"556 1038 OFFCURVE",
"529 1011 CURVE SMOOTH",
"386 868 OFFCURVE",
"250 734 OFFCURVE",
"127 579 CURVE",
"144 531 LINE",
"394 474 OFFCURVE",
"526 368 OFFCURVE",
"526 228 CURVE SMOOTH",
"526 46 OFFCURVE",
"368 60 OFFCURVE",
"0 60 CURVE",
"0 0 LINE"
);
}
);
width = 713;
}
);
},
{
glyphname = "lam-ar";
layers = (
{
anchors = (
{
name = "#entry";
position = "{985, 0}";
},
{
name = bottom;
position = "{526, -492}";
},
{
name = top;
position = "{526, 500}";
}
);
layerId = "7C6EC3B8-53E3-46D5-865A-ED8DFE2E3A2E";
paths = (
{
closed = 1;
nodes = (
"17 -298 OFFCURVE",
"184 -492 OFFCURVE",
"526 -492 CURVE SMOOTH",
"784 -492 OFFCURVE",
"991 -369 OFFCURVE",
"997 -205 CURVE SMOOTH",
"999 -160 OFFCURVE",
"987 47 OFFCURVE",
"987 84 CURVE SMOOTH",
"984 494 OFFCURVE",
"985 691 OFFCURVE",
"985 830 CURVE SMOOTH",
"985 922 OFFCURVE",
"986 989 OFFCURVE",
"985 1075 CURVE",
"955 1075 LINE",
"956 988 OFFCURVE",
"955 922 OFFCURVE",
"955 828 CURVE SMOOTH",
"955 690 OFFCURVE",
"954 493 OFFCURVE",
"957 84 CURVE SMOOTH",
"957 26 OFFCURVE",
"970 -159 OFFCURVE",
"967 -203 CURVE SMOOTH",
"957 -349 OFFCURVE",
"768 -462 OFFCURVE",
"526 -462 CURVE SMOOTH",
"202 -462 OFFCURVE",
"48 -282 OFFCURVE",
"73 67 CURVE",
"43 69 LINE"
);
}
);
width = 1037;
},
{
anchors = (
{
name = "#entry";
position = "{961, 0}";
},
{
name = bottom;
position = "{526, -477}";
},
{
name = top;
position = "{505, 500}";
}
);
layerId = "EA99615A-DD74-4F65-B9DC-480CDB683AEE";
paths = (
{
closed = 1;
nodes = (
"32 -289 OFFCURVE",
"193 -477 OFFCURVE",
"526 -477 CURVE SMOOTH",
"857 -477 OFFCURVE",
"942 -397 OFFCURVE",
"964 -178 CURVE SMOOTH",
"972 -106 OFFCURVE",
"972 -20 OFFCURVE",
"972 84 CURVE SMOOTH",
"969 511 OFFCURVE",
"970 707 OFFCURVE",
"970 846 CURVE SMOOTH",
"971 931 OFFCURVE",
"971 994 OFFCURVE",
"970 1075 CURVE",
"880 1075 LINE",
"881 994 OFFCURVE",
"881 931 OFFCURVE",
"880 847 CURVE SMOOTH",
"880 708 OFFCURVE",
"879 511 OFFCURVE",
"882 84 CURVE SMOOTH",
"882 -12 OFFCURVE",
"882 -89 OFFCURVE",
"877 -150 CURVE SMOOTH",
"862 -356 OFFCURVE",
"798 -387 OFFCURVE",
"526 -387 CURVE SMOOTH",
"247 -387 OFFCURVE",
"126 -245 OFFCURVE",
"148 62 CURVE",
"58 68 LINE"
);
}
);
width = 1012;
},
{
anchors = (
{
name = "#entry";
position = "{973, 0}";
},
{
name = bottom;
position = "{526, -492}";
},
{
name = top;
position = "{526, 500}";
}
);
layerId = "9AB624CD-9C19-4372-9845-4C197A276709";
paths = (
{
closed = 1;
nodes = (
"17 -297 OFFCURVE",
"184 -492 OFFCURVE",
"526 -492 CURVE SMOOTH",
"877 -492 OFFCURVE",
"961 -400 OFFCURVE",
"981 -163 CURVE SMOOTH",
"987 -94 OFFCURVE",
"987 -12 OFFCURVE",
"987 84 CURVE SMOOTH",
"984 510 OFFCURVE",
"985 706 OFFCURVE",
"985 845 CURVE SMOOTH",
"986 930 OFFCURVE",
"986 994 OFFCURVE",
"985 1075 CURVE",
"925 1075 LINE",
"926 996 OFFCURVE",
"926 934 OFFCURVE",
"925 853 CURVE SMOOTH",
"925 713 OFFCURVE",
"924 518 OFFCURVE",
"927 84 CURVE SMOOTH",
"927 -7 OFFCURVE",
"927 -83 OFFCURVE",
"922 -146 CURVE SMOOTH",
"906 -373 OFFCURVE",
"836 -432 OFFCURVE",
"526 -432 CURVE SMOOTH",
"220 -432 OFFCURVE",
"79 -267 OFFCURVE",
"103 65 CURVE",
"43 69 LINE"
);
}
);
width = 1027;
}
);
unicode = 0644;
},
{
glyphname = "lam-ar.fina";
layers = (
{
anchors = (
{
name = "#entry";
position = "{1075, 0}";
}
);
components = (
{
name = "lam-ar";
}
);
layerId = "7C6EC3B8-53E3-46D5-865A-ED8DFE2E3A2E";
paths = (
{
closed = 1;
nodes = (
"1075 30 LINE",
"995 30 OFFCURVE",
"986 73 OFFCURVE",
"986 219 CURVE",
"957 215 LINE",
"961 51 OFFCURVE",
"975 0 OFFCURVE",
"1075 0 CURVE"
);
}
);
width = 1075;
},
{
anchors = (
{
name = "#entry";
position = "{1180, 0}";
}
);
components = (
{
name = "lam-ar";
}
);
layerId = "EA99615A-DD74-4F65-B9DC-480CDB683AEE";
paths = (
{
closed = 1;
nodes = (
"1180 90 LINE",
"1014 90 OFFCURVE",
"971 116 OFFCURVE",
"970 279 CURVE",
"881 270 LINE",
"880 86 OFFCURVE",
"922 0 OFFCURVE",
"1180 0 CURVE"
);
}
);
width = 1180;
},
{
anchors = (
{
name = "#entry";
position = "{1103, 0}";
}
);
components = (
{
name = "lam-ar";
}
);
layerId = "9AB624CD-9C19-4372-9845-4C197A276709";
paths = (
{
closed = 1;
nodes = (
"1103 60 LINE",
"1019 60 OFFCURVE",
"990 84 OFFCURVE",
"986 164 CURVE",
"927 162 LINE",
"932 48 OFFCURVE",
"985 0 OFFCURVE",
"1103 0 CURVE"
);
}
);
width = 1103;
}
);
unicode = FEDE;
},
{
glyphname = "lam-ar.medi";
layers = (
{
anchors = (
{
name = "#entry";
position = "{296, -1}";
},
{
name = "#exit";
position = "{0, 0}";
},
{
name = bottom;
position = "{162, 0}";
},
{
name = top;
position = "{167, 1041}";
}
);
layerId = "7C6EC3B8-53E3-46D5-865A-ED8DFE2E3A2E";
paths = (
{
closed = 1;
nodes = (
"297 30 LINE",
"162 30 OFFCURVE",
"172 98 OFFCURVE",
"172 202 CURVE SMOOTH",
"172 602 OFFCURVE",
"175 937 OFFCURVE",
"179 1039 CURVE",
"149 1041 LINE",
"145 937 OFFCURVE",
"142 602 OFFCURVE",
"142 202 CURVE SMOOTH",
"142 82 OFFCURVE",
"129 0 OFFCURVE",
"297 0 CURVE"
);
},
{
closed = 1;
nodes = (
"141 2 OFFCURVE",
"172 1 OFFCURVE",
"172 226 CURVE",
"142 226 LINE",
"142 29 OFFCURVE",
"120 31 OFFCURVE",
"0 30 CURVE",
"0 0 LINE"
);
}
);
width = 297;
},
{
anchors = (
{
name = "#entry";
position = "{498, 0}";
},
{
name = "#exit";
position = "{0, 0}";
},
{
name = bottom;
position = "{254, 0}";
},
{
name = top;
position = "{251, 1083}";
}
);
layerId = "EA99615A-DD74-4F65-B9DC-480CDB683AEE";
paths = (
{
closed = 1;
nodes = (
"498 90 LINE",
"370 90 OFFCURVE",
"308 140 OFFCURVE",
"308 247 CURVE SMOOTH",
"308 646 OFFCURVE",
"309 683 OFFCURVE",
"298 1085 CURVE",
"208 1083 LINE",
"219 683 OFFCURVE",
"218 648 OFFCURVE",
"218 247 CURVE SMOOTH",
"218 91 OFFCURVE",
"319 0 OFFCURVE",
"498 0 CURVE"
);
},
{
closed = 1;
nodes = (
"197 0 OFFCURVE",
"308 108 OFFCURVE",
"308 301 CURVE",
"218 301 LINE",
"218 162 OFFCURVE",
"143 90 OFFCURVE",
"0 90 CURVE",
"0 0 LINE"
);
}
);
width = 498;
},
{
anchors = (
{
name = "#entry";
position = "{378, 0}";
},
{
name = "#exit";
position = "{0, 0}";
},
{
name = bottom;
position = "{193, 0}";
},
{
name = top;
position = "{180, 1000}";
}
);
layerId = "9AB624CD-9C19-4372-9845-4C197A276709";
paths = (
{
closed = 1;
nodes = (
"378 60 LINE",
"248 60 OFFCURVE",
"219 96 OFFCURVE",
"218 187 CURVE SMOOTH",
"214 586 OFFCURVE",
"217 624 OFFCURVE",
"208 996 CURVE",
"148 994 LINE",
"157 622 OFFCURVE",
"155 586 OFFCURVE",
"158 187 CURVE SMOOTH",
"159 64 OFFCURVE",
"193 0 OFFCURVE",
"378 0 CURVE"
);
},
{
closed = 1;
nodes = (
"142 0 OFFCURVE",
"218 2 OFFCURVE",
"218 211 CURVE",
"158 211 LINE",
"158 60 OFFCURVE",
"142 60 OFFCURVE",
"0 60 CURVE",
"0 0 LINE"
);
}
);
width = 378;
}
);
unicode = FEE0;
},
{
glyphname = "lam-ar.init";
layers = (
{
anchors = (
{
name = "#entry";
position = "{0, 0}";
},
{
name = bottom;
position = "{113, 0}";
},
{
name = top;
position = "{115, 1000}";
}
);
layerId = "7C6EC3B8-53E3-46D5-865A-ED8DFE2E3A2E";
paths = (
{
closed = 1;
nodes = (
"187 0 OFFCURVE",
"211 -5 OFFCURVE",
"211 420 CURVE SMOOTH",
"211 560 OFFCURVE",
"208 747 OFFCURVE",
"208 996 CURVE",
"178 996 LINE",
"178 760 OFFCURVE",
"180 582 OFFCURVE",
"180 447 CURVE SMOOTH",
"180 16 OFFCURVE",
"161 30 OFFCURVE",
"0 30 CURVE",
"0 0 LINE"
);
}
);
width = 251;
},
{
anchors = (
{
name = "#entry";
position = "{0, 0}";
},
{
name = bottom;
position = "{113, 0}";
},
{
name = top;
position = "{160, 1000}";
}
);
layerId = "EA99615A-DD74-4F65-B9DC-480CDB683AEE";
paths = (
{
closed = 1;
nodes = (
"354 0 OFFCURVE",
"384 86 OFFCURVE",
"384 637 CURVE SMOOTH",
"384 751 OFFCURVE",
"383 854 OFFCURVE",
"383 1011 CURVE",
"293 1011 LINE",
"293 859 OFFCURVE",
"294 761 OFFCURVE",
"294 654 CURVE SMOOTH",
"294 93 OFFCURVE",
"272 90 OFFCURVE",
"0 90 CURVE",
"0 0 LINE"
);
}
);
width = 424;
},
{
anchors = (
{
name = "#entry";
position = "{0, 0}";
},
{
name = bottom;
position = "{113, 0}";
},
{
name = top;
position = "{160, 1000}";
}
);
layerId = "9AB624CD-9C19-4372-9845-4C197A276709";
paths = (
{
closed = 1;
nodes = (
"299 0 OFFCURVE",
"324 165 OFFCURVE",
"324 661 CURVE SMOOTH",
"324 761 OFFCURVE",
"323 874 OFFCURVE",
"323 1001 CURVE",
"263 1001 LINE",
"263 884 OFFCURVE",
"264 781 OFFCURVE",
"264 690 CURVE SMOOTH",
"264 185 OFFCURVE",
"245 60 OFFCURVE",
"0 60 CURVE",
"0 0 LINE"
);
}
);
width = 324;
}
);
unicode = FEDF;
},
{
glyphname = "meem-ar";
layers = (
{
anchors = (
{
name = "#entry";
position = "{473, 0}";
},
{
name = bottom;
position = "{473, 0}";
},
{
name = top;
position = "{473, 497}";
}
);
layerId = "7C6EC3B8-53E3-46D5-865A-ED8DFE2E3A2E";
paths = (
{
closed = 1;
nodes = (
"81 -610 LINE",
"60 -484 OFFCURVE",
"50 -344 OFFCURVE",
"50 -197 CURVE SMOOTH",
"50 266 OFFCURVE",
"180 468 OFFCURVE",
"474 467 CURVE",
"474 497 LINE",
"161 498 OFFCURVE",
"20 280 OFFCURVE",
"20 -197 CURVE SMOOTH",
"20 -347 OFFCURVE",
"31 -488 OFFCURVE",
"51 -614 CURVE"
);
},
{
closed = 1;
nodes = (
"658 0 OFFCURVE",
"730 69 OFFCURVE",
"730 248 CURVE SMOOTH",
"730 418 OFFCURVE",
"647 498 OFFCURVE",
"473 497 CURVE SMOOTH",
"309 496 OFFCURVE",
"227 412 OFFCURVE",
"228 248 CURVE SMOOTH",
"229 89 OFFCURVE",
"317 0 OFFCURVE",
"473 0 CURVE SMOOTH"
);
},
{
closed = 1;
nodes = (
"333 27 OFFCURVE",
"259 102 OFFCURVE",
"258 245 CURVE SMOOTH",
"257 393 OFFCURVE",
"326 463 OFFCURVE",
"473 464 CURVE SMOOTH",
"630 465 OFFCURVE",
"700 398 OFFCURVE",
"700 245 CURVE SMOOTH",
"700 83 OFFCURVE",
"641 27 OFFCURVE",
"473 27 CURVE SMOOTH"
);
}
);
width = 750;
},
{
anchors = (
{
name = "#entry";
position = "{891, 0}";
},
{
name = bottom;
position = "{594, 0}";
},
{
name = top;
position = "{598, 498}";
}
);
layerId = "EA99615A-DD74-4F65-B9DC-480CDB683AEE";
paths = (
{
closed = 1;
nodes = (
"161 -632 LINE",
"140 -497 OFFCURVE",
"130 -354 OFFCURVE",
"130 -212 CURVE SMOOTH",
"130 276 OFFCURVE",
"278 498 OFFCURVE",
"599 497 CURVE",
"599 587 LINE",
"223 588 OFFCURVE",
"40 324 OFFCURVE",
"40 -212 CURVE SMOOTH",
"40 -359 OFFCURVE",
"51 -507 OFFCURVE",
"71 -646 CURVE"
);
},
{
closed = 1;
nodes = (
"798 -1 OFFCURVE",
"896 94 OFFCURVE",
"896 293 CURVE SMOOTH",
"896 484 OFFCURVE",
"790 587 OFFCURVE",
"594 587 CURVE SMOOTH",
"407 587 OFFCURVE",
"303 481 OFFCURVE",
"303 293 CURVE SMOOTH",
"303 111 OFFCURVE",
"414 -1 OFFCURVE",
"594 -1 CURVE SMOOTH"
);
},
{
closed = 1;
nodes = (
"464 89 OFFCURVE",
"393 161 OFFCURVE",
"393 293 CURVE SMOOTH",
"393 432 OFFCURVE",
"458 497 OFFCURVE",
"594 497 CURVE SMOOTH",
"740 497 OFFCURVE",
"806 433 OFFCURVE",
"806 293 CURVE SMOOTH",
"806 145 OFFCURVE",
"748 89 OFFCURVE",
"594 89 CURVE SMOOTH"
);
}
);
width = 936;
},
{
anchors = (
{
name = "#entry";
position = "{529, 0}";
},
{
name = bottom;
position = "{529, 0}";
},
{
name = top;
position = "{529, 523}";
}
);
layerId = "9AB624CD-9C19-4372-9845-4C197A276709";
paths = (
{
closed = 1;
nodes = (
"121 -631 LINE",
"100 -502 OFFCURVE",
"90 -361 OFFCURVE",
"90 -216 CURVE SMOOTH",
"90 256 OFFCURVE",
"227 464 OFFCURVE",
"529 463 CURVE",
"529 523 LINE",
"188 524 OFFCURVE",
"30 287 OFFCURVE",
"30 -216 CURVE SMOOTH",
"30 -363 OFFCURVE",
"41 -507 OFFCURVE",
"61 -641 CURVE"
);
},
{
closed = 1;
nodes = (
"715 0 OFFCURVE",
"798 80 OFFCURVE",
"798 261 CURVE SMOOTH",
"798 434 OFFCURVE",
"705 524 OFFCURVE",
"529 523 CURVE SMOOTH",
"360 522 OFFCURVE",
"269 430 OFFCURVE",
"270 261 CURVE SMOOTH",
"271 97 OFFCURVE",
"368 0 OFFCURVE",
"529 0 CURVE SMOOTH"
);
},
{
closed = 1;
nodes = (
"401 60 OFFCURVE",
"331 131 OFFCURVE",
"330 261 CURVE SMOOTH",
"329 396 OFFCURVE",
"394 462 OFFCURVE",
"529 463 CURVE SMOOTH",
"672 464 OFFCURVE",
"738 400 OFFCURVE",
"738 261 CURVE SMOOTH",
"738 114 OFFCURVE",
"682 60 OFFCURVE",
"529 60 CURVE SMOOTH"
);
}
);
width = 828;
}
);
unicode = 0645;
},
{
glyphname = "meem-ar.fina";
layers = (
{
anchors = (
{
name = "#entry";
position = "{811, 0}";
},
{
name = bottom;
position = "{473, 0}";
},
{
name = top;
position = "{473, 497}";
}
);
layerId = "7C6EC3B8-53E3-46D5-865A-ED8DFE2E3A2E";
paths = (
{
closed = 1;
nodes = (
"81 -610 LINE",
"60 -484 OFFCURVE",
"50 -344 OFFCURVE",
"50 -197 CURVE SMOOTH",
"50 151 OFFCURVE",
"123 351 OFFCURVE",
"284 429 CURVE",
"246 388 OFFCURVE",
"228 327 OFFCURVE",
"228 248 CURVE SMOOTH",
"229 89 OFFCURVE",
"317 0 OFFCURVE",
"473 0 CURVE SMOOTH",
"592 0 OFFCURVE",
"664 28 OFFCURVE",
"700 96 CURVE",
"713 25 OFFCURVE",
"741 0 OFFCURVE",
"811 0 CURVE",
"811 30 LINE",
"710 30 OFFCURVE",
"730 109 OFFCURVE",
"730 248 CURVE SMOOTH",
"730 418 OFFCURVE",
"647 498 OFFCURVE",
"473 497 CURVE SMOOTH",
"161 498 OFFCURVE",
"20 280 OFFCURVE",
"20 -197 CURVE SMOOTH",
"20 -347 OFFCURVE",
"31 -488 OFFCURVE",
"51 -614 CURVE"
);
},
{
closed = 1;
nodes = (
"333 27 OFFCURVE",
"259 102 OFFCURVE",
"258 245 CURVE SMOOTH",
"257 393 OFFCURVE",
"326 463 OFFCURVE",
"473 464 CURVE SMOOTH",
"630 465 OFFCURVE",
"700 398 OFFCURVE",
"700 245 CURVE SMOOTH",
"700 83 OFFCURVE",
"641 27 OFFCURVE",
"473 27 CURVE SMOOTH"
);
}
);
width = 811;
},
{
anchors = (
{
name = "#entry";
position = "{1113, 0}";
},
{
name = bottom;
position = "{594, -1}";
},
{
name = top;
position = "{599, 587}";
}
);
hints = (
{
horizontal = 1;
place = "{0, 91}";
type = Stem;
},
{
horizontal = 1;
place = "{515, 90}";
type = Stem;
},
{
place = "{46, 88}";
type = Stem;
},
{
place = "{215, 90}";
type = Stem;
},
{
place = "{733, 90}";
type = Stem;
}
);
layerId = "EA99615A-DD74-4F65-B9DC-480CDB683AEE";
paths = (
{
closed = 1;
nodes = (
"161 -632 LINE",
"140 -497 OFFCURVE",
"130 -354 OFFCURVE",
"130 -212 CURVE SMOOTH",
"130 101 OFFCURVE",
"191 305 OFFCURVE",
"320 410 CURVE",
"309 376 OFFCURVE",
"303 337 OFFCURVE",
"303 293 CURVE SMOOTH",
"303 111 OFFCURVE",
"414 -1 OFFCURVE",
"594 -1 CURVE SMOOTH",
"715 -1 OFFCURVE",
"799 32 OFFCURVE",
"847 101 CURVE",
"883 41 OFFCURVE",
"957 0 OFFCURVE",
"1113 0 CURVE",
"1113 90 LINE",
"940 90 OFFCURVE",
"896 132 OFFCURVE",
"896 293 CURVE SMOOTH",
"896 482 OFFCURVE",
"792 587 OFFCURVE",
"599 587 CURVE SMOOTH",
"223 587 OFFCURVE",
"40 334 OFFCURVE",
"40 -212 CURVE SMOOTH",
"40 -359 OFFCURVE",
"51 -507 OFFCURVE",
"71 -646 CURVE"
);
},
{
closed = 1;
nodes = (
"464 89 OFFCURVE",
"393 161 OFFCURVE",
"393 293 CURVE SMOOTH",
"393 429 OFFCURVE",
"455 494 OFFCURVE",
"584 497 CURVE SMOOTH",
"736 497 OFFCURVE",
"806 440 OFFCURVE",
"806 293 CURVE SMOOTH",
"806 145 OFFCURVE",
"748 89 OFFCURVE",
"594 89 CURVE SMOOTH"
);
}
);
width = 1113;
},
{
anchors = (
{
name = "#entry";
position = "{876, 0}";
},
{
name = bottom;
position = "{499, 0}";
},
{
name = top;
position = "{499, 523}";
}
);
layerId = "9AB624CD-9C19-4372-9845-4C197A276709";
paths = (
{
closed = 1;
nodes = (
"91 -631 LINE",
"70 -502 OFFCURVE",
"60 -361 OFFCURVE",
"60 -216 CURVE SMOOTH",
"60 114 OFFCURVE",
"127 314 OFFCURVE",
"270 405 CURVE",
"250 366 OFFCURVE",
"240 318 OFFCURVE",
"240 261 CURVE SMOOTH",
"240 97 OFFCURVE",
"338 0 OFFCURVE",
"499 0 CURVE SMOOTH",
"603 0 OFFCURVE",
"674 25 OFFCURVE",
"717 78 CURVE",
"742 24 OFFCURVE",
"793 0 OFFCURVE",
"876 0 CURVE",
"876 60 LINE",
"741 60 OFFCURVE",
"768 153 OFFCURVE",
"768 261 CURVE SMOOTH",
"768 434 OFFCURVE",
"675 524 OFFCURVE",
"499 523 CURVE SMOOTH",
"158 521 OFFCURVE",
"0 287 OFFCURVE",
"0 -216 CURVE SMOOTH",
"0 -363 OFFCURVE",
"11 -507 OFFCURVE",
"31 -641 CURVE"
);
},
{
closed = 1;
nodes = (
"371 60 OFFCURVE",
"301 131 OFFCURVE",
"300 261 CURVE SMOOTH",
"299 396 OFFCURVE",
"364 462 OFFCURVE",
"499 463 CURVE SMOOTH",
"642 464 OFFCURVE",
"708 400 OFFCURVE",
"708 261 CURVE SMOOTH",
"708 112 OFFCURVE",
"650 60 OFFCURVE",
"499 60 CURVE SMOOTH"
);
}
);
width = 876;
}
);
unicode = FEE2;
},
{
glyphname = "meem-ar.init";
layers = (
{
anchors = (
{
name = "#entry";
position = "{610, 0}";
},
{
name = "#exit";
position = "{0, 0}";
},
{
name = bottom;
position = "{359, 0}";
},
{
name = top;
position = "{367, 684}";
}
);
layerId = "7C6EC3B8-53E3-46D5-865A-ED8DFE2E3A2E";
paths = (
{
closed = 1;
nodes = (
"84 0 OFFCURVE",
"124 43 OFFCURVE",
"141 107 CURVE",
"173 32 OFFCURVE",
"242 0 OFFCURVE",
"359 0 CURVE SMOOTH",
"540 0 OFFCURVE",
"612 70 OFFCURVE",
"612 244 CURVE SMOOTH",
"612 415 OFFCURVE",
"490 499 OFFCURVE",
"367 499 CURVE SMOOTH",
"272 499 OFFCURVE",
"177 449 OFFCURVE",
"137 350 CURVE",
"116 499 LINE",
"86 495 LINE",
"99 398 OFFCURVE",
"113 311 OFFCURVE",
"118 239 CURVE SMOOTH",
"118 110 OFFCURVE",
"110 30 OFFCURVE",
"0 30 CURVE",
"0 0 LINE"
);
},
{
closed = 1;
nodes = (
"199 30 OFFCURVE",
"158 86 OFFCURVE",
"148 246 CURVE SMOOTH",
"149 391 OFFCURVE",
"260 467 OFFCURVE",
"369 467 CURVE SMOOTH",
"476 467 OFFCURVE",
"582 394 OFFCURVE",
"582 244 CURVE SMOOTH",
"582 91 OFFCURVE",
"518 30 OFFCURVE",
"359 30 CURVE SMOOTH"
);
}
);
width = 652;
},
{
anchors = (
{
name = "#entry";
position = "{745, 0}";
},
{
name = "#exit";
position = "{0, 0}";
},
{
name = bottom;
position = "{546, 0}";
},
{
name = top;
position = "{546, 749}";
}
);
layerId = "EA99615A-DD74-4F65-B9DC-480CDB683AEE";
paths = (
{
closed = 1;
nodes = (
"157 0 OFFCURVE",
"251 31 OFFCURVE",
"299 122 CURVE",
"347 44 OFFCURVE",
"433 0 OFFCURVE",
"546 0 CURVE SMOOTH",
"750 0 OFFCURVE",
"848 94 OFFCURVE",
"848 294 CURVE SMOOTH",
"848 485 OFFCURVE",
"742 588 OFFCURVE",
"546 588 CURVE SMOOTH",
"453 588 OFFCURVE",
"380 562 OFFCURVE",
"331 512 CURVE",
"324 581 LINE",
"234 571 LINE",
"246 459 OFFCURVE",
"253 372 OFFCURVE",
"250 305 CURVE SMOOTH",
"244 126 OFFCURVE",
"176 90 OFFCURVE",
"0 90 CURVE",
"0 0 LINE"
);
},
{
closed = 1;
nodes = (
"416 90 OFFCURVE",
"345 162 OFFCURVE",
"345 294 CURVE SMOOTH",
"345 433 OFFCURVE",
"410 498 OFFCURVE",
"546 498 CURVE SMOOTH",
"692 498 OFFCURVE",
"758 434 OFFCURVE",
"758 294 CURVE SMOOTH",
"758 146 OFFCURVE",
"700 90 OFFCURVE",
"546 90 CURVE SMOOTH"
);
}
);
width = 891;
},
{
anchors = (
{
name = "#entry";
position = "{610, 0}";
},
{
name = "#exit";
position = "{0, 0}";
},
{
name = bottom;
position = "{373, 0}";
},
{
name = top;
position = "{373, 668}";
}
);
layerId = "9AB624CD-9C19-4372-9845-4C197A276709";
paths = (
{
closed = 1;
nodes = (
"81 0 OFFCURVE",
"136 34 OFFCURVE",
"166 97 CURVE",
"196 22 OFFCURVE",
"270 0 OFFCURVE",
"373 0 CURVE SMOOTH",
"549 0 OFFCURVE",
"626 74 OFFCURVE",
"626 244 CURVE SMOOTH",
"626 395 OFFCURVE",
"525 497 OFFCURVE",
"383 497 CURVE SMOOTH",
"295 497 OFFCURVE",
"221 457 OFFCURVE",
"176 393 CURVE",
"160 499 LINE",
"100 491 LINE",
"112 398 OFFCURVE",
"130 316 OFFCURVE",
"132 249 CURVE SMOOTH",
"131 119 OFFCURVE",
"98 60 OFFCURVE",
"0 60 CURVE",
"0 0 LINE"
);
},
{
closed = 1;
nodes = (
"236 60 OFFCURVE",
"202 96 OFFCURVE",
"192 247 CURVE SMOOTH",
"193 358 OFFCURVE",
"274 437 OFFCURVE",
"383 437 CURVE SMOOTH",
"491 437 OFFCURVE",
"566 360 OFFCURVE",
"566 244 CURVE SMOOTH",
"566 108 OFFCURVE",
"516 60 OFFCURVE",
"373 60 CURVE SMOOTH"
);
}
);
width = 757;
}
);
unicode = FEE3;
},
{
glyphname = "noonghunna-ar";
layers = (
{
anchors = (
{
name = "#entry";
position = "{828, 0}";
},
{
name = bottom;
position = "{469, -515}";
},
{
name = top;
position = "{451, 330}";
}
);
layerId = "7C6EC3B8-53E3-46D5-865A-ED8DFE2E3A2E";
paths = (
{
closed = 1;
nodes = (
"944 -505 OFFCURVE",
"831 65 OFFCURVE",
"780 502 CURVE",
"750 498 LINE",
"801 61 OFFCURVE",
"908 -475 OFFCURVE",
"469 -485 CURVE SMOOTH",
"-8 -496 OFFCURVE",
"67 -50 OFFCURVE",
"87 53 CURVE",
"57 59 LINE",
"37 -44 OFFCURVE",
"-44 -526 OFFCURVE",
"469 -515 CURVE SMOOTH"
);
}
);
width = 879;
},
{
anchors = (
{
name = "#entry";
position = "{936, 0}";
},
{
name = bottom;
position = "{542, -554}";
},
{
name = top;
position = "{481, 317}";
}
);
layerId = "EA99615A-DD74-4F65-B9DC-480CDB683AEE";
paths = (
{
closed = 1;
nodes = (
"1063 -548 OFFCURVE",
"939 73 OFFCURVE",
"889 506 CURVE",
"799 496 LINE",
"851 59 OFFCURVE",
"953 -460 OFFCURVE",
"533 -470 CURVE SMOOTH",
"231 -477 OFFCURVE",
"99 -292 OFFCURVE",
"166 50 CURVE",
"78 68 LINE",
"0 -329 OFFCURVE",
"173 -569 OFFCURVE",
"535 -560 CURVE SMOOTH"
);
}
);
width = 978;
},
{
anchors = (
{
name = "#entry";
position = "{805, 0}";
},
{
name = bottom;
position = "{470, -515}";
},
{
name = top;
position = "{454, 317}";
}
);
layerId = "9AB624CD-9C19-4372-9845-4C197A276709";
paths = (
{
closed = 1;
nodes = (
"944 -504 OFFCURVE",
"831 66 OFFCURVE",
"780 501 CURVE",
"720 495 LINE",
"771 56 OFFCURVE",
"872 -446 OFFCURVE",
"468 -455 CURVE SMOOTH",
"174 -462 OFFCURVE",
"53 -281 OFFCURVE",
"116 47 CURVE",
"58 59 LINE",
"-14 -308 OFFCURVE",
"136 -523 OFFCURVE",
"470 -515 CURVE SMOOTH"
);
}
);
width = 876;
}
);
unicode = 06BA;
},
{
glyphname = "noonghunna-ar.fina";
layers = (
{
anchors = (
{
name = "#entry";
position = "{909, 0}";
},
{
name = bottom;
position = "{452, -515}";
},
{
name = top;
position = "{399, 268}";
}
);
layerId = "7C6EC3B8-53E3-46D5-865A-ED8DFE2E3A2E";
paths = (
{
closed = 1;
nodes = (
"755 -515 OFFCURVE",
"829 -301 OFFCURVE",
"829 -32 CURVE SMOOTH",
"829 -13 OFFCURVE",
"829 6 OFFCURVE",
"828 25 CURVE",
"846 7 OFFCURVE",
"871 0 OFFCURVE",
"909 0 CURVE",
"909 30 LINE",
"855 30 OFFCURVE",
"833 50 OFFCURVE",
"824 107 CURVE SMOOTH",
"815 239 OFFCURVE",
"795 376 OFFCURVE",
"780 502 CURVE",
"750 498 LINE",
"765 372 OFFCURVE",
"784 237 OFFCURVE",
"794 109 CURVE SMOOTH",
"798 61 OFFCURVE",
"800 13 OFFCURVE",
"800 -32 CURVE SMOOTH",
"800 -283 OFFCURVE",
"733 -479 OFFCURVE",
"469 -485 CURVE SMOOTH",
"132 -493 OFFCURVE",
"71 -272 OFFCURVE",
"71 -106 CURVE SMOOTH",
"71 -37 OFFCURVE",
"81 23 OFFCURVE",
"87 53 CURVE",
"57 59 LINE",
"51 29 OFFCURVE",
"40 -33 OFFCURVE",
"40 -106 CURVE SMOOTH",
"40 -280 OFFCURVE",
"103 -515 OFFCURVE",
"452 -515 CURVE SMOOTH"
);
}
);
width = 909;
},
{
anchors = (
{
name = "#entry";
position = "{1134, 0}";
},
{
name = bottom;
position = "{535, -560}";
},
{
name = top;
position = "{482, 305}";
}
);
layerId = "EA99615A-DD74-4F65-B9DC-480CDB683AEE";
paths = (
{
closed = 1;
nodes = (
"842 -553 OFFCURVE",
"929 -340 OFFCURVE",
"938 -77 CURVE SMOOTH",
"939 -40 OFFCURVE",
"938 -2 OFFCURVE",
"937 37 CURVE",
"981 14 OFFCURVE",
"1044 0 OFFCURVE",
"1134 0 CURVE",
"1134 90 LINE",
"973 90 OFFCURVE",
"937 124 OFFCURVE",
"921 240 CURVE SMOOTH",
"921 241 OFFCURVE",
"894 462 OFFCURVE",
"889 506 CURVE",
"799 496 LINE",
"809 410 OFFCURVE",
"821 321 OFFCURVE",
"831 233 CURVE SMOOTH",
"843 129 OFFCURVE",
"851 27 OFFCURVE",
"848 -66 CURVE SMOOTH",
"842 -293 OFFCURVE",
"773 -464 OFFCURVE",
"533 -470 CURVE SMOOTH",
"271 -476 OFFCURVE",
"137 -338 OFFCURVE",
"150 -78 CURVE SMOOTH",
"152 -38 OFFCURVE",
"157 5 OFFCURVE",
"166 50 CURVE",
"78 68 LINE",
"69 21 OFFCURVE",
"63 -23 OFFCURVE",
"61 -66 CURVE SMOOTH",
"43 -382 OFFCURVE",
"216 -568 OFFCURVE",
"535 -560 CURVE SMOOTH"
);
}
);
width = 1134;
},
{
anchors = (
{
name = "#entry";
position = "{935, 0}";
},
{
name = bottom;
position = "{470, -515}";
},
{
name = top;
position = "{437, 261}";
}
);
layerId = "9AB624CD-9C19-4372-9845-4C197A276709";
paths = (
{
closed = 1;
nodes = (
"740 -509 OFFCURVE",
"820 -320 OFFCURVE",
"829 -79 CURVE SMOOTH",
"830 -47 OFFCURVE",
"830 -13 OFFCURVE",
"829 21 CURVE",
"856 7 OFFCURVE",
"891 0 OFFCURVE",
"935 0 CURVE",
"935 60 LINE",
"837 60 OFFCURVE",
"829 82 OFFCURVE",
"818 179 CURVE SMOOTH",
"807 291 OFFCURVE",
"792 403 OFFCURVE",
"780 501 CURVE",
"720 495 LINE",
"732 388 OFFCURVE",
"748 277 OFFCURVE",
"758 171 CURVE SMOOTH",
"764 84 OFFCURVE",
"767 6 OFFCURVE",
"765 -64 CURVE SMOOTH",
"759 -311 OFFCURVE",
"693 -450 OFFCURVE",
"468 -455 CURVE SMOOTH",
"209 -461 OFFCURVE",
"84 -322 OFFCURVE",
"101 -64 CURVE SMOOTH",
"104 -29 OFFCURVE",
"108 8 OFFCURVE",
"116 47 CURVE",
"58 59 LINE",
"50 19 OFFCURVE",
"45 -19 OFFCURVE",
"42 -55 CURVE SMOOTH",
"21 -352 OFFCURVE",
"172 -522 OFFCURVE",
"470 -515 CURVE SMOOTH"
);
}
);
width = 935;
}
);
unicode = FB9F;
},
{
glyphname = "heh-ar";
layers = (
{
anchors = (
{
name = bottom;
position = "{256, 0}";
},
{
name = top;
position = "{324, 542}";
}
);
layerId = "7C6EC3B8-53E3-46D5-865A-ED8DFE2E3A2E";
paths = (
{
closed = 1;
nodes = (
"651 0 OFFCURVE",
"594 542 OFFCURVE",
"324 542 CURVE SMOOTH",
"-1 542 OFFCURVE",
"-77 0 OFFCURVE",
"256 0 CURVE SMOOTH"
);
},
{
closed = 1;
nodes = (
"-35 30 OFFCURVE",
"35 512 OFFCURVE",
"324 512 CURVE SMOOTH",
"556 512 OFFCURVE",
"609 30 OFFCURVE",
"256 30 CURVE SMOOTH"
);
}
);
width = 579;
},
{
anchors = (
{
name = bottom;
position = "{309, -9}";
},
{
name = top;
position = "{386, 612}";
}
);
layerId = "EA99615A-DD74-4F65-B9DC-480CDB683AEE";
paths = (
{
closed = 1;
nodes = (
"763 0 OFFCURVE",
"696 612 OFFCURVE",
"386 612 CURVE SMOOTH",
"18 612 OFFCURVE",
"-69 0 OFFCURVE",
"316 0 CURVE SMOOTH"
);
},
{
closed = 1;
nodes = (
"77 100 OFFCURVE",
"137 512 OFFCURVE",
"386 512 CURVE SMOOTH",
"575 512 OFFCURVE",
"621 100 OFFCURVE",
"316 100 CURVE SMOOTH"
);
}
);
width = 648;
},
{
anchors = (
{
name = bottom;
position = "{255, 6}";
},
{
name = top;
position = "{327, 576}";
}
);
layerId = "9AB624CD-9C19-4372-9845-4C197A276709";
paths = (
{
closed = 1;
nodes = (
"670 6 OFFCURVE",
"609 576 OFFCURVE",
"327 576 CURVE SMOOTH",
"-15 576 OFFCURVE",
"-95 6 OFFCURVE",
"255 6 CURVE SMOOTH"
);
},
{
closed = 1;
nodes = (
"-4 69 OFFCURVE",
"61 513 OFFCURVE",
"327 513 CURVE SMOOTH",
"531 513 OFFCURVE",
"582 69 OFFCURVE",
"255 69 CURVE SMOOTH"
);
}
);
width = 600;
}
);
unicode = 0647;
},
{
glyphname = "heh-ar.fina";
layers = (
{
anchors = (
{
name = "#entry";
position = "{782, 0}";
},
{
name = bottom;
position = "{358, -1}";
},
{
name = top;
position = "{361, 503}";
}
);
layerId = "7C6EC3B8-53E3-46D5-865A-ED8DFE2E3A2E";
paths = (
{
closed = 1;
nodes = (
"513 -1 OFFCURVE",
"584 37 OFFCURVE",
"609 153 CURVE",
"635 34 OFFCURVE",
"686 0 OFFCURVE",
"782 0 CURVE",
"782 30 LINE",
"644 30 OFFCURVE",
"616 109 OFFCURVE",
"612 539 CURVE",
"582 539 LINE",
"584 415 LINE",
"545 475 OFFCURVE",
"471 503 OFFCURVE",
"361 503 CURVE SMOOTH",
"194 503 OFFCURVE",
"54 372 OFFCURVE",
"54 216 CURVE SMOOTH",
"54 99 OFFCURVE",
"195 -1 OFFCURVE",
"358 -1 CURVE SMOOTH"
);
},
{
closed = 1;
nodes = (
"212 29 OFFCURVE",
"84 117 OFFCURVE",
"84 216 CURVE SMOOTH",
"84 355 OFFCURVE",
"211 473 OFFCURVE",
"361 473 CURVE SMOOTH",
"521 473 OFFCURVE",
"589 413 OFFCURVE",
"589 275 CURVE SMOOTH",
"589 80 OFFCURVE",
"541 29 OFFCURVE",
"358 29 CURVE SMOOTH"
);
}
);
width = 782;
},
{
anchors = (
{
name = "#entry";
position = "{895, 0}";
},
{
name = bottom;
position = "{362, -1}";
},
{
name = top;
position = "{364, 588}";
}
);
layerId = "EA99615A-DD74-4F65-B9DC-480CDB683AEE";
paths = (
{
closed = 1;
nodes = (
"501 -1 OFFCURVE",
"587 38 OFFCURVE",
"630 128 CURVE",
"679 35 OFFCURVE",
"762 0 OFFCURVE",
"895 0 CURVE",
"895 90 LINE",
"694 90 OFFCURVE",
"655 181 OFFCURVE",
"655 608 CURVE",
"565 608 LINE",
"566 533 LINE",
"516 569 OFFCURVE",
"448 588 OFFCURVE",
"364 588 CURVE SMOOTH",
"180 588 OFFCURVE",
"25 441 OFFCURVE",
"25 264 CURVE SMOOTH",
"25 118 OFFCURVE",
"178 -1 OFFCURVE",
"362 -1 CURVE SMOOTH"
);
},
{
closed = 1;
nodes = (
"228 89 OFFCURVE",
"115 171 OFFCURVE",
"115 264 CURVE SMOOTH",
"115 391 OFFCURVE",
"229 498 OFFCURVE",
"364 498 CURVE SMOOTH",
"508 498 OFFCURVE",
"573 439 OFFCURVE",
"573 313 CURVE SMOOTH",
"573 140 OFFCURVE",
"524 89 OFFCURVE",
"362 89 CURVE SMOOTH"
);
}
);
width = 895;
},
{
anchors = (
{
name = "#entry";
position = "{882, 0}";
},
{
name = bottom;
position = "{352, -1}";
},
{
name = top;
position = "{355, 549}";
}
);
layerId = "9AB624CD-9C19-4372-9845-4C197A276709";
paths = (
{
closed = 1;
nodes = (
"499 -1 OFFCURVE",
"580 39 OFFCURVE",
"615 141 CURVE",
"659 32 OFFCURVE",
"740 0 OFFCURVE",
"882 0 CURVE",
"882 60 LINE",
"665 60 OFFCURVE",
"627 133 OFFCURVE",
"627 599 CURVE",
"567 599 LINE",
"568 481 LINE",
"521 526 OFFCURVE",
"450 549 OFFCURVE",
"355 549 CURVE SMOOTH",
"179 549 OFFCURVE",
"30 410 OFFCURVE",
"30 242 CURVE SMOOTH",
"30 108 OFFCURVE",
"178 -1 OFFCURVE",
"352 -1 CURVE SMOOTH"
);
},
{
closed = 1;
nodes = (
"211 59 OFFCURVE",
"90 144 OFFCURVE",
"90 242 CURVE SMOOTH",
"90 377 OFFCURVE",
"212 489 OFFCURVE",
"355 489 CURVE SMOOTH",
"507 489 OFFCURVE",
"575 429 OFFCURVE",
"575 296 CURVE SMOOTH",
"575 111 OFFCURVE",
"525 59 OFFCURVE",
"352 59 CURVE SMOOTH"
);
}
);
width = 882;
}
);
unicode = FEEA;
},
{
glyphname = "heh-ar.medi";
layers = (
{
anchors = (
{
name = "#entry";
position = "{716, 0}";
},
{
name = "#exit";
position = "{0, 0}";
},
{
name = bottom;
position = "{350, -497}";
},
{
name = top;
position = "{347, 549}";
}
);
layerId = "7C6EC3B8-53E3-46D5-865A-ED8DFE2E3A2E";
paths = (
{
closed = 1;
nodes = (
"444 -497 OFFCURVE",
"695 -361 OFFCURVE",
"695 -52 CURVE SMOOTH",
"695 45 OFFCURVE",
"671 149 OFFCURVE",
"624 260 CURVE SMOOTH",
"544 449 OFFCURVE",
"448 549 OFFCURVE",
"347 549 CURVE SMOOTH",
"232 549 OFFCURVE",
"128 414 OFFCURVE",
"128 259 CURVE SMOOTH",
"128 4 OFFCURVE",
"396 0 OFFCURVE",
"716 0 CURVE",
"716 30 LINE",
"417 32 OFFCURVE",
"158 25 OFFCURVE",
"158 259 CURVE SMOOTH",
"158 397 OFFCURVE",
"250 519 OFFCURVE",
"347 519 CURVE SMOOTH",
"433 519 OFFCURVE",
"521 425 OFFCURVE",
"596 248 CURVE SMOOTH",
"642 140 OFFCURVE",
"665 41 OFFCURVE",
"665 -52 CURVE SMOOTH",
"665 -343 OFFCURVE",
"436 -467 OFFCURVE",
"350 -467 CURVE SMOOTH",
"230 -467 OFFCURVE",
"134 -387 OFFCURVE",
"134 -286 CURVE SMOOTH",
"134 -198 OFFCURVE",
"197 -92 OFFCURVE",
"330 34 CURVE",
"310 56 LINE",
"171 -75 OFFCURVE",
"104 -189 OFFCURVE",
"104 -286 CURVE SMOOTH",
"104 -405 OFFCURVE",
"214 -497 OFFCURVE",
"350 -497 CURVE SMOOTH"
);
},
{
closed = 1;
nodes = (
"150 -1 OFFCURVE",
"216 -1 OFFCURVE",
"302 20 CURVE",
"298 50 LINE",
"212 29 OFFCURVE",
"150 29 OFFCURVE",
"0 30 CURVE",
"0 0 LINE"
);
}
);
width = 716;
},
{
anchors = (
{
name = "#entry";
position = "{936, 0}";
},
{
name = "#exit";
position = "{0, 0}";
},
{
name = bottom;
position = "{396, -482}";
},
{
name = top;
position = "{405, 510}";
}
);
layerId = "EA99615A-DD74-4F65-B9DC-480CDB683AEE";
paths = (
{
closed = 1;
nodes = (
"518 -494 OFFCURVE",
"738 -351 OFFCURVE",
"738 -67 CURVE SMOOTH",
"738 25 OFFCURVE",
"715 124 OFFCURVE",
"669 233 CURVE SMOOTH",
"573 461 OFFCURVE",
"468 527 OFFCURVE",
"385 507 CURVE SMOOTH",
"272 480 OFFCURVE",
"201 293 OFFCURVE",
"250 145 CURVE SMOOTH",
"303 -16 OFFCURVE",
"577 -11 OFFCURVE",
"936 0 CURVE",
"936 90 LINE",
"626 82 OFFCURVE",
"362 73 OFFCURVE",
"330 185 CURVE SMOOTH",
"302 282 OFFCURVE",
"334 393 OFFCURVE",
"396 407 CURVE SMOOTH",
"446 418 OFFCURVE",
"515 367 OFFCURVE",
"587 197 CURVE SMOOTH",
"629 98 OFFCURVE",
"648 14 OFFCURVE",
"648 -67 CURVE SMOOTH",
"648 -296 OFFCURVE",
"481 -400 OFFCURVE",
"377 -387 CURVE SMOOTH",
"331 -382 OFFCURVE",
"297 -353 OFFCURVE",
"297 -301 CURVE SMOOTH",
"297 -174 OFFCURVE",
"391 -48 OFFCURVE",
"500 7 CURVE",
"460 87 LINE",
"321 18 OFFCURVE",
"207 -141 OFFCURVE",
"207 -301 CURVE SMOOTH",
"207 -411 OFFCURVE",
"275 -469 OFFCURVE",
"362 -478 CURVE SMOOTH"
);
},
{
closed = 1;
nodes = (
"176 -19 OFFCURVE",
"345 -17 OFFCURVE",
"422 4 CURVE",
"390 88 LINE",
"332 73 OFFCURVE",
"176 74 OFFCURVE",
"0 90 CURVE",
"0 0 LINE"
);
}
);
width = 936;
},
{
anchors = (
{
name = "#entry";
position = "{933, 0}";
},
{
name = "#exit";
position = "{0, 0}";
},
{
name = bottom;
position = "{396, -494}";
},
{
name = top;
position = "{424, 522}";
}
);
layerId = "9AB624CD-9C19-4372-9845-4C197A276709";
paths = (
{
closed = 1;
nodes = (
"534 -502 OFFCURVE",
"753 -354 OFFCURVE",
"753 -67 CURVE SMOOTH",
"753 28 OFFCURVE",
"730 128 OFFCURVE",
"684 239 CURVE SMOOTH",
"597 448 OFFCURVE",
"496 523 OFFCURVE",
"410 521 CURVE SMOOTH",
"262 518 OFFCURVE",
"157 292 OFFCURVE",
"236 137 CURVE SMOOTH",
"294 23 OFFCURVE",
"565 -28 OFFCURVE",
"933 0 CURVE",
"933 60 LINE",
"594 35 OFFCURVE",
"333 80 OFFCURVE",
"290 165 CURVE SMOOTH",
"227 289 OFFCURVE",
"300 459 OFFCURVE",
"411 454 CURVE SMOOTH",
"476 451 OFFCURVE",
"556 386 OFFCURVE",
"628 215 CURVE SMOOTH",
"672 111 OFFCURVE",
"693 20 OFFCURVE",
"693 -67 CURVE SMOOTH",
"693 -314 OFFCURVE",
"514 -438 OFFCURVE",
"384 -433 CURVE SMOOTH",
"310 -431 OFFCURVE",
"252 -387 OFFCURVE",
"252 -301 CURVE SMOOTH",
"252 -157 OFFCURVE",
"326 -35 OFFCURVE",
"450 27 CURVE",
"424 81 LINE",
"279 9 OFFCURVE",
"192 -135 OFFCURVE",
"192 -301 CURVE SMOOTH",
"192 -425 OFFCURVE",
"271 -488 OFFCURVE",
"370 -493 CURVE SMOOTH"
);
},
{
closed = 1;
nodes = (
"153 -4 OFFCURVE",
"294 1 OFFCURVE",
"396 39 CURVE",
"376 95 LINE",
"296 66 OFFCURVE",
"183 55 OFFCURVE",
"0 60 CURVE",
"0 0 LINE"
);
}
);
width = 933;
}
);
unicode = FEEC;
},
{
glyphname = "heh-ar.init";
layers = (
{
anchors = (
{
name = "#exit";
position = "{0, 0}";
},
{
name = bottom;
position = "{379, 0}";
},
{
name = top;
position = "{286, 857}";
}
);
layerId = "7C6EC3B8-53E3-46D5-865A-ED8DFE2E3A2E";
paths = (
{
closed = 1;
nodes = (
"34 -2 OFFCURVE",
"141 -9 OFFCURVE",
"303 32 CURVE SMOOTH",
"619 112 OFFCURVE",
"624 635 OFFCURVE",
"309 580 CURVE SMOOTH",
"29 531 OFFCURVE",
"66 112 OFFCURVE",
"354 38 CURVE SMOOTH",
"1119 -159 OFFCURVE",
"1014 596 OFFCURVE",
"286 710 CURVE",
"282 680 LINE",
"976 572 OFFCURVE",
"1074 -114 OFFCURVE",
"362 68 CURVE SMOOTH",
"104 134 OFFCURVE",
"68 502 OFFCURVE",
"315 550 CURVE SMOOTH",
"589 603 OFFCURVE",
"573 133 OFFCURVE",
"295 62 CURVE SMOOTH",
"139 22 OFFCURVE",
"36 28 OFFCURVE",
"0 30 CURVE",
"0 0 LINE"
);
}
);
width = 922;
},
{
anchors = (
{
name = "#exit";
position = "{0, 0}";
},
{
name = bottom;
position = "{343, 0}";
},
{
name = top;
position = "{301, 890}";
}
);
layerId = "EA99615A-DD74-4F65-B9DC-480CDB683AEE";
paths = (
{
closed = 1;
nodes = (
"107 -4 OFFCURVE",
"216 8 OFFCURVE",
"303 29 CURVE SMOOTH",
"626 107 OFFCURVE",
"624 594 OFFCURVE",
"300 566 CURVE SMOOTH",
"18 542 OFFCURVE",
"45 107 OFFCURVE",
"331 34 CURVE SMOOTH",
"1041 -147 OFFCURVE",
"1074 668 OFFCURVE",
"274 736 CURVE",
"266 646 LINE",
"947 588 OFFCURVE",
"925 -23 OFFCURVE",
"353 122 CURVE SMOOTH",
"164 170 OFFCURVE",
"129 461 OFFCURVE",
"308 476 CURVE SMOOTH",
"520 494 OFFCURVE",
"495 171 OFFCURVE",
"281 117 CURVE SMOOTH",
"202 97 OFFCURVE",
"101 86 OFFCURVE",
"1 90 CURVE",
"0 0 LINE"
);
}
);
width = 909;
},
{
anchors = (
{
name = "#exit";
position = "{0, 0}";
},
{
name = bottom;
position = "{343, 0}";
},
{
name = top;
position = "{301, 858}";
}
);
layerId = "9AB624CD-9C19-4372-9845-4C197A276709";
paths = (
{
closed = 1;
nodes = (
"88 -4 OFFCURVE",
"209 9 OFFCURVE",
"301 32 CURVE SMOOTH",
"612 110 OFFCURVE",
"627 578 OFFCURVE",
"316 551 CURVE SMOOTH",
"48 528 OFFCURVE",
"85 108 OFFCURVE",
"360 38 CURVE SMOOTH",
"1102 -151 OFFCURVE",
"1134 675 OFFCURVE",
"276 748 CURVE",
"270 688 LINE",
"1039 618 OFFCURVE",
"1022 -71 OFFCURVE",
"374 96 CURVE SMOOTH",
"165 150 OFFCURVE",
"123 474 OFFCURVE",
"322 491 CURVE SMOOTH",
"558 511 OFFCURVE",
"525 150 OFFCURVE",
"287 90 CURVE SMOOTH",
"200 68 OFFCURVE",
"85 56 OFFCURVE",
"0 60 CURVE",
"0 0 LINE"
);
}
);
width = 960;
}
);
unicode = FEEB;
},
{
glyphname = "waw-ar";
layers = (
{
anchors = (
{
name = "#entry";
position = "{566, 0}";
},
{
name = bottom;
position = "{427, 0}";
},
{
name = center;
position = "{289, 250}";
},
{
name = top;
position = "{286, 677}";
}
);
layerId = "7C6EC3B8-53E3-46D5-865A-ED8DFE2E3A2E";
paths = (
{
closed = 1;
nodes = (
"470 -374 OFFCURVE",
"588 -169 OFFCURVE",
"588 152 CURVE SMOOTH",
"588 638 OFFCURVE",
"40 702 OFFCURVE",
"40 252 CURVE SMOOTH",
"40 28 OFFCURVE",
"241 -31 OFFCURVE",
"574 -5 CURVE",
"574 25 LINE",
"262 1 OFFCURVE",
"70 45 OFFCURVE",
"70 252 CURVE SMOOTH",
"70 660 OFFCURVE",
"558 600 OFFCURVE",
"558 152 CURVE SMOOTH",
"558 -158 OFFCURVE",
"446 -353 OFFCURVE",
"194 -483 CURVE",
"208 -509 LINE"
);
}
);
width = 628;
},
{
anchors = (
{
name = "#entry";
position = "{653, 0}";
},
{
name = bottom;
position = "{450, -450}";
},
{
name = center;
position = "{358, 287}";
},
{
name = top;
position = "{325, 816}";
}
);
layerId = "EA99615A-DD74-4F65-B9DC-480CDB683AEE";
paths = (
{
closed = 1;
nodes = (
"551 -356 OFFCURVE",
"678 -135 OFFCURVE",
"678 202 CURVE SMOOTH",
"678 743 OFFCURVE",
"40 816 OFFCURVE",
"40 302 CURVE SMOOTH",
"40 65 OFFCURVE",
"230 -31 OFFCURVE",
"623 0 CURVE",
"615 90 LINE",
"273 63 OFFCURVE",
"130 129 OFFCURVE",
"130 302 CURVE SMOOTH",
"130 687 OFFCURVE",
"588 633 OFFCURVE",
"588 202 CURVE SMOOTH",
"588 -103 OFFCURVE",
"479 -292 OFFCURVE",
"232 -419 CURVE",
"274 -499 LINE"
);
}
);
width = 718;
},
{
anchors = (
{
name = "#entry";
position = "{533, 0}";
},
{
name = bottom;
position = "{318, -425}";
},
{
name = center;
position = "{289, 250}";
},
{
name = top;
position = "{276, 676}";
}
);
layerId = "9AB624CD-9C19-4372-9845-4C197A276709";
paths = (
{
closed = 1;
nodes = (
"433 -367 OFFCURVE",
"548 -167 OFFCURVE",
"548 148 CURVE SMOOTH",
"548 616 OFFCURVE",
"30 676 OFFCURVE",
"30 248 CURVE SMOOTH",
"30 51 OFFCURVE",
"193 -22 OFFCURVE",
"527 6 CURVE",
"543 66 LINE",
"220 40 OFFCURVE",
"90 96 OFFCURVE",
"90 248 CURVE SMOOTH",
"90 590 OFFCURVE",
"488 542 OFFCURVE",
"488 148 CURVE SMOOTH",
"488 -146 OFFCURVE",
"386 -324 OFFCURVE",
"148 -446 CURVE",
"176 -500 LINE"
);
}
);
width = 578;
}
);
unicode = 0648;
},
{
glyphname = "waw-ar.001";
layers = (
{
anchors = (
{
name = "#entry";
position = "{566, 0}";
},
{
name = bottom;
position = "{427, -398}";
},
{
name = center;
position = "{289, 250}";
},
{
name = top;
position = "{286, 677}";
}
);
layerId = "7C6EC3B8-53E3-46D5-865A-ED8DFE2E3A2E";
paths = (
{
closed = 1;
nodes = (
"470 -374 OFFCURVE",
"588 -169 OFFCURVE",
"588 152 CURVE SMOOTH",
"588 638 OFFCURVE",
"40 702 OFFCURVE",
"40 252 CURVE SMOOTH",
"40 28 OFFCURVE",
"241 -31 OFFCURVE",
"574 -5 CURVE",
"574 25 LINE",
"262 1 OFFCURVE",
"70 45 OFFCURVE",
"70 252 CURVE SMOOTH",
"70 660 OFFCURVE",
"558 600 OFFCURVE",
"558 152 CURVE SMOOTH",
"558 -158 OFFCURVE",
"446 -353 OFFCURVE",
"194 -483 CURVE",
"208 -509 LINE"
);
}
);
width = 628;
},
{
anchors = (
{
name = "#entry";
position = "{653, 0}";
},
{
name = bottom;
position = "{450, -450}";
},
{
name = center;
position = "{358, 287}";
},
{
name = top;
position = "{325, 816}";
}
);
layerId = "EA99615A-DD74-4F65-B9DC-480CDB683AEE";
paths = (
{
closed = 1;
nodes = (
"551 -356 OFFCURVE",
"678 -135 OFFCURVE",
"678 202 CURVE SMOOTH",
"678 743 OFFCURVE",
"40 816 OFFCURVE",
"40 302 CURVE SMOOTH",
"40 65 OFFCURVE",
"230 -31 OFFCURVE",
"623 0 CURVE",
"615 90 LINE",
"273 63 OFFCURVE",
"130 129 OFFCURVE",
"130 302 CURVE SMOOTH",
"130 687 OFFCURVE",
"588 633 OFFCURVE",
"588 202 CURVE SMOOTH",
"588 -103 OFFCURVE",
"479 -292 OFFCURVE",
"232 -419 CURVE",
"274 -499 LINE"
);
}
);
width = 718;
},
{
anchors = (
{
name = "#entry";
position = "{533, 0}";
},
{
name = bottom;
position = "{380, -425}";
},
{
name = center;
position = "{289, 250}";
},
{
name = top;
position = "{276, 676}";
}
);
layerId = "9AB624CD-9C19-4372-9845-4C197A276709";
paths = (
{
closed = 1;
nodes = (
"433 -367 OFFCURVE",
"548 -167 OFFCURVE",
"548 148 CURVE SMOOTH",
"548 616 OFFCURVE",
"30 676 OFFCURVE",
"30 248 CURVE SMOOTH",
"30 51 OFFCURVE",
"193 -22 OFFCURVE",
"527 6 CURVE",
"543 66 LINE",
"220 40 OFFCURVE",
"90 96 OFFCURVE",
"90 248 CURVE SMOOTH",
"90 590 OFFCURVE",
"488 542 OFFCURVE",
"488 148 CURVE SMOOTH",
"488 -146 OFFCURVE",
"386 -324 OFFCURVE",
"148 -446 CURVE",
"176 -500 LINE"
);
}
);
width = 578;
}
);
},
{
glyphname = "alefMaksura-ar";
layers = (
{
anchors = (
{
name = bottom;
position = "{576, -515}";
},
{
name = top;
position = "{219, 500}";
}
);
layerId = "7C6EC3B8-53E3-46D5-865A-ED8DFE2E3A2E";
paths = (
{
closed = 1;
nodes = (
"922 -515 OFFCURVE",
"1094 -417 OFFCURVE",
"1094 -216 CURVE SMOOTH",
"1094 23 OFFCURVE",
"868 25 OFFCURVE",
"682 27 CURVE SMOOTH",
"534 28 OFFCURVE",
"416 29 OFFCURVE",
"416 126 CURVE SMOOTH",
"416 382 OFFCURVE",
"686 536 OFFCURVE",
"874 486 CURVE",
"882 516 LINE",
"682 568 OFFCURVE",
"386 400 OFFCURVE",
"386 126 CURVE SMOOTH",
"386 0 OFFCURVE",
"524 -4 OFFCURVE",
"675 -5 CURVE SMOOTH",
"859 -7 OFFCURVE",
"1064 -6 OFFCURVE",
"1064 -216 CURVE SMOOTH",
"1064 -398 OFFCURVE",
"905 -485 OFFCURVE",
"576 -485 CURVE SMOOTH",
"150 -485 OFFCURVE",
"34 -365 OFFCURVE",
"85 27 CURVE",
"55 31 LINE",
"2 -381 OFFCURVE",
"132 -515 OFFCURVE",
"576 -515 CURVE SMOOTH"
);
}
);
width = 1094;
},
{
anchors = (
{
name = bottom;
position = "{607, -545}";
},
{
name = top;
position = "{247, 500}";
}
);
layerId = "EA99615A-DD74-4F65-B9DC-480CDB683AEE";
paths = (
{
closed = 1;
nodes = (
"978 -545 OFFCURVE",
"1170 -431 OFFCURVE",
"1170 -201 CURVE SMOOTH",
"1170 83 OFFCURVE",
"899 85 OFFCURVE",
"713 87 CURVE SMOOTH",
"532 88 OFFCURVE",
"492 100 OFFCURVE",
"492 141 CURVE SMOOTH",
"492 340 OFFCURVE",
"706 507 OFFCURVE",
"893 458 CURVE",
"917 544 LINE",
"672 609 OFFCURVE",
"402 399 OFFCURVE",
"402 141 CURVE SMOOTH",
"402 22 OFFCURVE",
"500 -2 OFFCURVE",
"713 -3 CURVE SMOOTH",
"899 -5 OFFCURVE",
"1080 -7 OFFCURVE",
"1080 -201 CURVE SMOOTH",
"1080 -371 OFFCURVE",
"931 -455 OFFCURVE",
"607 -455 CURVE SMOOTH",
"189 -455 OFFCURVE",
"82 -342 OFFCURVE",
"131 40 CURVE",
"41 52 LINE",
"-15 -388 OFFCURVE",
"135 -545 OFFCURVE",
"607 -545 CURVE SMOOTH"
);
}
);
width = 1200;
},
{
anchors = (
{
name = bottom;
position = "{607, -569}";
},
{
name = top;
position = "{251, 500}";
}
);
layerId = "9AB624CD-9C19-4372-9845-4C197A276709";
paths = (
{
closed = 1;
nodes = (
"980 -529 OFFCURVE",
"1170 -414 OFFCURVE",
"1170 -185 CURVE SMOOTH",
"1170 96 OFFCURVE",
"898 99 OFFCURVE",
"716 100 CURVE SMOOTH",
"528 101 OFFCURVE",
"492 114 OFFCURVE",
"492 157 CURVE SMOOTH",
"492 351 OFFCURVE",
"710 522 OFFCURVE",
"894 474 CURVE",
"910 532 LINE",
"687 590 OFFCURVE",
"432 390 OFFCURVE",
"432 157 CURVE SMOOTH",
"432 65 OFFCURVE",
"499 41 OFFCURVE",
"716 40 CURVE SMOOTH",
"898 39 OFFCURVE",
"1110 36 OFFCURVE",
"1110 -185 CURVE SMOOTH",
"1110 -375 OFFCURVE",
"948 -469 OFFCURVE",
"607 -469 CURVE SMOOTH",
"171 -469 OFFCURVE",
"49 -341 OFFCURVE",
"101 60 CURVE",
"41 68 LINE",
"-15 -371 OFFCURVE",
"135 -529 OFFCURVE",
"607 -529 CURVE SMOOTH"
);
}
);
width = 1200;
}
);
unicode = 0649;
},
{
glyphname = "alefMaksura-ar.fina";
layers = (
{
anchors = (
{
name = "#entry";
position = "{915, 0}";
},
{
name = bottom;
position = "{469, -526}";
},
{
name = top;
position = "{400, 152}";
}
);
layerId = "7C6EC3B8-53E3-46D5-865A-ED8DFE2E3A2E";
paths = (
{
closed = 1;
nodes = (
"799 -526 OFFCURVE",
"915 -330 OFFCURVE",
"791 15 CURVE",
"763 5 LINE",
"880 -322 OFFCURVE",
"777 -496 OFFCURVE",
"469 -496 CURVE SMOOTH",
"232 -496 OFFCURVE",
"70 -344 OFFCURVE",
"70 -122 CURVE SMOOTH",
"70 -58 OFFCURVE",
"80 10 OFFCURVE",
"89 80 CURVE",
"59 84 LINE",
"50 14 OFFCURVE",
"40 -56 OFFCURVE",
"40 -122 CURVE SMOOTH",
"40 -361 OFFCURVE",
"216 -526 OFFCURVE",
"469 -526 CURVE SMOOTH"
);
},
{
closed = 1;
nodes = (
"915 30 LINE",
"791 26 OFFCURVE",
"731 27 OFFCURVE",
"581 48 CURVE",
"577 18 LINE",
"731 -3 OFFCURVE",
"791 0 OFFCURVE",
"915 0 CURVE"
);
}
);
width = 915;
},
{
anchors = (
{
name = "#entry";
position = "{1035, 0}";
},
{
name = bottom;
position = "{539, -538}";
},
{
name = top;
position = "{480, 187}";
}
);
layerId = "EA99615A-DD74-4F65-B9DC-480CDB683AEE";
paths = (
{
closed = 1;
nodes = (
"863 -538 OFFCURVE",
"1010 -294 OFFCURVE",
"889 43 CURVE",
"805 13 LINE",
"907 -267 OFFCURVE",
"801 -448 OFFCURVE",
"539 -448 CURVE SMOOTH",
"300 -448 OFFCURVE",
"170 -339 OFFCURVE",
"152 -123 CURVE SMOOTH",
"148 -70 OFFCURVE",
"150 -11 OFFCURVE",
"159 54 CURVE",
"69 66 LINE",
"59 -7 OFFCURVE",
"57 -74 OFFCURVE",
"63 -135 CURVE SMOOTH",
"87 -395 OFFCURVE",
"252 -538 OFFCURVE",
"539 -538 CURVE SMOOTH"
);
},
{
closed = 1;
nodes = (
"1035 90 LINE",
"919 90 OFFCURVE",
"808 96 OFFCURVE",
"734 108 CURVE",
"720 18 LINE",
"800 7 OFFCURVE",
"914 0 OFFCURVE",
"1035 0 CURVE"
);
}
);
width = 1035;
},
{
anchors = (
{
name = "#entry";
position = "{910, 0}";
},
{
name = bottom;
position = "{464, -488}";
},
{
name = top;
position = "{402, 175}";
}
);
layerId = "9AB624CD-9C19-4372-9845-4C197A276709";
paths = (
{
closed = 1;
nodes = (
"757 -488 OFFCURVE",
"882 -275 OFFCURVE",
"772 33 CURVE",
"716 13 LINE",
"812 -257 OFFCURVE",
"714 -428 OFFCURVE",
"464 -428 CURVE SMOOTH",
"208 -428 OFFCURVE",
"98 -298 OFFCURVE",
"90 -89 CURVE SMOOTH",
"88 -44 OFFCURVE",
"92 5 OFFCURVE",
"99 57 CURVE",
"39 65 LINE",
"32 11 OFFCURVE",
"29 -39 OFFCURVE",
"30 -87 CURVE SMOOTH",
"39 -331 OFFCURVE",
"169 -488 OFFCURVE",
"464 -488 CURVE SMOOTH"
);
},
{
closed = 1;
nodes = (
"910 60 LINE",
"787 60 OFFCURVE",
"676 67 OFFCURVE",
"602 78 CURVE",
"594 18 LINE",
"671 7 OFFCURVE",
"785 0 OFFCURVE",
"910 0 CURVE"
);
}
);
width = 910;
}
);
unicode = FEF0;
},
{
export = 0;
glyphname = "alef-ar.fina.001";
layers = (
{
anchors = (
{
name = "#entry";
position = "{176, 0}";
},
{
name = _top;
position = "{69, 0}";
},
{
name = top;
position = "{39, 1046}";
}
);
background = {
paths = (
{
closed = 0;
nodes = (
"218 12 LINE"
);
}
);
};
layerId = "7C6EC3B8-53E3-46D5-865A-ED8DFE2E3A2E";
paths = (
{
closed = 1;
nodes = (
"24 893 OFFCURVE",
"23 771 OFFCURVE",
"22 665 CURVE SMOOTH",
"21 570 OFFCURVE",
"20 489 OFFCURVE",
"20 420 CURVE SMOOTH",
"20 145 OFFCURVE",
"23 0 OFFCURVE",
"176 0 CURVE",
"176 30 LINE",
"53 30 OFFCURVE",
"50 145 OFFCURVE",
"50 420 CURVE SMOOTH",
"50 566 OFFCURVE",
"54 765 OFFCURVE",
"55 1036 CURVE",
"25 1036 LINE"
);
}
);
width = 176;
},
{
anchors = (
{
name = "#entry";
position = "{239, 0}";
},
{
name = _top;
position = "{57, -203}";
},
{
name = top;
position = "{59, 1148}";
}
);
hints = (
{
horizontal = 1;
origin = "{0, 12}";
target = "{0, 13}";
type = Stem;
},
{
origin = "{0, 9}";
target = "{0, 2}";
type = Stem;
}
);
layerId = "EA99615A-DD74-4F65-B9DC-480CDB683AEE";
paths = (
{
closed = 1;
nodes = (
"140 90 OFFCURVE",
"110 166 OFFCURVE",
"110 465 CURVE SMOOTH",
"110 480 OFFCURVE",
"109 974 OFFCURVE",
"110 1081 CURVE",
"20 1081 LINE",
"19 938 OFFCURVE",
"20 530 OFFCURVE",
"20 465 CURVE SMOOTH",
"20 187 OFFCURVE",
"47 0 OFFCURVE",
"239 0 CURVE",
"239 90 LINE"
);
}
);
width = 239;
},
{
anchors = (
{
name = "#entry";
position = "{416, 0}";
},
{
name = _top;
position = "{113, -117}";
},
{
name = top;
position = "{87, 1148}";
}
);
layerId = "9AB624CD-9C19-4372-9845-4C197A276709";
paths = (
{
closed = 1;
nodes = (
"124 60 OFFCURVE",
"110 234 OFFCURVE",
"110 608 CURVE SMOOTH",
"110 681 OFFCURVE",
"110 760 OFFCURVE",
"112 843 CURVE SMOOTH",
"113 893 OFFCURVE",
"113 945 OFFCURVE",
"113 998 CURVE",
"53 998 LINE",
"53 945 OFFCURVE",
"52 894 OFFCURVE",
"52 844 CURVE SMOOTH",
"52 760 OFFCURVE",
"50 681 OFFCURVE",
"50 608 CURVE SMOOTH",
"50 232 OFFCURVE",
"68 0 OFFCURVE",
"416 0 CURVE",
"416 60 LINE"
);
}
);
width = 416;
},
{
anchors = (
{
name = "#entry";
position = "{239, 0}";
},
{
name = _top;
position = "{57, -203}";
},
{
name = top;
position = "{59, 1148}";
}
);
associatedMasterId = "EA99615A-DD74-4F65-B9DC-480CDB683AEE";
hints = (
{
horizontal = 1;
origin = "{0, 12}";
target = "{0, 13}";
type = Stem;
},
{
origin = "{0, 9}";
target = "{0, 2}";
type = Stem;
}
);
layerId = "C13C1C85-F2DF-4584-9AAC-549B8314FBC6";
name = "Oct 8 19, 17:37";
paths = (
{
closed = 1;
nodes = (
"140 90 OFFCURVE",
"110 166 OFFCURVE",
"110 465 CURVE SMOOTH",
"110 480 OFFCURVE",
"109 974 OFFCURVE",
"110 1081 CURVE",
"20 1081 LINE",
"19 938 OFFCURVE",
"20 530 OFFCURVE",
"20 465 CURVE SMOOTH",
"20 187 OFFCURVE",
"47 0 OFFCURVE",
"239 0 CURVE",
"239 90 LINE"
);
}
);
width = 239;
},
{
anchors = (
{
name = "#entry";
position = "{239, 0}";
},
{
name = _top;
position = "{57, -203}";
},
{
name = top;
position = "{59, 1148}";
}
);
associatedMasterId = "EA99615A-DD74-4F65-B9DC-480CDB683AEE";
hints = (
{
horizontal = 1;
origin = "{0, 12}";
target = "{0, 13}";
type = Stem;
},
{
origin = "{0, 9}";
target = "{0, 2}";
type = Stem;
}
);
layerId = "85EA3DD8-3579-4EA4-9F14-51D862FF53C3";
name = "Oct 8 19, 17:37";
paths = (
{
closed = 1;
nodes = (
"140 90 OFFCURVE",
"110 166 OFFCURVE",
"110 465 CURVE SMOOTH",
"110 480 OFFCURVE",
"109 974 OFFCURVE",
"110 1081 CURVE",
"20 1081 LINE",
"19 938 OFFCURVE",
"20 530 OFFCURVE",
"20 465 CURVE SMOOTH",
"20 187 OFFCURVE",
"47 0 OFFCURVE",
"239 0 CURVE",
"239 90 LINE"
);
}
);
width = 239;
},
{
anchors = (
{
name = "#entry";
position = "{239, 0}";
},
{
name = _top;
position = "{57, -203}";
},
{
name = top;
position = "{59, 1148}";
}
);
associatedMasterId = "EA99615A-DD74-4F65-B9DC-480CDB683AEE";
hints = (
{
horizontal = 1;
origin = "{0, 12}";
target = "{0, 13}";
type = Stem;
},
{
origin = "{0, 9}";
target = "{0, 2}";
type = Stem;
}
);
layerId = "9D19F429-D991-47D8-BF8F-108EDC439270";
name = "Oct 8 19, 17:37";
paths = (
{
closed = 1;
nodes = (
"140 90 OFFCURVE",
"110 166 OFFCURVE",
"110 465 CURVE SMOOTH",
"110 480 OFFCURVE",
"109 974 OFFCURVE",
"110 1081 CURVE",
"20 1081 LINE",
"19 938 OFFCURVE",
"20 530 OFFCURVE",
"20 465 CURVE SMOOTH",
"20 187 OFFCURVE",
"47 0 OFFCURVE",
"239 0 CURVE",
"239 90 LINE"
);
}
);
width = 239;
},
{
anchors = (
{
name = "#entry";
position = "{239, 0}";
},
{
name = _top;
position = "{57, -203}";
},
{
name = top;
position = "{59, 1148}";
}
);
associatedMasterId = "EA99615A-DD74-4F65-B9DC-480CDB683AEE";
hints = (
{
horizontal = 1;
origin = "{0, 12}";
target = "{0, 13}";
type = Stem;
},
{
origin = "{0, 9}";
target = "{0, 2}";
type = Stem;
}
);
layerId = "1BF80D72-318C-48C2-AC59-7E15D04EF715";
name = "Oct 8 19, 17:37";
paths = (
{
closed = 1;
nodes = (
"140 90 OFFCURVE",
"110 166 OFFCURVE",
"110 465 CURVE SMOOTH",
"110 480 OFFCURVE",
"109 974 OFFCURVE",
"110 1081 CURVE",
"20 1081 LINE",
"19 938 OFFCURVE",
"20 530 OFFCURVE",
"20 465 CURVE SMOOTH",
"20 187 OFFCURVE",
"47 0 OFFCURVE",
"239 0 CURVE",
"239 90 LINE"
);
}
);
width = 239;
},
{
anchors = (
{
name = "#entry";
position = "{239, 0}";
},
{
name = _top;
position = "{57, -203}";
},
{
name = top;
position = "{59, 1148}";
}
);
associatedMasterId = "EA99615A-DD74-4F65-B9DC-480CDB683AEE";
hints = (
{
horizontal = 1;
origin = "{0, 12}";
target = "{0, 13}";
type = Stem;
},
{
origin = "{0, 9}";
target = "{0, 2}";
type = Stem;
}
);
layerId = "34337D78-3D1D-453B-875B-27490050FFD2";
name = "Oct 8 19, 17:37";
paths = (
{
closed = 1;
nodes = (
"140 90 OFFCURVE",
"110 166 OFFCURVE",
"110 465 CURVE SMOOTH",
"110 480 OFFCURVE",
"109 974 OFFCURVE",
"110 1081 CURVE",
"20 1081 LINE",
"19 938 OFFCURVE",
"20 530 OFFCURVE",
"20 465 CURVE SMOOTH",
"20 187 OFFCURVE",
"47 0 OFFCURVE",
"239 0 CURVE",
"239 90 LINE"
);
}
);
width = 239;
},
{
anchors = (
{
name = "#entry";
position = "{239, 0}";
},
{
name = _top;
position = "{57, -203}";
},
{
name = top;
position = "{59, 1148}";
}
);
associatedMasterId = "EA99615A-DD74-4F65-B9DC-480CDB683AEE";
hints = (
{
horizontal = 1;
origin = "{0, 12}";
target = "{0, 13}";
type = Stem;
},
{
origin = "{0, 9}";
target = "{0, 2}";
type = Stem;
}
);
layerId = "7A807600-C7A2-4C72-8F91-DC9726AB2422";
name = "Oct 8 19, 17:37";
paths = (
{
closed = 1;
nodes = (
"140 90 OFFCURVE",
"110 166 OFFCURVE",
"110 465 CURVE SMOOTH",
"110 480 OFFCURVE",
"109 974 OFFCURVE",
"110 1081 CURVE",
"20 1081 LINE",
"19 938 OFFCURVE",
"20 530 OFFCURVE",
"20 465 CURVE SMOOTH",
"20 187 OFFCURVE",
"47 0 OFFCURVE",
"239 0 CURVE",
"239 90 LINE"
);
}
);
width = 239;
},
{
anchors = (
{
name = "#entry";
position = "{239, 0}";
},
{
name = _top;
position = "{57, -203}";
},
{
name = top;
position = "{59, 1148}";
}
);
associatedMasterId = "EA99615A-DD74-4F65-B9DC-480CDB683AEE";
hints = (
{
horizontal = 1;
origin = "{0, 12}";
target = "{0, 13}";
type = Stem;
},
{
origin = "{0, 9}";
target = "{0, 2}";
type = Stem;
}
);
layerId = "A1B81ADA-F735-4FB3-B6E2-1BCBC467CAA6";
name = "Oct 8 19, 17:37";
paths = (
{
closed = 1;
nodes = (
"140 90 OFFCURVE",
"110 166 OFFCURVE",
"110 465 CURVE SMOOTH",
"110 480 OFFCURVE",
"109 974 OFFCURVE",
"110 1081 CURVE",
"20 1081 LINE",
"19 938 OFFCURVE",
"20 530 OFFCURVE",
"20 465 CURVE SMOOTH",
"20 187 OFFCURVE",
"47 0 OFFCURVE",
"239 0 CURVE",
"239 90 LINE"
);
}
);
width = 239;
},
{
anchors = (
{
name = "#entry";
position = "{239, 0}";
},
{
name = _top;
position = "{57, -203}";
},
{
name = top;
position = "{59, 1148}";
}
);
associatedMasterId = "EA99615A-DD74-4F65-B9DC-480CDB683AEE";
hints = (
{
horizontal = 1;
origin = "{0, 12}";
target = "{0, 13}";
type = Stem;
},
{
origin = "{0, 9}";
target = "{0, 2}";
type = Stem;
}
);
layerId = "85A026A5-4DAE-42FD-B453-C2A99EBEBC0E";
name = "Oct 8 19, 17:37";
paths = (
{
closed = 1;
nodes = (
"140 90 OFFCURVE",
"110 166 OFFCURVE",
"110 465 CURVE SMOOTH",
"110 480 OFFCURVE",
"109 974 OFFCURVE",
"110 1081 CURVE",
"20 1081 LINE",
"19 938 OFFCURVE",
"20 530 OFFCURVE",
"20 465 CURVE SMOOTH",
"20 187 OFFCURVE",
"47 0 OFFCURVE",
"239 0 CURVE",
"239 90 LINE"
);
}
);
width = 239;
}
);
},
{
export = 0;
glyphname = "behDotless-ar.medi.001";
layers = (
{
anchors = (
{
name = "#entry";
position = "{615, -1}";
},
{
name = "#exit";
position = "{-1, -1}";
}
);
layerId = "7C6EC3B8-53E3-46D5-865A-ED8DFE2E3A2E";
paths = (
{
closed = 1;
nodes = (
"501 48 OFFCURVE",
"515 0 OFFCURVE",
"615 0 CURVE",
"615 30 LINE",
"535 30 OFFCURVE",
"526 70 OFFCURVE",
"526 216 CURVE",
"497 212 LINE"
);
},
{
closed = 1;
nodes = (
"73 33 OFFCURVE",
"78 0 OFFCURVE",
"292 0 CURVE SMOOTH",
"536 0 OFFCURVE",
"536 22 OFFCURVE",
"522 485 CURVE",
"492 485 LINE",
"506 23 OFFCURVE",
"506 30 OFFCURVE",
"292 30 CURVE SMOOTH",
"105 30 OFFCURVE",
"103 36 OFFCURVE",
"103 499 CURVE",
"73 499 LINE"
);
},
{
closed = 1;
nodes = (
"80 107 OFFCURVE",
"67 30 OFFCURVE",
"0 30 CURVE",
"0 0 LINE",
"90 0 OFFCURVE",
"115 73 OFFCURVE",
"105 255 CURVE",
"76 253 LINE"
);
}
);
width = 615;
},
{
layerId = "EA99615A-DD74-4F65-B9DC-480CDB683AEE";
width = 600;
},
{
layerId = "9AB624CD-9C19-4372-9845-4C197A276709";
width = 600;
}
);
},
{
export = 0;
glyphname = "behDotless-ar.init.001";
layers = (
{
anchors = (
{
name = "#exit";
position = "{0, 0}";
},
{
name = bottom;
position = "{82, 0}";
},
{
name = top;
position = "{7, 538}";
}
);
layerId = "7C6EC3B8-53E3-46D5-865A-ED8DFE2E3A2E";
paths = (
{
closed = 1;
nodes = (
"166 127 OFFCURVE",
"187 30 OFFCURVE",
"0 30 CURVE",
"0 0 LINE",
"225 0 OFFCURVE",
"196 131 OFFCURVE",
"169 538 CURVE",
"139 536 LINE"
);
}
);
width = 207;
},
{
anchors = (
{
name = "#exit";
position = "{0, 0}";
},
{
name = bottom;
position = "{308, -185}";
},
{
name = top;
position = "{216, 899}";
}
);
layerId = "EA99615A-DD74-4F65-B9DC-480CDB683AEE";
paths = (
{
closed = 1;
nodes = (
"416 98 OFFCURVE",
"359 90 OFFCURVE",
"0 90 CURVE",
"0 0 LINE",
"404 0 OFFCURVE",
"506 38 OFFCURVE",
"506 463 CURVE",
"416 463 LINE"
);
}
);
width = 546;
},
{
anchors = (
{
name = "#exit";
position = "{0, 0}";
},
{
name = _top;
position = "{148, -250}";
},
{
name = top;
position = "{30, 800}";
}
);
layerId = "9AB624CD-9C19-4372-9845-4C197A276709";
paths = (
{
closed = 1;
nodes = (
"190 189 OFFCURVE",
"196 60 OFFCURVE",
"0 60 CURVE",
"0 0 LINE",
"260 0 OFFCURVE",
"250 191 OFFCURVE",
"247 500 CURVE",
"187 500 LINE"
);
}
);
width = 278;
}
);
},
{
export = 0;
glyphname = "hah-ar.001";
layers = (
{
anchors = (
{
name = bottom;
position = "{405, -135}";
},
{
name = top;
position = "{306, 506}";
}
);
layerId = "7C6EC3B8-53E3-46D5-865A-ED8DFE2E3A2E";
paths = (
{
closed = 1;
nodes = (
"202 -486 OFFCURVE",
"60 -389 OFFCURVE",
"60 -218 CURVE SMOOTH",
"60 -77 OFFCURVE",
"213 31 OFFCURVE",
"471 31 CURVE SMOOTH",
"532 31 OFFCURVE",
"596 28 OFFCURVE",
"644 21 CURVE",
"648 51 LINE",
"601 58 OFFCURVE",
"537 61 OFFCURVE",
"475 61 CURVE SMOOTH",
"195 61 OFFCURVE",
"30 -59 OFFCURVE",
"30 -219 CURVE SMOOTH",
"30 -409 OFFCURVE",
"183 -517 OFFCURVE",
"442 -510 CURVE",
"442 -480 LINE"
);
},
{
closed = 1;
nodes = (
"694 30 LINE",
"481 95 OFFCURVE",
"585 506 OFFCURVE",
"306 506 CURVE SMOOTH",
"163 506 OFFCURVE",
"57 326 OFFCURVE",
"39 300 CURVE",
"63 282 LINE",
"82 309 OFFCURVE",
"181 476 OFFCURVE",
"306 476 CURVE SMOOTH",
"541 476 OFFCURVE",
"449 55 OFFCURVE",
"694 0 CURVE"
);
}
);
width = 775;
},
{
anchors = (
{
name = _top;
position = "{379, -233}";
},
{
name = top;
position = "{208, 772}";
}
);
layerId = "EA99615A-DD74-4F65-B9DC-480CDB683AEE";
paths = (
{
closed = 1;
nodes = (
"171 388 OFFCURVE",
"267 464 OFFCURVE",
"324 464 CURVE SMOOTH",
"443 464 OFFCURVE",
"472 373 OFFCURVE",
"509 251 CURVE SMOOTH",
"540 150 OFFCURVE",
"579 26 OFFCURVE",
"699 -10 CURVE",
"725 76 LINE",
"566 125 OFFCURVE",
"645 554 OFFCURVE",
"324 554 CURVE SMOOTH",
"232 554 OFFCURVE",
"115 466 OFFCURVE",
"20 329 CURVE",
"94 277 LINE"
);
},
{
closed = 1;
nodes = (
"277 -487 OFFCURVE",
"133 -389 OFFCURVE",
"133 -235 CURVE SMOOTH",
"133 -96 OFFCURVE",
"290 0 OFFCURVE",
"533 0 CURVE SMOOTH",
"595 0 OFFCURVE",
"662 -4 OFFCURVE",
"699 -10 CURVE",
"713 80 LINE",
"670 86 OFFCURVE",
"599 90 OFFCURVE",
"533 90 CURVE SMOOTH",
"242 90 OFFCURVE",
"43 -39 OFFCURVE",
"43 -235 CURVE SMOOTH",
"43 -443 OFFCURVE",
"229 -579 OFFCURVE",
"501 -571 CURVE",
"499 -481 LINE"
);
}
);
width = 745;
},
{
anchors = (
{
name = bottom;
position = "{437, 0}";
},
{
name = top;
position = "{320, 525}";
}
);
layerId = "9AB624CD-9C19-4372-9845-4C197A276709";
paths = (
{
closed = 1;
nodes = (
"599 81 OFFCURVE",
"565 190 OFFCURVE",
"534 291 CURVE SMOOTH",
"497 413 OFFCURVE",
"461 525 OFFCURVE",
"320 525 CURVE SMOOTH",
"250 525 OFFCURVE",
"147 443 OFFCURVE",
"65 325 CURVE",
"115 291 LINE",
"183 390 OFFCURVE",
"274 465 OFFCURVE",
"320 465 CURVE SMOOTH",
"417 465 OFFCURVE",
"439 395 OFFCURVE",
"476 273 CURVE SMOOTH",
"507 172 OFFCURVE",
"551 33 OFFCURVE",
"686 -8 CURVE",
"704 50 LINE"
);
},
{
closed = 1;
nodes = (
"376 103 OFFCURVE",
"103 -8 OFFCURVE",
"103 -205 CURVE SMOOTH",
"103 -378 OFFCURVE",
"262 -507 OFFCURVE",
"500 -511 CURVE",
"498 -451 LINE",
"293 -447 OFFCURVE",
"163 -341 OFFCURVE",
"163 -205 CURVE SMOOTH",
"163 -52 OFFCURVE",
"407 37 OFFCURVE",
"694 -10 CURVE",
"704 50 LINE"
);
}
);
width = 745;
}
);
},
{
export = 0;
glyphname = "dal-ar.001";
layers = (
{
anchors = (
{
name = bottom;
position = "{286, 0}";
},
{
name = top;
position = "{34, 500}";
}
);
layerId = "7C6EC3B8-53E3-46D5-865A-ED8DFE2E3A2E";
paths = (
{
closed = 1;
nodes = (
"222 0 OFFCURVE",
"554 -28 OFFCURVE",
"554 197 CURVE SMOOTH",
"554 311 OFFCURVE",
"461 500 OFFCURVE",
"80 500 CURVE",
"80 470 LINE",
"352 470 OFFCURVE",
"524 365 OFFCURVE",
"524 197 CURVE SMOOTH",
"524 4 OFFCURVE",
"224 30 OFFCURVE",
"40 30 CURVE",
"40 0 LINE"
);
}
);
width = 594;
},
{
anchors = (
{
name = top;
position = "{127, 785}";
}
);
layerId = "EA99615A-DD74-4F65-B9DC-480CDB683AEE";
paths = (
{
closed = 1;
nodes = (
"341 505 OFFCURVE",
"509 402 OFFCURVE",
"509 247 CURVE SMOOTH",
"509 71 OFFCURVE",
"224 95 OFFCURVE",
"40 95 CURVE",
"40 5 LINE",
"220 5 OFFCURVE",
"599 -27 OFFCURVE",
"599 247 CURVE SMOOTH",
"599 458 OFFCURVE",
"391 595 OFFCURVE",
"80 595 CURVE",
"80 505 LINE"
);
}
);
width = 639;
},
{
anchors = (
{
name = top;
position = "{54, 663}";
}
);
layerId = "9AB624CD-9C19-4372-9845-4C197A276709";
paths = (
{
closed = 1;
nodes = (
"303 2 OFFCURVE",
"619 -27 OFFCURVE",
"619 182 CURVE SMOOTH",
"619 357 OFFCURVE",
"436 500 OFFCURVE",
"160 500 CURVE",
"160 440 LINE",
"403 440 OFFCURVE",
"559 319 OFFCURVE",
"559 182 CURVE SMOOTH",
"559 39 OFFCURVE",
"305 62 OFFCURVE",
"120 60 CURVE",
"120 0 LINE"
);
}
);
width = 649;
}
);
},
{
export = 0;
glyphname = "dal-ar.fina.001";
layers = (
{
anchors = (
{
name = "#entry";
position = "{662, 0}";
},
{
name = top;
position = "{12, 500}";
}
);
components = (
{
name = "dal-ar";
}
);
layerId = "7C6EC3B8-53E3-46D5-865A-ED8DFE2E3A2E";
paths = (
{
closed = 1;
nodes = (
"516 200 LINE",
"518 74 OFFCURVE",
"575 0 OFFCURVE",
"662 0 CURVE",
"662 30 LINE",
"606 30 OFFCURVE",
"546 81 OFFCURVE",
"546 198 CURVE SMOOTH",
"546 198 OFFCURVE",
"546 206 OFFCURVE",
"545 211 CURVE"
);
}
);
width = 662;
},
{
anchors = (
{
name = "#entry";
position = "{814, 0}";
},
{
name = top;
position = "{87, 756}";
}
);
components = (
{
name = "dal-ar";
transform = "{1, 0, 0, 1, 0, -5}";
}
);
layerId = "EA99615A-DD74-4F65-B9DC-480CDB683AEE";
paths = (
{
closed = 1;
nodes = (
"520 127 OFFCURVE",
"539 0 OFFCURVE",
"814 0 CURVE",
"814 90 LINE",
"635 90 OFFCURVE",
"610 133 OFFCURVE",
"596 285 CURVE",
"508 267 LINE"
);
}
);
width = 814;
},
{
anchors = (
{
name = "#entry";
position = "{887, 0}";
},
{
name = top;
position = "{28, 677}";
}
);
components = (
{
name = "dal-ar";
transform = "{1, 0, 0, 1, 3, 0}";
}
);
layerId = "9AB624CD-9C19-4372-9845-4C197A276709";
paths = (
{
closed = 1;
nodes = (
"558 220 LINE",
"578 104 OFFCURVE",
"637 -2 OFFCURVE",
"887 0 CURVE",
"887 60 LINE",
"676 62 OFFCURVE",
"634 134 OFFCURVE",
"616 236 CURVE"
);
}
);
width = 887;
}
);
},
{
export = 0;
glyphname = "dal-ar.fina.002";
layers = (
{
anchors = (
{
name = "#entry";
position = "{643, 0}";
},
{
name = top;
position = "{19, 268}";
}
);
layerId = "7C6EC3B8-53E3-46D5-865A-ED8DFE2E3A2E";
paths = (
{
closed = 1;
nodes = (
"193 0 OFFCURVE",
"452 -20 OFFCURVE",
"531 108 CURVE",
"542 28 OFFCURVE",
"569 0 OFFCURVE",
"643 0 CURVE",
"643 30 LINE",
"560 30 OFFCURVE",
"554 82 OFFCURVE",
"554 197 CURVE SMOOTH",
"554 311 OFFCURVE",
"461 500 OFFCURVE",
"80 500 CURVE",
"80 470 LINE",
"352 470 OFFCURVE",
"524 365 OFFCURVE",
"524 197 CURVE SMOOTH",
"524 4 OFFCURVE",
"224 30 OFFCURVE",
"40 30 CURVE",
"40 0 LINE"
);
}
);
width = 643;
},
{
anchors = (
{
name = "#entry";
position = "{862, 0}";
},
{
name = top;
position = "{529, 836}";
}
);
layerId = "EA99615A-DD74-4F65-B9DC-480CDB683AEE";
paths = (
{
closed = 1;
nodes = (
"345 -5 OFFCURVE",
"513 25 OFFCURVE",
"590 112 CURVE",
"625 45 OFFCURVE",
"698 0 OFFCURVE",
"862 0 CURVE",
"862 90 LINE",
"683 90 OFFCURVE",
"652 135 OFFCURVE",
"644 285 CURVE SMOOTH",
"642 321 OFFCURVE",
"639 387 OFFCURVE",
"618 616 CURVE",
"529 604 LINE",
"551 366 OFFCURVE",
"554 300 OFFCURVE",
"554 282 CURVE SMOOTH",
"554 130 OFFCURVE",
"450 85 OFFCURVE",
"100 85 CURVE",
"100 -5 LINE"
);
}
);
width = 862;
},
{
anchors = (
{
name = "#entry";
position = "{887, 0}";
},
{
name = top;
position = "{28, 677}";
}
);
components = (
{
name = "dal-ar";
transform = "{1, 0, 0, 1, 3, 0}";
}
);
layerId = "9AB624CD-9C19-4372-9845-4C197A276709";
paths = (
{
closed = 1;
nodes = (
"558 220 LINE",
"578 104 OFFCURVE",
"637 -2 OFFCURVE",
"887 0 CURVE",
"887 60 LINE",
"676 62 OFFCURVE",
"634 134 OFFCURVE",
"616 236 CURVE"
);
}
);
width = 887;
}
);
},
{
export = 0;
glyphname = "dal-ar.fina.003";
layers = (
{
anchors = (
{
name = "#entry";
position = "{704, 0}";
},
{
name = "#exit";
position = "{40, 0}";
},
{
name = bottom;
position = "{329, 0}";
},
{
name = top;
position = "{49, 289}";
}
);
guideLines = (
{
position = "{459, 237}";
}
);
layerId = "7C6EC3B8-53E3-46D5-865A-ED8DFE2E3A2E";
paths = (
{
closed = 1;
nodes = (
"344 0 OFFCURVE",
"485 0 OFFCURVE",
"485 148 CURVE SMOOTH",
"485 255 OFFCURVE",
"322 436 OFFCURVE",
"135 512 CURVE",
"125 484 LINE",
"298 412 OFFCURVE",
"455 240 OFFCURVE",
"455 148 CURVE SMOOTH",
"455 30 OFFCURVE",
"344 30 OFFCURVE",
"40 30 CURVE",
"40 0 LINE"
);
},
{
closed = 1;
nodes = (
"447 186 OFFCURVE",
"467 153 OFFCURVE",
"489 117 CURVE SMOOTH",
"547 23 OFFCURVE",
"593 0 OFFCURVE",
"704 0 CURVE",
"704 30 LINE",
"603 30 OFFCURVE",
"567 47 OFFCURVE",
"515 133 CURVE SMOOTH",
"493 169 OFFCURVE",
"473 202 OFFCURVE",
"461 231 CURVE",
"436 216 LINE"
);
}
);
width = 704;
},
{
anchors = (
{
name = "#entry";
position = "{862, 0}";
},
{
name = top;
position = "{529, 836}";
}
);
layerId = "EA99615A-DD74-4F65-B9DC-480CDB683AEE";
paths = (
{
closed = 1;
nodes = (
"345 -5 OFFCURVE",
"513 25 OFFCURVE",
"590 112 CURVE",
"625 45 OFFCURVE",
"698 0 OFFCURVE",
"862 0 CURVE",
"862 90 LINE",
"683 90 OFFCURVE",
"652 135 OFFCURVE",
"644 285 CURVE SMOOTH",
"642 321 OFFCURVE",
"639 387 OFFCURVE",
"618 616 CURVE",
"529 604 LINE",
"551 366 OFFCURVE",
"554 300 OFFCURVE",
"554 282 CURVE SMOOTH",
"554 130 OFFCURVE",
"450 85 OFFCURVE",
"100 85 CURVE",
"100 -5 LINE"
);
}
);
width = 862;
},
{
anchors = (
{
name = "#entry";
position = "{887, 0}";
},
{
name = top;
position = "{28, 677}";
}
);
components = (
{
name = "dal-ar";
transform = "{1, 0, 0, 1, 3, 0}";
}
);
layerId = "9AB624CD-9C19-4372-9845-4C197A276709";
paths = (
{
closed = 1;
nodes = (
"558 220 LINE",
"578 104 OFFCURVE",
"637 -2 OFFCURVE",
"887 0 CURVE",
"887 60 LINE",
"676 62 OFFCURVE",
"634 134 OFFCURVE",
"616 236 CURVE"
);
}
);
width = 887;
}
);
},
{
export = 0;
glyphname = "dal-ar.fina.004";
layers = (
{
anchors = (
{
name = "#entry";
position = "{770, 0}";
},
{
name = "#exit";
position = "{60, 0}";
},
{
name = bottom;
position = "{349, 0}";
},
{
name = top;
position = "{69, 411}";
}
);
guideLines = (
{
position = "{479, 237}";
}
);
layerId = "7C6EC3B8-53E3-46D5-865A-ED8DFE2E3A2E";
paths = (
{
closed = 1;
nodes = (
"357 0 OFFCURVE",
"527 0 OFFCURVE",
"535 166 CURVE",
"545 147 OFFCURVE",
"557 129 OFFCURVE",
"568 110 CURVE SMOOTH",
"621 21 OFFCURVE",
"662 0 OFFCURVE",
"770 0 CURVE",
"770 30 LINE",
"671 30 OFFCURVE",
"642 46 OFFCURVE",
"594 126 CURVE SMOOTH",
"542 212 OFFCURVE",
"493 309 OFFCURVE",
"441 360 CURVE SMOOTH",
"376 429 OFFCURVE",
"280 501 OFFCURVE",
"160 567 CURVE",
"150 539 LINE",
"371 415 OFFCURVE",
"505 272 OFFCURVE",
"505 178 CURVE SMOOTH",
"505 30 OFFCURVE",
"364 30 OFFCURVE",
"60 30 CURVE",
"60 0 LINE"
);
}
);
width = 770;
},
{
anchors = (
{
name = "#entry";
position = "{800, 0}";
},
{
name = bottom;
position = "{471, -2}";
},
{
name = top;
position = "{83, 514}";
}
);
layerId = "EA99615A-DD74-4F65-B9DC-480CDB683AEE";
paths = (
{
closed = 1;
nodes = (
"321 0 OFFCURVE",
"468 0 OFFCURVE",
"521 78 CURVE",
"583 24 OFFCURVE",
"676 -1 OFFCURVE",
"803 0 CURVE",
"803 90 LINE",
"647 89 OFFCURVE",
"565 127 OFFCURVE",
"532 218 CURVE SMOOTH",
"493 315 OFFCURVE",
"362 434 OFFCURVE",
"180 537 CURVE",
"136 459 LINE",
"292 371 OFFCURVE",
"425 255 OFFCURVE",
"451 177 CURVE SMOOTH",
"471 76 OFFCURVE",
"310 90 OFFCURVE",
"83 90 CURVE",
"83 0 LINE"
);
}
);
width = 803;
},
{
anchors = (
{
name = "#entry";
position = "{800, 0}";
},
{
name = top;
position = "{28, 500}";
}
);
annotations = (
{
position = "{274, 45}";
type = Minus;
},
{
position = "{290, 339}";
type = Minus;
},
{
position = "{283.239, 213.04}";
type = Minus;
},
{
position = "{439, 564}";
type = Plus;
},
{
position = "{529.667, 350.418}";
type = Plus;
},
{
position = "{691.649, 207.075}";
type = Plus;
},
{
position = "{596.546, -131.844}";
type = Plus;
},
{
position = "{367.624, -176.773}";
type = Plus;
},
{
position = "{190.049, -172.411}";
type = Plus;
},
{
position = "{254, -533}";
type = Text;
}
);
components = (
{
name = "dal-ar";
transform = "{1, 0, 0, 1, 3, 0}";
}
);
layerId = "9AB624CD-9C19-4372-9845-4C197A276709";
paths = (
{
closed = 1;
nodes = (
"477 191 LINE",
"502 87 OFFCURVE",
"571 -2 OFFCURVE",
"800 0 CURVE",
"800 60 LINE",
"605 62 OFFCURVE",
"554 124 OFFCURVE",
"533 214 CURVE"
);
}
);
width = 800;
}
);
},
{
export = 0;
glyphname = "dal-ar.fina.005";
layers = (
{
anchors = (
{
name = "#entry";
position = "{770, 0}";
},
{
name = "#exit";
position = "{60, 0}";
},
{
name = bottom;
position = "{349, 0}";
},
{
name = top;
position = "{69, 411}";
}
);
guideLines = (
{
position = "{479, 237}";
}
);
layerId = "7C6EC3B8-53E3-46D5-865A-ED8DFE2E3A2E";
paths = (
{
closed = 1;
nodes = (
"357 0 OFFCURVE",
"527 0 OFFCURVE",
"535 166 CURVE",
"545 147 OFFCURVE",
"557 129 OFFCURVE",
"568 110 CURVE SMOOTH",
"621 21 OFFCURVE",
"662 0 OFFCURVE",
"770 0 CURVE",
"770 30 LINE",
"671 30 OFFCURVE",
"642 46 OFFCURVE",
"594 126 CURVE SMOOTH",
"542 212 OFFCURVE",
"493 309 OFFCURVE",
"441 360 CURVE SMOOTH",
"376 429 OFFCURVE",
"280 501 OFFCURVE",
"160 567 CURVE",
"150 539 LINE",
"371 415 OFFCURVE",
"505 272 OFFCURVE",
"505 178 CURVE SMOOTH",
"505 30 OFFCURVE",
"364 30 OFFCURVE",
"60 30 CURVE",
"60 0 LINE"
);
}
);
width = 770;
},
{
anchors = (
{
name = "#entry";
position = "{930, 0}";
},
{
name = bottom;
position = "{597, -2}";
},
{
name = top;
position = "{299, 638}";
}
);
layerId = "EA99615A-DD74-4F65-B9DC-480CDB683AEE";
paths = (
{
closed = 1;
nodes = (
"243 569 LINE",
"267 552 OFFCURVE",
"288 534 OFFCURVE",
"311 513 CURVE SMOOTH",
"548 295 OFFCURVE",
"588 95 OFFCURVE",
"269 90 CURVE SMOOTH",
"201 89 OFFCURVE",
"119 89 OFFCURVE",
"32 90 CURVE",
"30 0 LINE",
"164 -1 OFFCURVE",
"223 -1 OFFCURVE",
"269 0 CURVE SMOOTH",
"454 4 OFFCURVE",
"547 54 OFFCURVE",
"576 169 CURVE",
"654 75 OFFCURVE",
"752 4 OFFCURVE",
"930 0 CURVE",
"930 90 LINE",
"722 95 OFFCURVE",
"657 199 OFFCURVE",
"569 336 CURVE SMOOTH",
"527 401 OFFCURVE",
"493 448 OFFCURVE",
"437 509 CURVE SMOOTH",
"398 551 OFFCURVE",
"354 595 OFFCURVE",
"299 638 CURVE"
);
}
);
width = 930;
},
{
anchors = (
{
name = "#entry";
position = "{800, 0}";
},
{
name = top;
position = "{28, 500}";
}
);
annotations = (
{
position = "{274, 45}";
type = Minus;
},
{
position = "{290, 339}";
type = Minus;
},
{
position = "{283.239, 213.04}";
type = Minus;
},
{
position = "{439, 564}";
type = Plus;
},
{
position = "{529.667, 350.418}";
type = Plus;
},
{
position = "{691.649, 207.075}";
type = Plus;
},
{
position = "{596.546, -131.844}";
type = Plus;
},
{
position = "{367.624, -176.773}";
type = Plus;
},
{
position = "{190.049, -172.411}";
type = Plus;
},
{
position = "{254, -533}";
type = Text;
}
);
components = (
{
name = "dal-ar";
transform = "{1, 0, 0, 1, 3, 0}";
}
);
layerId = "9AB624CD-9C19-4372-9845-4C197A276709";
paths = (
{
closed = 1;
nodes = (
"477 191 LINE",
"502 87 OFFCURVE",
"571 -2 OFFCURVE",
"800 0 CURVE",
"800 60 LINE",
"605 62 OFFCURVE",
"554 124 OFFCURVE",
"533 214 CURVE"
);
}
);
width = 800;
}
);
},
{
export = 0;
glyphname = "reh-ar.001";
layers = (
{
anchors = (
{
name = "#entry";
position = "{231, 0}";
},
{
name = top;
position = "{257, 500}";
}
);
layerId = "7C6EC3B8-53E3-46D5-865A-ED8DFE2E3A2E";
paths = (
{
closed = 1;
nodes = (
"333 -246 OFFCURVE",
"261 187 OFFCURVE",
"264 483 CURVE",
"235 483 LINE",
"231 184 OFFCURVE",
"299 -228 OFFCURVE",
"-190 -464 CURVE",
"-177 -491 LINE"
);
}
);
width = 286;
},
{
anchors = (
{
name = "#entry";
position = "{348, 0}";
},
{
name = top;
position = "{280, 778}";
}
);
layerId = "EA99615A-DD74-4F65-B9DC-480CDB683AEE";
paths = (
{
closed = 1;
nodes = (
"291 149 OFFCURVE",
"313 -258 OFFCURVE",
"-40 -509 CURVE",
"12 -583 LINE",
"405 -302 OFFCURVE",
"381 155 OFFCURVE",
"343 589 CURVE",
"253 581 LINE"
);
}
);
width = 403;
},
{
anchors = (
{
name = "#entry";
position = "{287, 0}";
},
{
name = top;
position = "{236, 712}";
}
);
layerId = "9AB624CD-9C19-4372-9845-4C197A276709";
paths = (
{
closed = 1;
nodes = (
"341 -243 OFFCURVE",
"318 70 OFFCURVE",
"280 503 CURVE",
"220 497 LINE",
"258 66 OFFCURVE",
"279 -213 OFFCURVE",
"-60 -455 CURVE",
"-26 -503 LINE"
);
}
);
width = 330;
}
);
},
{
export = 0;
glyphname = "seen-ar.001";
layers = (
{
anchors = (
{
name = "#entry";
position = "{1355, 0}";
},
{
name = top;
position = "{954, 532}";
}
);
background = {
paths = (
{
closed = 0;
nodes = (
"1333 542 LINE",
"1344 491 OFFCURVE",
"1388 316 OFFCURVE",
"1388 178 CURVE SMOOTH",
"1388 76 OFFCURVE",
"1364 -19 OFFCURVE",
"1287 -19 CURVE SMOOTH",
"1238 -19 OFFCURVE",
"1136 27 OFFCURVE",
"1042 160 CURVE"
);
},
{
closed = 0;
nodes = (
"941 517 LINE",
"968 451 OFFCURVE",
"1042 286 OFFCURVE",
"1042 160 CURVE SMOOTH",
"1042 70 OFFCURVE",
"1004 -4 OFFCURVE",
"882 -1 CURVE SMOOTH",
"843 0 OFFCURVE",
"803 11 OFFCURVE",
"784 19 CURVE"
);
},
{
closed = 0;
nodes = (
"567 498 LINE",
"587 441 OFFCURVE",
"808 129 OFFCURVE",
"808 -158 CURVE SMOOTH",
"808 -755 OFFCURVE",
"31 -693 OFFCURVE",
"31 -60 CURVE SMOOTH",
"31 -19 OFFCURVE",
"36 22 OFFCURVE",
"48 63 CURVE SMOOTH"
);
}
);
};
layerId = "7C6EC3B8-53E3-46D5-865A-ED8DFE2E3A2E";
paths = (
{
closed = 1;
nodes = (
"1105 42 OFFCURVE",
"1210 -34 OFFCURVE",
"1284 -34 CURVE SMOOTH",
"1359 -34 OFFCURVE",
"1399 42 OFFCURVE",
"1399 178 CURVE SMOOTH",
"1399 318 OFFCURVE",
"1355 495 OFFCURVE",
"1344 545 CURVE",
"1315 539 LINE",
"1326 488 OFFCURVE",
"1369 315 OFFCURVE",
"1369 178 CURVE SMOOTH",
"1369 59 OFFCURVE",
"1338 -4 OFFCURVE",
"1284 -4 CURVE SMOOTH",
"1221 -4 OFFCURVE",
"1124 68 OFFCURVE",
"1052 169 CURVE",
"1028 151 LINE"
);
},
{
closed = 1;
nodes = (
"799 9 OFFCURVE",
"840 0 OFFCURVE",
"881 -1 CURVE SMOOTH",
"994 -4 OFFCURVE",
"1055 57 OFFCURVE",
"1055 173 CURVE SMOOTH",
"1055 302 OFFCURVE",
"980 467 OFFCURVE",
"954 532 CURVE",
"926 521 LINE",
"953 455 OFFCURVE",
"1025 295 OFFCURVE",
"1025 173 CURVE SMOOTH",
"1025 74 OFFCURVE",
"978 27 OFFCURVE",
"881 29 CURVE SMOOTH",
"844 30 OFFCURVE",
"806 38 OFFCURVE",
"788 43 CURVE",
"779 14 LINE"
);
},
{
closed = 1;
nodes = (
"25 27 OFFCURVE",
"20 -16 OFFCURVE",
"20 -60 CURVE SMOOTH",
"20 -712 OFFCURVE",
"822 -775 OFFCURVE",
"822 -158 CURVE SMOOTH",
"823 77 OFFCURVE",
"679 327 OFFCURVE",
"612 442 CURVE SMOOTH",
"596 470 OFFCURVE",
"585 489 OFFCURVE",
"582 498 CURVE",
"554 488 LINE",
"575 433 OFFCURVE",
"793 124 OFFCURVE",
"792 -158 CURVE SMOOTH",
"792 -734 OFFCURVE",
"50 -674 OFFCURVE",
"50 -60 CURVE SMOOTH",
"50 -18 OFFCURVE",
"55 21 OFFCURVE",
"66 59 CURVE",
"37 67 LINE"
);
}
);
width = 1409;
},
{
anchors = (
{
name = "#entry";
position = "{1473, 3}";
},
{
name = top;
position = "{835, 700}";
}
);
layerId = "EA99615A-DD74-4F65-B9DC-480CDB683AEE";
paths = (
{
closed = 1;
nodes = (
"-42 -213 OFFCURVE",
"113 -515 OFFCURVE",
"458 -515 CURVE SMOOTH",
"703 -515 OFFCURVE",
"801 -397 OFFCURVE",
"801 -101 CURVE SMOOTH",
"801 135 OFFCURVE",
"732 318 OFFCURVE",
"561 538 CURVE",
"490 482 LINE",
"648 282 OFFCURVE",
"711 116 OFFCURVE",
"711 -99 CURVE SMOOTH",
"711 -333 OFFCURVE",
"637 -426 OFFCURVE",
"452 -426 CURVE SMOOTH",
"183 -426 OFFCURVE",
"65 -173 OFFCURVE",
"143 95 CURVE",
"57 120 LINE"
);
},
{
closed = 1;
nodes = (
"942 462 OFFCURVE",
"1012 316 OFFCURVE",
"1012 202 CURVE SMOOTH",
"1012 108 OFFCURVE",
"963 59 OFFCURVE",
"866 59 CURVE SMOOTH",
"811 59 OFFCURVE",
"780 62 OFFCURVE",
"772 67 CURVE",
"727 -10 LINE",
"754 -27 OFFCURVE",
"802 -31 OFFCURVE",
"865 -31 CURVE SMOOTH",
"1012 -31 OFFCURVE",
"1102 57 OFFCURVE",
"1102 202 CURVE SMOOTH",
"1102 336 OFFCURVE",
"1021 504 OFFCURVE",
"995 549 CURVE",
"917 504 LINE"
);
},
{
closed = 1;
nodes = (
"1370 482 OFFCURVE",
"1413 306 OFFCURVE",
"1413 168 CURVE SMOOTH",
"1413 37 OFFCURVE",
"1377 -29 OFFCURVE",
"1315 -29 CURVE SMOOTH",
"1249 -29 OFFCURVE",
"1149 44 OFFCURVE",
"1076 149 CURVE",
"1002 98 LINE",
"1093 -32 OFFCURVE",
"1217 -119 OFFCURVE",
"1315 -119 CURVE SMOOTH",
"1435 -119 OFFCURVE",
"1503 -12 OFFCURVE",
"1503 168 CURVE SMOOTH",
"1503 317 OFFCURVE",
"1458 502 OFFCURVE",
"1447 551 CURVE",
"1359 532 LINE"
);
},
{
closed = 1;
nodes = (
"2076 -269 OFFCURVE",
"2074 -4 OFFCURVE",
"2052 190 CURVE",
"1962 181 LINE",
"1972 153 OFFCURVE",
"1971 -267 OFFCURVE",
"2212 -267 CURVE SMOOTH",
"2438 -267 OFFCURVE",
"2438 -6 OFFCURVE",
"2416 258 CURVE",
"2326 249 LINE",
"2336 161 OFFCURVE",
"2332 -271 OFFCURVE",
"2573 -271 CURVE SMOOTH",
"2799 -271 OFFCURVE",
"2797 -6 OFFCURVE",
"2765 328 CURVE",
"2675 320 LINE",
"2712 -75 OFFCURVE",
"2684 -181 OFFCURVE",
"2573 -181 CURVE SMOOTH",
"2422 -181 OFFCURVE",
"2426 165 OFFCURVE",
"2416 259 CURVE",
"2326 250 LINE",
"2353 -71 OFFCURVE",
"2324 -177 OFFCURVE",
"2212 -177 CURVE SMOOTH",
"2061 -177 OFFCURVE",
"2062 97 OFFCURVE",
"2052 191 CURVE",
"1962 182 LINE",
"1989 -73 OFFCURVE",
"1961 -179 OFFCURVE",
"1740 -179 CURVE",
"1740 -269 LINE"
);
}
);
width = 1543;
},
{
anchors = (
{
name = "#entry";
position = "{1461, 3}";
},
{
name = top;
position = "{1032, 805}";
}
);
layerId = "9AB624CD-9C19-4372-9845-4C197A276709";
paths = (
{
closed = 1;
nodes = (
"1396 488 OFFCURVE",
"1439 314 OFFCURVE",
"1439 178 CURVE SMOOTH",
"1439 57 OFFCURVE",
"1408 -4 OFFCURVE",
"1354 -4 CURVE SMOOTH",
"1291 -4 OFFCURVE",
"1194 67 OFFCURVE",
"1123 168 CURVE",
"1073 134 LINE",
"1156 16 OFFCURVE",
"1270 -64 OFFCURVE",
"1354 -64 CURVE SMOOTH",
"1448 -64 OFFCURVE",
"1499 24 OFFCURVE",
"1499 178 CURVE SMOOTH",
"1499 322 OFFCURVE",
"1454 502 OFFCURVE",
"1443 551 CURVE",
"1385 539 LINE"
);
},
{
closed = 1;
nodes = (
"1002 455 OFFCURVE",
"1075 296 OFFCURVE",
"1075 173 CURVE SMOOTH",
"1075 74 OFFCURVE",
"1028 26 OFFCURVE",
"932 29 CURVE SMOOTH",
"904 30 OFFCURVE",
"870 35 OFFCURVE",
"836 43 CURVE",
"822 -15 LINE",
"842 -20 OFFCURVE",
"886 -30 OFFCURVE",
"930 -31 CURVE SMOOTH",
"1060 -34 OFFCURVE",
"1135 40 OFFCURVE",
"1135 173 CURVE SMOOTH",
"1135 308 OFFCURVE",
"1058 479 OFFCURVE",
"1032 543 CURVE",
"976 521 LINE"
);
},
{
closed = 1;
nodes = (
"597 479 OFFCURVE",
"602 468 OFFCURVE",
"626 427 CURVE SMOOTH",
"693 312 OFFCURVE",
"833 69 OFFCURVE",
"832 -158 CURVE SMOOTH",
"829 -734 OFFCURVE",
"90 -674 OFFCURVE",
"90 -60 CURVE",
"30 -60 LINE",
"30 -750 OFFCURVE",
"892 -817 OFFCURVE",
"892 -158 CURVE SMOOTH",
"892 85 OFFCURVE",
"745 342 OFFCURVE",
"678 457 CURVE SMOOTH",
"656 495 OFFCURVE",
"652 503 OFFCURVE",
"650 507 CURVE",
"594 489 LINE"
);
}
);
width = 1529;
}
);
},
{
export = 0;
glyphname = "seen-ar.init.001";
layers = (
{
anchors = (
{
name = "#entry";
position = "{813, 0}";
},
{
name = "#exit";
position = "{0, 0}";
},
{
name = bottom;
position = "{552, 0}";
},
{
name = top;
position = "{506, 500}";
}
);
layerId = "7C6EC3B8-53E3-46D5-865A-ED8DFE2E3A2E";
paths = (
{
closed = 1;
nodes = (
"571 69 OFFCURVE",
"655 0 OFFCURVE",
"726 0 CURVE SMOOTH",
"871 0 OFFCURVE",
"839 246 OFFCURVE",
"786 536 CURVE",
"756 532 LINE",
"809 242 OFFCURVE",
"837 30 OFFCURVE",
"726 30 CURVE SMOOTH",
"667 30 OFFCURVE",
"594 91 OFFCURVE",
"564 167 CURVE",
"536 155 LINE"
);
},
{
closed = 1;
nodes = (
"277 -40 OFFCURVE",
"565 -58 OFFCURVE",
"565 140 CURVE SMOOTH",
"565 201 OFFCURVE",
"565 240 OFFCURVE",
"519 478 CURVE",
"489 472 LINE",
"535 236 OFFCURVE",
"535 201 OFFCURVE",
"535 140 CURVE SMOOTH",
"535 -24 OFFCURVE",
"294 3 OFFCURVE",
"255 174 CURVE",
"227 164 LINE"
);
},
{
closed = 1;
nodes = (
"253 172 OFFCURVE",
"261 33 OFFCURVE",
"0 30 CURVE",
"0 0 LINE",
"293 3 OFFCURVE",
"283 174 OFFCURVE",
"260 508 CURVE",
"230 506 LINE"
);
}
);
width = 851;
},
{
anchors = (
{
name = "#entry";
position = "{0, 0}";
},
{
name = top;
position = "{613, 748}";
}
);
layerId = "EA99615A-DD74-4F65-B9DC-480CDB683AEE";
paths = (
{
closed = 1;
nodes = (
"336 0 OFFCURVE",
"334 265 OFFCURVE",
"312 459 CURVE",
"222 450 LINE",
"232 422 OFFCURVE",
"231 2 OFFCURVE",
"472 2 CURVE SMOOTH",
"698 2 OFFCURVE",
"698 263 OFFCURVE",
"676 527 CURVE",
"586 518 LINE",
"596 430 OFFCURVE",
"592 -2 OFFCURVE",
"833 -2 CURVE SMOOTH",
"1059 -2 OFFCURVE",
"1057 263 OFFCURVE",
"1025 597 CURVE",
"935 589 LINE",
"972 194 OFFCURVE",
"944 88 OFFCURVE",
"833 88 CURVE SMOOTH",
"682 88 OFFCURVE",
"686 434 OFFCURVE",
"676 528 CURVE",
"586 519 LINE",
"613 198 OFFCURVE",
"584 92 OFFCURVE",
"472 92 CURVE SMOOTH",
"321 92 OFFCURVE",
"322 366 OFFCURVE",
"312 460 CURVE",
"222 451 LINE",
"249 196 OFFCURVE",
"221 90 OFFCURVE",
"0 90 CURVE",
"0 0 LINE"
);
}
);
width = 1080;
},
{
anchors = (
{
name = "#entry";
position = "{1178, 0}";
},
{
name = "#exit";
position = "{0, 0}";
},
{
name = bottom;
position = "{765, 0}";
},
{
name = top;
position = "{802, 571}";
}
);
layerId = "9AB624CD-9C19-4372-9845-4C197A276709";
paths = (
{
closed = 1;
nodes = (
"802 198 OFFCURVE",
"756 62 OFFCURVE",
"598 62 CURVE SMOOTH",
"386 62 OFFCURVE",
"378 441 OFFCURVE",
"378 500 CURVE",
"318 500 LINE",
"318 441 OFFCURVE",
"328 2 OFFCURVE",
"598 2 CURVE SMOOTH",
"854 2 OFFCURVE",
"854 294 OFFCURVE",
"832 509 CURVE",
"772 505 LINE"
);
},
{
closed = 1;
nodes = (
"1252 202 OFFCURVE",
"1210 58 OFFCURVE",
"1049 58 CURVE SMOOTH",
"838 58 OFFCURVE",
"842 420 OFFCURVE",
"832 509 CURVE",
"772 505 LINE",
"782 418 OFFCURVE",
"778 -2 OFFCURVE",
"1049 -2 CURVE SMOOTH",
"1305 -2 OFFCURVE",
"1303 295 OFFCURVE",
"1271 570 CURVE",
"1211 564 LINE"
);
},
{
closed = 1;
nodes = (
"318 304 OFFCURVE",
"384 60 OFFCURVE",
"0 60 CURVE",
"0 0 LINE",
"448 1 OFFCURVE",
"378 307 OFFCURVE",
"378 500 CURVE",
"318 500 LINE"
);
}
);
width = 1316;
}
);
},
{
export = 0;
glyphname = "ain-ar.init.001";
layers = (
{
anchors = (
{
name = bottom;
position = "{302, -4}";
},
{
name = top;
position = "{322, 531}";
}
);
layerId = "7C6EC3B8-53E3-46D5-865A-ED8DFE2E3A2E";
paths = (
{
closed = 1;
nodes = (
"166 78 OFFCURVE",
"88 168 OFFCURVE",
"88 253 CURVE SMOOTH",
"88 402 OFFCURVE",
"197 500 OFFCURVE",
"364 500 CURVE SMOOTH",
"391 500 OFFCURVE",
"426 493 OFFCURVE",
"453 483 CURVE",
"463 511 LINE",
"434 522 OFFCURVE",
"395 530 OFFCURVE",
"364 530 CURVE SMOOTH",
"181 530 OFFCURVE",
"58 419 OFFCURVE",
"58 253 CURVE SMOOTH",
"58 156 OFFCURVE",
"144 55 OFFCURVE",
"272 -1 CURVE",
"284 27 LINE"
);
},
{
closed = 1;
nodes = (
"0 0 LINE",
"57 -2 OFFCURVE",
"119 -4 OFFCURVE",
"174 -4 CURVE SMOOTH",
"302 -4 OFFCURVE",
"457 3 OFFCURVE",
"562 14 CURVE",
"558 44 LINE",
"456 33 OFFCURVE",
"303 26 OFFCURVE",
"174 26 CURVE SMOOTH",
"118 26 OFFCURVE",
"56 28 OFFCURVE",
"0 30 CURVE"
);
}
);
width = 602;
},
{
anchors = (
{
name = "#entry";
position = "{0, 0}";
},
{
name = top;
position = "{320, 793}";
}
);
components = (
{
name = _connection2;
}
);
layerId = "EA99615A-DD74-4F65-B9DC-480CDB683AEE";
paths = (
{
closed = 1;
nodes = (
"502 594 LINE",
"464 595 OFFCURVE",
"369 595 OFFCURVE",
"318 595 CURVE SMOOTH",
"121 595 OFFCURVE",
"23 483 OFFCURVE",
"23 266 CURVE SMOOTH",
"23 97 OFFCURVE",
"119 0 OFFCURVE",
"297 0 CURVE SMOOTH",
"344 0 OFFCURVE",
"456 1 OFFCURVE",
"572 4 CURVE",
"570 94 LINE",
"454 91 OFFCURVE",
"345 89 OFFCURVE",
"299 90 CURVE SMOOTH",
"170 93 OFFCURVE",
"113 147 OFFCURVE",
"113 266 CURVE SMOOTH",
"113 435 OFFCURVE",
"173 505 OFFCURVE",
"318 505 CURVE SMOOTH",
"375 505 OFFCURVE",
"457 504 OFFCURVE",
"502 504 CURVE"
);
}
);
width = 612;
},
{
anchors = (
{
name = "#entry";
position = "{0, 0}";
},
{
name = bottom;
position = "{301, 0}";
},
{
name = top;
position = "{280, 518}";
}
);
layerId = "9AB624CD-9C19-4372-9845-4C197A276709";
paths = (
{
closed = 1;
nodes = (
"405 71 OFFCURVE",
"221 60 OFFCURVE",
"0 60 CURVE",
"0 0 LINE",
"191 0 OFFCURVE",
"389 8 OFFCURVE",
"572 34 CURVE",
"564 94 LINE"
);
},
{
closed = 1;
nodes = (
"86 674 OFFCURVE",
"-139 137 OFFCURVE",
"244 5 CURVE",
"264 61 LINE",
"-39 165 OFFCURVE",
"132 580 OFFCURVE",
"427 420 CURVE",
"455 472 LINE"
);
}
);
width = 602;
}
);
},
{
export = 0;
glyphname = "fehDotless-ar.001";
layers = (
{
anchors = (
{
name = bottom;
position = "{786, 0}";
},
{
name = top;
position = "{965, 584}";
}
);
layerId = "7C6EC3B8-53E3-46D5-865A-ED8DFE2E3A2E";
paths = (
{
closed = 1;
nodes = (
"864 -5 OFFCURVE",
"914 0 CURVE SMOOTH",
"1091 18 OFFCURVE",
"1287 31 OFFCURVE",
"1287 239 CURVE SMOOTH",
"1287 476 OFFCURVE",
"1106 659 OFFCURVE",
"906 546 CURVE SMOOTH",
"812 492 OFFCURVE",
"756 400 OFFCURVE",
"756 298 CURVE SMOOTH",
"756 160 OFFCURVE",
"839 117 OFFCURVE",
"996 117 CURVE SMOOTH",
"1091 117 OFFCURVE",
"1218 146 OFFCURVE",
"1314 189 CURVE",
"1302 216 LINE",
"1210 179 OFFCURVE",
"1086 147 OFFCURVE",
"996 147 CURVE SMOOTH",
"859 147 OFFCURVE",
"788 174 OFFCURVE",
"786 298 CURVE",
"786 389 OFFCURVE",
"836 472 OFFCURVE",
"921 520 CURVE SMOOTH",
"1098 620 OFFCURVE",
"1257 454 OFFCURVE",
"1257 240 CURVE SMOOTH",
"1257 91 OFFCURVE",
"1151 46 OFFCURVE",
"914 30 CURVE SMOOTH",
"842 25 OFFCURVE",
"559 24 OFFCURVE",
"467 29 CURVE SMOOTH",
"107 49 OFFCURVE",
"0 184 OFFCURVE",
"113 558 CURVE",
"84 568 LINE",
"-34 175 OFFCURVE",
"85 23 OFFCURVE",
"467 0 CURVE SMOOTH",
"550 -5 OFFCURVE"
);
}
);
width = 1354;
},
{
anchors = (
{
name = top;
position = "{1079, 1000}";
}
);
layerId = "EA99615A-DD74-4F65-B9DC-480CDB683AEE";
paths = (
{
closed = 1;
nodes = (
"51 465 OFFCURVE",
"44 380 OFFCURVE",
"44 321 CURVE SMOOTH",
"44 114 OFFCURVE",
"175 21 OFFCURVE",
"471 0 CURVE SMOOTH",
"499 -2 OFFCURVE",
"957 -3 OFFCURVE",
"1029 -3 CURVE SMOOTH",
"1409 -3 OFFCURVE",
"1389 130 OFFCURVE",
"1389 452 CURVE SMOOTH",
"1389 685 OFFCURVE",
"1298 781 OFFCURVE",
"1079 781 CURVE SMOOTH",
"882 781 OFFCURVE",
"784 669 OFFCURVE",
"784 452 CURVE SMOOTH",
"784 283 OFFCURVE",
"880 190 OFFCURVE",
"1058 186 CURVE SMOOTH",
"1106 185 OFFCURVE",
"1218 188 OFFCURVE",
"1334 194 CURVE",
"1330 284 LINE",
"1214 278 OFFCURVE",
"1105 275 OFFCURVE",
"1060 276 CURVE SMOOTH",
"931 279 OFFCURVE",
"874 333 OFFCURVE",
"874 452 CURVE SMOOTH",
"874 621 OFFCURVE",
"934 691 OFFCURVE",
"1079 691 CURVE SMOOTH",
"1246 691 OFFCURVE",
"1299 635 OFFCURVE",
"1299 452 CURVE SMOOTH",
"1299 124 OFFCURVE",
"1305 87 OFFCURVE",
"1029 87 CURVE SMOOTH",
"957 87 OFFCURVE",
"503 88 OFFCURVE",
"477 90 CURVE SMOOTH",
"225 109 OFFCURVE",
"134 169 OFFCURVE",
"134 321 CURVE SMOOTH",
"134 376 OFFCURVE",
"140 457 OFFCURVE",
"153 563 CURVE",
"63 573 LINE"
);
}
);
width = 1416;
},
{
anchors = (
{
name = top;
position = "{1040, 836}";
}
);
layerId = "9AB624CD-9C19-4372-9845-4C197A276709";
paths = (
{
closed = 1;
nodes = (
"30 178 OFFCURVE",
"131 27 OFFCURVE",
"512 4 CURVE SMOOTH",
"594 -1 OFFCURVE",
"907 -1 OFFCURVE",
"956 4 CURVE SMOOTH",
"1133 22 OFFCURVE",
"1316 34 OFFCURVE",
"1316 228 CURVE SMOOTH",
"1316 487 OFFCURVE",
"1126 678 OFFCURVE",
"957 582 CURVE SMOOTH",
"869 532 OFFCURVE",
"815 444 OFFCURVE",
"815 347 CURVE SMOOTH",
"815 220 OFFCURVE",
"888 161 OFFCURVE",
"1040 161 CURVE SMOOTH",
"1140 161 OFFCURVE",
"1263 182 OFFCURVE",
"1302 205 CURVE",
"1270 257 LINE",
"1242 239 OFFCURVE",
"1127 221 OFFCURVE",
"1040 221 CURVE SMOOTH",
"919 221 OFFCURVE",
"875 256 OFFCURVE",
"875 347 CURVE SMOOTH",
"875 423 OFFCURVE",
"916 490 OFFCURVE",
"987 530 CURVE SMOOTH",
"1111 600 OFFCURVE",
"1256 440 OFFCURVE",
"1256 228 CURVE SMOOTH",
"1256 90 OFFCURVE",
"1129 84 OFFCURVE",
"950 64 CURVE SMOOTH",
"905 59 OFFCURVE",
"594 59 OFFCURVE",
"516 64 CURVE SMOOTH",
"175 86 OFFCURVE",
"98 198 OFFCURVE",
"200 535 CURVE",
"142 553 LINE"
);
}
);
width = 1359;
}
);
},
{
export = 0;
glyphname = "fehDotless-ar.fina.001";
layers = (
{
anchors = (
{
name = "#entry";
position = "{1239, 0}";
},
{
name = top;
position = "{970, 603}";
}
);
layerId = "7C6EC3B8-53E3-46D5-865A-ED8DFE2E3A2E";
paths = (
{
closed = 1;
nodes = (
"1086 31 OFFCURVE",
"887 42 OFFCURVE",
"791 142 CURVE SMOOTH",
"629 311 OFFCURVE",
"740 573 OFFCURVE",
"970 573 CURVE SMOOTH",
"1097 573 OFFCURVE",
"1197 455 OFFCURVE",
"1197 309 CURVE SMOOTH",
"1197 126 OFFCURVE",
"1051 30 OFFCURVE",
"770 30 CURVE SMOOTH",
"735 30 OFFCURVE",
"695 30 OFFCURVE",
"649 30 CURVE SMOOTH",
"587 30 OFFCURVE",
"514 29 OFFCURVE",
"427 29 CURVE SMOOTH",
"144 29 OFFCURVE",
"15 125 OFFCURVE",
"15 331 CURVE SMOOTH",
"15 399 OFFCURVE",
"29 480 OFFCURVE",
"58 578 CURVE",
"30 586 LINE",
"0 486 OFFCURVE",
"-15 403 OFFCURVE",
"-15 331 CURVE SMOOTH",
"-15 106 OFFCURVE",
"129 -1 OFFCURVE",
"427 -1 CURVE SMOOTH",
"578 -1 OFFCURVE",
"687 0 OFFCURVE",
"770 0 CURVE SMOOTH",
"1067 0 OFFCURVE",
"1227 107 OFFCURVE",
"1227 309 CURVE SMOOTH",
"1227 472 OFFCURVE",
"1114 603 OFFCURVE",
"970 603 CURVE SMOOTH",
"713 603 OFFCURVE",
"588 309 OFFCURVE",
"769 122 CURVE SMOOTH",
"874 13 OFFCURVE",
"1086 1 OFFCURVE",
"1239 0 CURVE",
"1239 30 LINE"
);
}
);
width = 1239;
},
{
anchors = (
{
name = "#entry";
position = "{1419, 0}";
},
{
name = top;
position = "{1070, 920}";
}
);
layerId = "EA99615A-DD74-4F65-B9DC-480CDB683AEE";
paths = (
{
closed = 1;
nodes = (
"1110 92 OFFCURVE",
"972 125 OFFCURVE",
"901 198 CURVE SMOOTH",
"748 356 OFFCURVE",
"852 603 OFFCURVE",
"1070 603 CURVE SMOOTH",
"1188 603 OFFCURVE",
"1282 493 OFFCURVE",
"1282 354 CURVE SMOOTH",
"1282 180 OFFCURVE",
"1143 90 OFFCURVE",
"870 90 CURVE SMOOTH",
"835 90 OFFCURVE",
"795 90 OFFCURVE",
"748 90 CURVE SMOOTH",
"686 90 OFFCURVE",
"614 89 OFFCURVE",
"527 89 CURVE SMOOTH",
"251 89 OFFCURVE",
"130 179 OFFCURVE",
"130 376 CURVE SMOOTH",
"130 443 OFFCURVE",
"144 520 OFFCURVE",
"173 618 CURVE",
"87 644 LINE",
"55 539 OFFCURVE",
"40 451 OFFCURVE",
"40 376 CURVE SMOOTH",
"40 125 OFFCURVE",
"204 -1 OFFCURVE",
"527 -1 CURVE SMOOTH",
"678 -1 OFFCURVE",
"787 0 OFFCURVE",
"870 0 CURVE SMOOTH",
"1192 0 OFFCURVE",
"1372 125 OFFCURVE",
"1372 354 CURVE SMOOTH",
"1372 542 OFFCURVE",
"1239 693 OFFCURVE",
"1070 693 CURVE SMOOTH",
"773 693 OFFCURVE",
"630 352 OFFCURVE",
"837 136 CURVE SMOOTH",
"927 42 OFFCURVE",
"1084 2 OFFCURVE",
"1419 0 CURVE",
"1419 90 LINE"
);
}
);
width = 1419;
},
{
anchors = (
{
name = "#entry";
position = "{1459, 0}";
},
{
name = top;
position = "{1110, 839}";
}
);
layerId = "9AB624CD-9C19-4372-9845-4C197A276709";
paths = (
{
closed = 1;
nodes = (
"154 465 OFFCURVE",
"140 385 OFFCURVE",
"140 316 CURVE SMOOTH",
"140 99 OFFCURVE",
"277 -1 OFFCURVE",
"567 -1 CURVE SMOOTH",
"617 -1 OFFCURVE",
"719 -2 OFFCURVE",
"801 0 CURVE SMOOTH",
"852 1 OFFCURVE",
"896 0 OFFCURVE",
"910 0 CURVE SMOOTH",
"1199 0 OFFCURVE",
"1352 101 OFFCURVE",
"1352 294 CURVE SMOOTH",
"1352 449 OFFCURVE",
"1245 573 OFFCURVE",
"1110 573 CURVE SMOOTH",
"866 573 OFFCURVE",
"747 293 OFFCURVE",
"919 117 CURVE SMOOTH",
"1000 34 OFFCURVE",
"1152 2 OFFCURVE",
"1459 0 CURVE",
"1459 60 LINE",
"1169 62 OFFCURVE",
"1029 90 OFFCURVE",
"963 159 CURVE SMOOTH",
"829 299 OFFCURVE",
"918 513 OFFCURVE",
"1110 513 CURVE SMOOTH",
"1211 513 OFFCURVE",
"1292 416 OFFCURVE",
"1292 294 CURVE SMOOTH",
"1292 139 OFFCURVE",
"1167 60 OFFCURVE",
"910 60 CURVE SMOOTH",
"896 60 OFFCURVE",
"854 60 OFFCURVE",
"800 60 CURVE SMOOTH",
"720 60 OFFCURVE",
"617 59 OFFCURVE",
"567 59 CURVE SMOOTH",
"308 59 OFFCURVE",
"200 136 OFFCURVE",
"200 316 CURVE SMOOTH",
"200 379 OFFCURVE",
"213 453 OFFCURVE",
"242 549 CURVE",
"184 567 LINE"
);
}
);
width = 1459;
}
);
},
{
export = 0;
glyphname = "fehDotless-ar.fina.002";
layers = (
{
anchors = (
{
name = "#entry";
position = "{1239, 0}";
},
{
name = top;
position = "{970, 603}";
}
);
layerId = "7C6EC3B8-53E3-46D5-865A-ED8DFE2E3A2E";
paths = (
{
closed = 1;
nodes = (
"1086 31 OFFCURVE",
"887 42 OFFCURVE",
"791 142 CURVE SMOOTH",
"629 311 OFFCURVE",
"740 573 OFFCURVE",
"970 573 CURVE SMOOTH",
"1097 573 OFFCURVE",
"1197 455 OFFCURVE",
"1197 309 CURVE SMOOTH",
"1197 126 OFFCURVE",
"1051 30 OFFCURVE",
"770 30 CURVE SMOOTH",
"735 30 OFFCURVE",
"695 30 OFFCURVE",
"649 30 CURVE SMOOTH",
"587 30 OFFCURVE",
"514 29 OFFCURVE",
"427 29 CURVE SMOOTH",
"144 29 OFFCURVE",
"15 125 OFFCURVE",
"15 331 CURVE SMOOTH",
"15 399 OFFCURVE",
"29 480 OFFCURVE",
"58 578 CURVE",
"30 586 LINE",
"0 486 OFFCURVE",
"-15 403 OFFCURVE",
"-15 331 CURVE SMOOTH",
"-15 106 OFFCURVE",
"129 -1 OFFCURVE",
"427 -1 CURVE SMOOTH",
"578 -1 OFFCURVE",
"687 0 OFFCURVE",
"770 0 CURVE SMOOTH",
"1067 0 OFFCURVE",
"1227 107 OFFCURVE",
"1227 309 CURVE SMOOTH",
"1227 472 OFFCURVE",
"1114 603 OFFCURVE",
"970 603 CURVE SMOOTH",
"713 603 OFFCURVE",
"588 309 OFFCURVE",
"769 122 CURVE SMOOTH",
"874 13 OFFCURVE",
"1086 1 OFFCURVE",
"1239 0 CURVE",
"1239 30 LINE"
);
}
);
width = 1239;
},
{
anchors = (
{
name = "#entry";
position = "{1419, 0}";
},
{
name = top;
position = "{1070, 920}";
}
);
layerId = "EA99615A-DD74-4F65-B9DC-480CDB683AEE";
paths = (
{
closed = 1;
nodes = (
"1110 92 OFFCURVE",
"972 125 OFFCURVE",
"901 198 CURVE SMOOTH",
"748 356 OFFCURVE",
"852 603 OFFCURVE",
"1070 603 CURVE SMOOTH",
"1188 603 OFFCURVE",
"1282 493 OFFCURVE",
"1282 354 CURVE SMOOTH",
"1282 180 OFFCURVE",
"1143 90 OFFCURVE",
"870 90 CURVE SMOOTH",
"835 90 OFFCURVE",
"795 90 OFFCURVE",
"748 90 CURVE SMOOTH",
"686 90 OFFCURVE",
"614 89 OFFCURVE",
"527 89 CURVE SMOOTH",
"251 89 OFFCURVE",
"130 179 OFFCURVE",
"130 376 CURVE SMOOTH",
"130 443 OFFCURVE",
"144 520 OFFCURVE",
"173 618 CURVE",
"87 644 LINE",
"55 539 OFFCURVE",
"40 451 OFFCURVE",
"40 376 CURVE SMOOTH",
"40 125 OFFCURVE",
"204 -1 OFFCURVE",
"527 -1 CURVE SMOOTH",
"678 -1 OFFCURVE",
"787 0 OFFCURVE",
"870 0 CURVE SMOOTH",
"1192 0 OFFCURVE",
"1372 125 OFFCURVE",
"1372 354 CURVE SMOOTH",
"1372 542 OFFCURVE",
"1239 693 OFFCURVE",
"1070 693 CURVE SMOOTH",
"773 693 OFFCURVE",
"630 352 OFFCURVE",
"837 136 CURVE SMOOTH",
"927 42 OFFCURVE",
"1084 2 OFFCURVE",
"1419 0 CURVE",
"1419 90 LINE"
);
},
{
closed = 1;
nodes = (
"1892 17 LINE",
"2027 16 OFFCURVE",
"2175 17 OFFCURVE",
"2214 17 CURVE SMOOTH",
"2594 17 OFFCURVE",
"2574 150 OFFCURVE",
"2574 472 CURVE SMOOTH",
"2574 705 OFFCURVE",
"2483 801 OFFCURVE",
"2264 801 CURVE SMOOTH",
"2067 801 OFFCURVE",
"1969 689 OFFCURVE",
"1969 472 CURVE SMOOTH",
"1969 303 OFFCURVE",
"2065 210 OFFCURVE",
"2243 206 CURVE SMOOTH",
"2291 205 OFFCURVE",
"2403 208 OFFCURVE",
"2519 214 CURVE",
"2515 304 LINE",
"2399 298 OFFCURVE",
"2290 295 OFFCURVE",
"2245 296 CURVE SMOOTH",
"2116 299 OFFCURVE",
"2059 353 OFFCURVE",
"2059 472 CURVE SMOOTH",
"2059 641 OFFCURVE",
"2119 711 OFFCURVE",
"2264 711 CURVE SMOOTH",
"2431 711 OFFCURVE",
"2484 655 OFFCURVE",
"2484 472 CURVE SMOOTH",
"2484 144 OFFCURVE",
"2490 107 OFFCURVE",
"2214 107 CURVE SMOOTH",
"2175 107 OFFCURVE",
"2027 106 OFFCURVE",
"1892 107 CURVE"
);
}
);
width = 1419;
},
{
anchors = (
{
name = "#entry";
position = "{1459, 0}";
},
{
name = top;
position = "{1110, 839}";
}
);
layerId = "9AB624CD-9C19-4372-9845-4C197A276709";
paths = (
{
closed = 1;
nodes = (
"154 465 OFFCURVE",
"140 385 OFFCURVE",
"140 316 CURVE SMOOTH",
"140 99 OFFCURVE",
"277 -1 OFFCURVE",
"567 -1 CURVE SMOOTH",
"617 -1 OFFCURVE",
"719 -2 OFFCURVE",
"801 0 CURVE SMOOTH",
"852 1 OFFCURVE",
"896 0 OFFCURVE",
"910 0 CURVE SMOOTH",
"1199 0 OFFCURVE",
"1352 101 OFFCURVE",
"1352 294 CURVE SMOOTH",
"1352 449 OFFCURVE",
"1245 573 OFFCURVE",
"1110 573 CURVE SMOOTH",
"866 573 OFFCURVE",
"747 293 OFFCURVE",
"919 117 CURVE SMOOTH",
"1000 34 OFFCURVE",
"1152 2 OFFCURVE",
"1459 0 CURVE",
"1459 60 LINE",
"1169 62 OFFCURVE",
"1029 90 OFFCURVE",
"963 159 CURVE SMOOTH",
"829 299 OFFCURVE",
"918 513 OFFCURVE",
"1110 513 CURVE SMOOTH",
"1211 513 OFFCURVE",
"1292 416 OFFCURVE",
"1292 294 CURVE SMOOTH",
"1292 139 OFFCURVE",
"1167 60 OFFCURVE",
"910 60 CURVE SMOOTH",
"896 60 OFFCURVE",
"854 60 OFFCURVE",
"800 60 CURVE SMOOTH",
"720 60 OFFCURVE",
"617 59 OFFCURVE",
"567 59 CURVE SMOOTH",
"308 59 OFFCURVE",
"200 136 OFFCURVE",
"200 316 CURVE SMOOTH",
"200 379 OFFCURVE",
"213 453 OFFCURVE",
"242 549 CURVE",
"184 567 LINE"
);
}
);
width = 1459;
}
);
},
{
export = 0;
glyphname = "fehDotless-ar.init.001";
layers = (
{
anchors = (
{
name = "#entry";
position = "{0, 0}";
},
{
name = top;
position = "{335, 575}";
}
);
layerId = "7C6EC3B8-53E3-46D5-865A-ED8DFE2E3A2E";
paths = (
{
closed = 1;
nodes = (
"0 0 LINE",
"-1 0 OFFCURVE",
"180 -3 OFFCURVE",
"223 -3 CURVE SMOOTH",
"422 -2 OFFCURVE",
"596 -22 OFFCURVE",
"596 236 CURVE SMOOTH",
"596 409 OFFCURVE",
"502 575 OFFCURVE",
"335 575 CURVE SMOOTH",
"194 575 OFFCURVE",
"65 445 OFFCURVE",
"65 295 CURVE SMOOTH",
"65 153 OFFCURVE",
"149 114 OFFCURVE",
"305 114 CURVE SMOOTH",
"422 114 OFFCURVE",
"527 143 OFFCURVE",
"623 186 CURVE",
"611 213 LINE",
"519 172 OFFCURVE",
"395 144 OFFCURVE",
"305 144 CURVE SMOOTH",
"168 144 OFFCURVE",
"97 171 OFFCURVE",
"95 295 CURVE SMOOTH",
"95 427 OFFCURVE",
"208 545 OFFCURVE",
"335 545 CURVE SMOOTH",
"482 545 OFFCURVE",
"566 394 OFFCURVE",
"566 237 CURVE SMOOTH",
"566 38 OFFCURVE",
"482 23 OFFCURVE",
"223 27 CURVE SMOOTH",
"188 28 OFFCURVE",
"3 30 OFFCURVE",
"0 30 CURVE"
);
}
);
width = 600;
},
{
anchors = (
{
name = "#entry";
position = "{0, 0}";
},
{
name = top;
position = "{367, 840}";
}
);
layerId = "EA99615A-DD74-4F65-B9DC-480CDB683AEE";
paths = (
{
closed = 1;
nodes = (
"273 0 LINE SMOOTH",
"470 0 OFFCURVE",
"691 -64 OFFCURVE",
"691 354 CURVE SMOOTH",
"691 573 OFFCURVE",
"562 738 OFFCURVE",
"385 738 CURVE SMOOTH",
"218 738 OFFCURVE",
"70 586 OFFCURVE",
"70 413 CURVE SMOOTH",
"70 255 OFFCURVE",
"159 187 OFFCURVE",
"355 187 CURVE SMOOTH",
"466 187 OFFCURVE",
"585 212 OFFCURVE",
"665 252 CURVE",
"625 332 LINE",
"556 298 OFFCURVE",
"454 277 OFFCURVE",
"355 277 CURVE SMOOTH",
"206 277 OFFCURVE",
"160 311 OFFCURVE",
"160 413 CURVE SMOOTH",
"160 536 OFFCURVE",
"267 648 OFFCURVE",
"385 648 CURVE SMOOTH",
"509 648 OFFCURVE",
"601 524 OFFCURVE",
"601 354 CURVE SMOOTH",
"601 36 OFFCURVE",
"474 90 OFFCURVE",
"273 90 CURVE SMOOTH",
"0 90 LINE",
"0 0 LINE"
);
}
);
width = 731;
},
{
anchors = (
{
name = "#entry";
position = "{0, 0}";
},
{
name = top;
position = "{385, 793}";
}
);
layerId = "9AB624CD-9C19-4372-9845-4C197A276709";
paths = (
{
closed = 1;
nodes = (
"273 0 LINE SMOOTH",
"474 0 OFFCURVE",
"631 -5 OFFCURVE",
"631 234 CURVE SMOOTH",
"631 420 OFFCURVE",
"527 558 OFFCURVE",
"385 558 CURVE SMOOTH",
"251 558 OFFCURVE",
"130 433 OFFCURVE",
"130 293 CURVE SMOOTH",
"130 171 OFFCURVE",
"192 127 OFFCURVE",
"355 127 CURVE SMOOTH",
"468 127 OFFCURVE",
"551 142 OFFCURVE",
"618 175 CURVE",
"592 229 LINE",
"533 200 OFFCURVE",
"460 187 OFFCURVE",
"355 187 CURVE SMOOTH",
"222 187 OFFCURVE",
"190 210 OFFCURVE",
"190 293 CURVE SMOOTH",
"190 399 OFFCURVE",
"284 498 OFFCURVE",
"385 498 CURVE SMOOTH",
"492 498 OFFCURVE",
"571 387 OFFCURVE",
"571 234 CURVE SMOOTH",
"571 57 OFFCURVE",
"474 60 OFFCURVE",
"273 60 CURVE SMOOTH",
"0 60 LINE",
"0 0 LINE"
);
}
);
width = 661;
}
);
},
{
export = 0;
glyphname = "fehDotless-ar.init.002";
layers = (
{
anchors = (
{
name = "#entry";
position = "{0, 0}";
},
{
name = bottom;
position = "{300, -5}";
},
{
name = top;
position = "{335, 575}";
}
);
layerId = "7C6EC3B8-53E3-46D5-865A-ED8DFE2E3A2E";
paths = (
{
closed = 1;
nodes = (
"0 0 LINE",
"-1 0 OFFCURVE",
"180 -3 OFFCURVE",
"223 -3 CURVE SMOOTH",
"422 -2 OFFCURVE",
"596 -22 OFFCURVE",
"596 236 CURVE SMOOTH",
"596 409 OFFCURVE",
"502 575 OFFCURVE",
"335 575 CURVE SMOOTH",
"194 575 OFFCURVE",
"65 445 OFFCURVE",
"65 295 CURVE SMOOTH",
"65 153 OFFCURVE",
"149 114 OFFCURVE",
"305 114 CURVE SMOOTH",
"422 114 OFFCURVE",
"527 143 OFFCURVE",
"623 186 CURVE",
"611 213 LINE",
"519 172 OFFCURVE",
"395 144 OFFCURVE",
"305 144 CURVE SMOOTH",
"168 144 OFFCURVE",
"97 171 OFFCURVE",
"95 295 CURVE SMOOTH",
"95 427 OFFCURVE",
"208 545 OFFCURVE",
"335 545 CURVE SMOOTH",
"482 545 OFFCURVE",
"566 394 OFFCURVE",
"566 237 CURVE SMOOTH",
"566 38 OFFCURVE",
"482 23 OFFCURVE",
"223 27 CURVE SMOOTH",
"188 28 OFFCURVE",
"3 30 OFFCURVE",
"0 30 CURVE"
);
}
);
width = 663;
},
{
anchors = (
{
name = "#entry";
position = "{0, 0}";
},
{
name = top;
position = "{367, 942}";
}
);
layerId = "EA99615A-DD74-4F65-B9DC-480CDB683AEE";
paths = (
{
closed = 1;
nodes = (
"0 0 LINE",
"135 -1 OFFCURVE",
"283 0 OFFCURVE",
"322 0 CURVE SMOOTH",
"702 0 OFFCURVE",
"682 133 OFFCURVE",
"682 455 CURVE SMOOTH",
"682 688 OFFCURVE",
"591 784 OFFCURVE",
"372 784 CURVE SMOOTH",
"175 784 OFFCURVE",
"77 672 OFFCURVE",
"77 455 CURVE SMOOTH",
"77 286 OFFCURVE",
"173 193 OFFCURVE",
"351 189 CURVE SMOOTH",
"399 188 OFFCURVE",
"511 191 OFFCURVE",
"627 197 CURVE",
"623 287 LINE",
"507 281 OFFCURVE",
"398 278 OFFCURVE",
"353 279 CURVE SMOOTH",
"224 282 OFFCURVE",
"167 336 OFFCURVE",
"167 455 CURVE SMOOTH",
"167 624 OFFCURVE",
"227 694 OFFCURVE",
"372 694 CURVE SMOOTH",
"539 694 OFFCURVE",
"592 638 OFFCURVE",
"592 455 CURVE SMOOTH",
"592 127 OFFCURVE",
"598 90 OFFCURVE",
"322 90 CURVE SMOOTH",
"283 90 OFFCURVE",
"135 89 OFFCURVE",
"0 90 CURVE"
);
}
);
width = 731;
},
{
anchors = (
{
name = "#entry";
position = "{0, 0}";
},
{
name = top;
position = "{385, 793}";
}
);
layerId = "9AB624CD-9C19-4372-9845-4C197A276709";
paths = (
{
closed = 1;
nodes = (
"273 0 LINE SMOOTH",
"474 0 OFFCURVE",
"631 -5 OFFCURVE",
"631 234 CURVE SMOOTH",
"631 420 OFFCURVE",
"527 558 OFFCURVE",
"385 558 CURVE SMOOTH",
"251 558 OFFCURVE",
"130 433 OFFCURVE",
"130 293 CURVE SMOOTH",
"130 171 OFFCURVE",
"192 127 OFFCURVE",
"355 127 CURVE SMOOTH",
"468 127 OFFCURVE",
"551 142 OFFCURVE",
"618 175 CURVE",
"592 229 LINE",
"533 200 OFFCURVE",
"460 187 OFFCURVE",
"355 187 CURVE SMOOTH",
"222 187 OFFCURVE",
"190 210 OFFCURVE",
"190 293 CURVE SMOOTH",
"190 399 OFFCURVE",
"284 498 OFFCURVE",
"385 498 CURVE SMOOTH",
"492 498 OFFCURVE",
"571 387 OFFCURVE",
"571 234 CURVE SMOOTH",
"571 57 OFFCURVE",
"474 60 OFFCURVE",
"273 60 CURVE SMOOTH",
"0 60 LINE",
"0 0 LINE"
);
}
);
width = 661;
}
);
},
{
export = 0;
glyphname = "qafDotless-ar.001";
layers = (
{
anchors = (
{
name = bottom;
position = "{185, -129}";
},
{
name = top;
position = "{533, 505}";
}
);
layerId = "7C6EC3B8-53E3-46D5-865A-ED8DFE2E3A2E";
paths = (
{
closed = 1;
nodes = (
"-36 -391 OFFCURVE",
"267 -640 OFFCURVE",
"603 -463 CURVE SMOOTH",
"779 -371 OFFCURVE",
"843 -144 OFFCURVE",
"798 196 CURVE SMOOTH",
"773 388 OFFCURVE",
"673 505 OFFCURVE",
"533 505 CURVE SMOOTH",
"393 505 OFFCURVE",
"262 375 OFFCURVE",
"262 225 CURVE SMOOTH",
"265 -5 OFFCURVE",
"581 -52 OFFCURVE",
"844 54 CURVE",
"833 81 LINE",
"591 -15 OFFCURVE",
"295 25 OFFCURVE",
"292 225 CURVE SMOOTH",
"292 357 OFFCURVE",
"407 475 OFFCURVE",
"533 475 CURVE SMOOTH",
"657 475 OFFCURVE",
"745 370 OFFCURVE",
"768 192 CURVE SMOOTH",
"812 -135 OFFCURVE",
"752 -351 OFFCURVE",
"589 -437 CURVE SMOOTH",
"275 -602 OFFCURVE",
"-3 -371 OFFCURVE",
"58 0 CURVE",
"29 5 LINE"
);
}
);
width = 864;
},
{
anchors = (
{
name = "#entry";
position = "{947, 0}";
},
{
name = top;
position = "{625, 909}";
}
);
layerId = "EA99615A-DD74-4F65-B9DC-480CDB683AEE";
paths = (
{
closed = 1;
nodes = (
"496 -564 OFFCURVE",
"558 -564 OFFCURVE",
"597 -561 CURVE SMOOTH",
"930 -538 OFFCURVE",
"954 -293 OFFCURVE",
"954 262 CURVE SMOOTH",
"954 495 OFFCURVE",
"863 591 OFFCURVE",
"644 591 CURVE SMOOTH",
"447 591 OFFCURVE",
"349 479 OFFCURVE",
"349 262 CURVE SMOOTH",
"349 93 OFFCURVE",
"445 0 OFFCURVE",
"623 -4 CURVE SMOOTH",
"671 -5 OFFCURVE",
"783 -2 OFFCURVE",
"899 4 CURVE",
"895 94 LINE",
"779 88 OFFCURVE",
"670 85 OFFCURVE",
"625 86 CURVE SMOOTH",
"496 89 OFFCURVE",
"439 143 OFFCURVE",
"439 262 CURVE SMOOTH",
"439 431 OFFCURVE",
"499 501 OFFCURVE",
"644 501 CURVE SMOOTH",
"811 501 OFFCURVE",
"864 445 OFFCURVE",
"864 262 CURVE SMOOTH",
"864 -237 OFFCURVE",
"856 -453 OFFCURVE",
"591 -469 CURVE SMOOTH",
"545 -472 OFFCURVE",
"489 -472 OFFCURVE",
"450 -469 CURVE SMOOTH",
"166 -448 OFFCURVE",
"166 -326 OFFCURVE",
"171 -50 CURVE",
"81 -48 LINE",
"77 -257 OFFCURVE",
"35 -538 OFFCURVE",
"442 -561 CURVE SMOOTH"
);
}
);
width = 1075;
},
{
anchors = (
{
name = top;
position = "{672, 812}";
}
);
layerId = "9AB624CD-9C19-4372-9845-4C197A276709";
paths = (
{
closed = 1;
nodes = (
"90 -506 OFFCURVE",
"551 -637 OFFCURVE",
"787 -479 CURVE SMOOTH",
"1082 -282 OFFCURVE",
"1011 497 OFFCURVE",
"696 497 CURVE SMOOTH",
"565 497 OFFCURVE",
"440 356 OFFCURVE",
"440 212 CURVE SMOOTH",
"440 15 OFFCURVE",
"716 -60 OFFCURVE",
"971 45 CURVE",
"949 101 LINE",
"735 13 OFFCURVE",
"502 65 OFFCURVE",
"500 212 CURVE",
"500 323 OFFCURVE",
"599 437 OFFCURVE",
"696 437 CURVE SMOOTH",
"948 437 OFFCURVE",
"997 -265 OFFCURVE",
"753 -429 CURVE SMOOTH",
"541 -571 OFFCURVE",
"150 -460 OFFCURVE",
"160 -15 CURVE",
"100 -13 LINE"
);
}
);
width = 1065;
}
);
},
{
export = 0;
glyphname = "qafDotless-ar.fina.001";
layers = (
{
anchors = (
{
name = "#entry";
position = "{852, 0}";
},
{
name = top;
position = "{539, 710}";
}
);
layerId = "7C6EC3B8-53E3-46D5-865A-ED8DFE2E3A2E";
paths = (
{
closed = 1;
nodes = (
"-11 -376 OFFCURVE",
"278 -616 OFFCURVE",
"600 -445 CURVE SMOOTH",
"767 -356 OFFCURVE",
"830 -136 OFFCURVE",
"785 199 CURVE SMOOTH",
"760 384 OFFCURVE",
"669 495 OFFCURVE",
"537 495 CURVE SMOOTH",
"347 495 OFFCURVE",
"209 262 OFFCURVE",
"331 108 CURVE SMOOTH",
"425 -11 OFFCURVE",
"632 0 OFFCURVE",
"852 0 CURVE",
"852 30 LINE",
"631 30 OFFCURVE",
"439 19 OFFCURVE",
"355 126 CURVE SMOOTH",
"250 259 OFFCURVE",
"369 465 OFFCURVE",
"537 465 CURVE SMOOTH",
"652 465 OFFCURVE",
"733 365 OFFCURVE",
"755 195 CURVE SMOOTH",
"797 -128 OFFCURVE",
"740 -337 OFFCURVE",
"586 -419 CURVE SMOOTH",
"286 -579 OFFCURVE",
"23 -357 OFFCURVE",
"81 5 CURVE",
"52 10 LINE"
);
}
);
width = 852;
},
{
anchors = (
{
name = "#entry";
position = "{913, 0}";
},
{
name = top;
position = "{534, 839}";
}
);
layerId = "EA99615A-DD74-4F65-B9DC-480CDB683AEE";
paths = (
{
closed = 1;
nodes = (
"652 90 OFFCURVE",
"467 80 OFFCURVE",
"387 181 CURVE SMOOTH",
"292 301 OFFCURVE",
"399 495 OFFCURVE",
"558 495 CURVE SMOOTH",
"834 495 OFFCURVE",
"858 -223 OFFCURVE",
"600 -360 CURVE SMOOTH",
"311 -513 OFFCURVE",
"60 -302 OFFCURVE",
"117 48 CURVE",
"29 62 LINE",
"-40 -360 OFFCURVE",
"287 -629 OFFCURVE",
"642 -440 CURVE SMOOTH",
"980 -260 OFFCURVE",
"941 585 OFFCURVE",
"558 585 CURVE SMOOTH",
"324 585 OFFCURVE",
"176 304 OFFCURVE",
"317 125 CURVE SMOOTH",
"425 -12 OFFCURVE",
"654 0 OFFCURVE",
"913 0 CURVE",
"913 90 LINE"
);
}
);
width = 913;
},
{
anchors = (
{
name = "#entry";
position = "{857, 0}";
},
{
name = top;
position = "{502, 811}";
}
);
layerId = "9AB624CD-9C19-4372-9845-4C197A276709";
paths = (
{
closed = 1;
nodes = (
"15 -333 OFFCURVE",
"283 -556 OFFCURVE",
"555 -448 CURVE SMOOTH",
"856 -328 OFFCURVE",
"852 505 OFFCURVE",
"502 505 CURVE SMOOTH",
"318 505 OFFCURVE",
"177 232 OFFCURVE",
"287 92 CURVE SMOOTH",
"376 -22 OFFCURVE",
"597 0 OFFCURVE",
"857 0 CURVE",
"857 60 LINE",
"595 60 OFFCURVE",
"405 41 OFFCURVE",
"335 130 CURVE SMOOTH",
"256 231 OFFCURVE",
"368 445 OFFCURVE",
"502 445 CURVE SMOOTH",
"783 445 OFFCURVE",
"772 -297 OFFCURVE",
"533 -392 CURVE SMOOTH",
"302 -484 OFFCURVE",
"77 -293 OFFCURVE",
"91 -13 CURVE",
"31 -11 LINE"
);
}
);
width = 857;
}
);
},
